SplineFontDB: 3.0
FontName: linjatomolip-Regular
FullName: linjatomolip-Regular
FamilyName: linja pi tomo lipu
Weight: Regular
Copyright: Created using Inkscape and Fontforge By Pascal Guimier (jan Talu),\nCopyright (c) 2019 tomo-lipu.net.\nThis Font Software is licensed under the SIL Open Font License, Version 1.1.\nInspired by tomo-lipu.net closed website.\nBased on the official toki pona book
Version: 0.5
ItalicAngle: 0
UnderlinePosition: -125
UnderlineWidth: 50
Ascent: 819
Descent: 205
InvalidEm: 0
LayerCount: 2
Layer: 0 0 "Back" 1
Layer: 1 0 "Fore" 0
XUID: [1021 24 809101265 433829]
OS2Version: 0
OS2_WeightWidthSlopeOnly: 0
OS2_UseTypoMetrics: 0
CreationTime: 1578149709
ModificationTime: 1638952281
PfmFamily: 17
TTFWeight: 400
TTFWidth: 5
LineGap: 92
VLineGap: 92
Panose: 0 0 0 0 0 0 0 0 0 0
OS2TypoAscent: 0
OS2TypoAOffset: 1
OS2TypoDescent: 0
OS2TypoDOffset: 1
OS2TypoLinegap: 92
OS2WinAscent: 0
OS2WinAOffset: 1
OS2WinDescent: 0
OS2WinDOffset: 1
HheadAscent: 0
HheadAOffset: 1
HheadDescent: 0
HheadDOffset: 1
OS2Vendor: 'PfEd'
Lookup: 4 0 1 "'liga' Standard Ligatures in Latin lookup 0" { "'liga' Standard Ligatures in Latin lookup 0 subtable"  } ['liga' ('latn' <'dflt' > ) ]
Lookup: 258 0 0 "'kern' Horizontal Kerning lookup 0" { "'kern' Horizontal Kerning lookup 0 subtable"  } ['kern' ('DFLT' <'dflt' > ) ]
MarkAttachClasses: 1
DEI: 91125
Encoding: Custom
UnicodeInterp: none
NameList: AGL For New Fonts
DisplaySize: -72
AntiAlias: 1
FitToEm: 0
WinInfo: 0 8 7
BeginPrivate: 0
EndPrivate
BeginChars: 283 283

StartChar: .notdef
Encoding: 0 0 0
Width: 500
Flags: W
LayerCount: 2
Fore
SplineSet
0 0 m 1
 1000 0 l 1
 1000 1024 l 1
 0 1024 l 1
 0 0 l 1
EndSplineSet
Validated: 9
EndChar

StartChar: aa
Encoding: 1 57344 1
Width: 708
Flags: HW
LayerCount: 2
Fore
SplineSet
170 840 m 0
 143 840 122 818 122 791 c 0
 122 791 122 791 122 791 c 2
 122 303 l 2
 122 303 122 303 122 302 c 0
 122 275 144 254 171 254 c 0
 198 254 219 275 219 302 c 0
 219 303 219 303 219 303 c 2
 219 791 l 2
 219 791 219 791 219 791 c 0
 219 818 198 840 171 840 c 0
 170 840 170 840 170 840 c 0
170 230 m 0
 163 230 152 227 146 224 c 1
 134 228 122 230 110 230 c 0
 50 230 0 180 0 120 c 0
 0 60 50 10 110 10 c 0
 153 10 191 37 209 74 c 1
 258 25 l 2
 266 17 282 10 293 10 c 0
 320 10 342 32 342 59 c 0
 342 70 335 86 327 94 c 2
 205 216 l 2
 197 224 182 230 170 230 c 0
 170 230 170 230 170 230 c 0
110 132 m 0
 117 132 122 127 122 120 c 0
 122 113 117 108 110 108 c 0
 102 108 98 113 98 120 c 0
 98 127 102 132 110 132 c 0
EndSplineSet
Validated: 517
Ligature2: "'liga' Standard Ligatures in Latin lookup 0 subtable" a nonmarkingreturn
Ligature2: "'liga' Standard Ligatures in Latin lookup 0 subtable" a colon
Ligature2: "'liga' Standard Ligatures in Latin lookup 0 subtable" a comma
Ligature2: "'liga' Standard Ligatures in Latin lookup 0 subtable" a exclam
Ligature2: "'liga' Standard Ligatures in Latin lookup 0 subtable" a space
Ligature2: "'liga' Standard Ligatures in Latin lookup 0 subtable" a a
Ligature2: "'liga' Standard Ligatures in Latin lookup 0 subtable" a period
Ligature2: "'liga' Standard Ligatures in Latin lookup 0 subtable" a nbspace
EndChar

StartChar: akesi
Encoding: 2 57345 2
Width: 850
Flags: W
LayerCount: 2
Fore
SplineSet
232.5921 839.99531 m 2
 232.4053269 839.99789888 232.102144409 840 231.915353368 840 c 0
 204.962217328 840 183.087208368 818.12499104 183.087208368 791.171855 c 0
 183.087208368 764.21871896 204.962217328 742.34371 231.915353368 742.34371 c 0
 232.102144409 742.34371 232.4053269 742.34581112 232.5921 742.3484 c 2
 257.00348 742.3484 l 2
 257.1902531 742.34581112 257.493435591 742.34371 257.680226632 742.34371 c 0
 284.633362672 742.34371 306.508371632 764.21871896 306.508371632 791.171855 c 0
 306.508371632 818.12499104 284.633362672 840 257.680226632 840 c 0
 257.493435591 840 257.1902531 839.99789888 257.00348 839.99531 c 2
 232.5921 839.99531 l 2
574.35423 839.99531 m 2
 574.1674569 839.99789888 573.864274409 840 573.677483368 840 c 0
 546.724347328 840 524.849338368 818.12499104 524.849338368 791.171855 c 0
 524.849338368 764.21871896 546.724347328 742.34371 573.677483368 742.34371 c 0
 573.864274409 742.34371 574.1674569 742.34581112 574.35423 742.3484 c 2
 598.76561 742.3484 l 2
 598.9523831 742.34581112 599.255565591 742.34371 599.442356632 742.34371 c 0
 626.395492672 742.34371 648.270501632 764.21871896 648.270501632 791.171855 c 0
 648.270501632 818.12499104 626.395492672 840 599.442356632 840 c 0
 599.255565591 840 598.9523831 839.99789888 598.76561 839.99531 c 2
 574.35423 839.99531 l 2
415.67955 778.96616 m 0
 321.88268 778.96616 244.7971 701.88066 244.7971 608.08372 c 2
 244.7971 595.87872 l 1
 49.504655 595.87872 l 2
 49.3179814717 595.88130612 49.014960627 595.883405 48.828269186 595.883405 c 0
 21.875133146 595.883405 0.000124185967799 574.00839604 0.000124185967799 547.05526 c 0
 0.000124185967799 520.10212396 21.875133146 498.227115 48.828269186 498.227115 c 0
 49.014960627 498.227115 49.3179814717 498.22921388 49.504655 498.2318 c 2
 244.7971 498.2318 l 1
 244.7971 412.79127 l 1
 49.504655 412.79127 l 2
 49.3178819003 412.79385888 49.0146994091 412.79596 48.8279083679 412.79596 c 0
 21.8747723279 412.79596 -0.00023663205679 390.92095104 -0.00023663205679 363.967815 c 0
 -0.00023663205679 337.01467896 21.8747723279 315.13967 48.8279083679 315.13967 c 0
 49.0146994091 315.13967 49.3178819003 315.14177112 49.504655 315.14436 c 2
 244.7971 315.14436 l 1
 244.7971 229.70383 l 1
 49.504655 229.70383 l 2
 49.3179814717 229.70641612 49.014960627 229.708515 48.828269186 229.708515 c 0
 21.875133146 229.708515 0.000124185966932 207.83350604 0.000124185966932 180.88037 c 0
 0.000124185966932 153.92723396 21.875133146 132.052225 48.828269186 132.052225 c 0
 49.014960627 132.052225 49.3179814717 132.05432388 49.504655 132.05691 c 2
 252.02171 132.05691 l 1
 273.22589 61.76458 338.826 10 415.67955 10 c 0
 492.53312 10 558.13323 61.76453 579.33739 132.05691 c 1
 781.85304 132.05691 l 2
 782.039713528 132.05432388 782.342734373 132.052225 782.529425814 132.052225 c 0
 809.482561854 132.052225 831.357570814 153.92723396 831.357570814 180.88037 c 0
 831.357570814 207.83350604 809.482561854 229.708515 782.529425814 229.708515 c 0
 782.342734373 229.708515 782.039713528 229.70641612 781.85304 229.70383 c 2
 586.56061 229.70383 l 1
 586.56061 315.14436 l 1
 781.85304 315.14436 l 2
 782.0398131 315.14177112 782.342995591 315.13967 782.529786632 315.13967 c 0
 809.482922672 315.13967 831.357931632 337.01467896 831.357931632 363.967815 c 0
 831.357931632 390.92095104 809.482922672 412.79596 782.529786632 412.79596 c 0
 782.342995591 412.79596 782.0398131 412.79385888 781.85304 412.79127 c 2
 586.56061 412.79127 l 1
 586.56061 498.2318 l 1
 781.85304 498.2318 l 2
 782.039713528 498.22921388 782.342734373 498.227115 782.529425814 498.227115 c 0
 809.482561854 498.227115 831.357570814 520.10212396 831.357570814 547.05526 c 0
 831.357570814 574.00839604 809.482561854 595.883405 782.529425814 595.883405 c 0
 782.342734373 595.883405 782.039713528 595.88130612 781.85304 595.87872 c 2
 586.56061 595.87872 l 1
 586.56061 608.08372 l 2
 586.56061 701.88066 509.47641 778.96616 415.67955 778.96616 c 0
415.67955 681.31925 m 0
 456.7044 681.31925 488.9137 649.10859 488.9137 608.08372 c 2
 488.9137 595.87872 l 1
 342.44401 595.87872 l 1
 342.44401 608.08372 l 2
 342.44401 649.10859 374.65469 681.31925 415.67955 681.31925 c 0
342.44401 498.2318 m 1
 488.9137 498.2318 l 1
 488.9137 412.79127 l 1
 342.44401 412.79127 l 1
 342.44401 498.2318 l 1
342.44401 315.14436 m 1
 488.9137 315.14436 l 1
 488.9137 229.70383 l 1
 342.44401 229.70383 l 1
 342.44401 315.14436 l 1
360.79436 132.05691 m 1
 470.56336 132.05691 l 1
 457.23728 117.03637 437.76572 107.64553 415.67955 107.64553 c 0
 393.59337 107.64553 374.12043 117.03637 360.79436 132.05691 c 1
EndSplineSet
Validated: 9
Ligature2: "'liga' Standard Ligatures in Latin lookup 0 subtable" a k e s i
EndChar

StartChar: alasa
Encoding: 3 57346 3
Width: 850
Flags: W
LayerCount: 2
Fore
SplineSet
171.54175 840 m 0
 144.593312592 839.997578368 122.720151632 818.124417408 122.71773 791.17598 c 2
 122.71773 473.82402 l 1
 49.483086 473.82402 l 2
 49.3024250045 473.826442176 49.0091649936 473.828408 48.8284877613 473.828408 c 0
 21.8752065453 473.828408 7.97613335735e-05 451.953281216 7.97613335735e-05 425 c 0
 7.97613335735e-05 398.046718784 21.8752065453 376.171592 48.8284877613 376.171592 c 0
 49.0091649936 376.171592 49.3024250045 376.173557824 49.483086 376.17598 c 2
 122.71773 376.17598 l 1
 122.71773 58.82402 l 2
 122.720151632 31.8755825919 144.593312592 10.0024216319 171.54175 10 c 0
 281.58783 10 387.1759 53.73581 464.9902 131.55017 c 0
 531.203 197.763 572.62486 284.10887 583.53926 376.17598 c 1
 663.96352 376.17598 l 1
 625.25263 337.46509 l 2
 617.099289603 329.528874949 610.482085803 313.853513453 610.482085803 302.475443803 c 0
 610.482085803 275.522162587 632.357212587 253.647035803 659.310493803 253.647035803 c 0
 670.688563453 253.647035803 686.363924949 260.264239603 694.30014 268.41758 c 2
 812.09548 386.21291 l 2
 822.691511989 394.303592336 831.291190125 411.689898299 831.291190125 425.021628666 c 0
 831.291190125 438.431161819 822.610818229 455.878786737 811.91536 463.96722 c 2
 694.30014 581.58242 l 2
 686.363924949 589.735760397 670.688563453 596.352964197 659.310493803 596.352964197 c 0
 632.357212587 596.352964197 610.482085803 574.477837413 610.482085803 547.524556197 c 0
 610.482085803 536.146486547 617.099289603 520.471125051 625.25263 512.53491 c 2
 663.96352 473.82402 l 1
 583.53926 473.82402 l 1
 572.62486 565.89113 531.203 652.237 464.9902 718.44984 c 0
 387.1759 796.26419 281.58783 840 171.54175 840 c 0
220.36438 738.53477 m 1
 286.45227 728.24801 348.05111 697.29532 395.94407 649.40233 c 0
 443.83671 601.50966 474.78957 539.91141 485.07652 473.82402 c 1
 220.36438 473.82402 l 1
 220.36438 738.53477 l 1
220.36438 376.17598 m 1
 485.07652 376.17598 l 1
 474.78957 310.08859 443.83671 248.49034 395.94407 200.59767 c 0
 348.05111 152.70468 286.45227 121.75199 220.36438 111.46523 c 1
 220.36438 376.17598 l 1
EndSplineSet
Validated: 9
Ligature2: "'liga' Standard Ligatures in Latin lookup 0 subtable" a l a s a
EndChar

StartChar: ala
Encoding: 4 57347 4
Width: 850
Flags: W
LayerCount: 2
Fore
SplineSet
48.749838 840.00008 m 0
 21.8399280535 839.987906093 1.14045377586e-06 818.138079209 1.14045377586e-06 791.228144991 c 0
 1.14045377194e-06 779.853124771 6.61952856553 764.186181735 14.775732 756.25729 c 2
 346.0453 424.98882 l 1
 14.775732 93.71899 l 2
 6.63308659849 85.7921434361 0.0245627943616 70.1359048736 0.0245627943616 58.772028923 c 0
 0.0245627943616 31.849918043 21.8743744424 10.000088923 48.7964637944 10.000088923 c 0
 60.1603306922 10.000088923 75.8165567684 16.6086180455 83.743397 24.75127 c 2
 415.01297 356.01973 l 1
 746.28114 24.75127 l 2
 754.207816546 16.6096991079 769.863188444 10.0020473694 781.226166559 10.0020473694 c 0
 808.148255911 10.0020473694 829.998067559 31.8518764894 829.998067559 58.7739873694 c 0
 829.998067559 70.1369503917 823.390444972 85.7923115702 815.24891 93.71899 c 2
 483.98064 424.98745 l 1
 815.24891 756.25729 l 2
 823.390341775 764.183952799 829.997880607 779.839232433 829.997880607 791.202110611 c 0
 829.997880607 818.124221491 808.148068959 839.974050611 781.225979607 839.974050611 c 0
 769.863088635 839.974050611 754.207800492 833.366484897 746.28114 825.22502 c 2
 415.01297 493.95654 l 1
 83.743397 825.22502 l 2
 75.8145677915 833.380856216 60.1479321607 840.000085609 48.7732281813 840.000085609 c 0
 48.7667724909 840.000085609 48.7562936897 840.000083096 48.749838 840.00008 c 0
EndSplineSet
Validated: 9
Ligature2: "'liga' Standard Ligatures in Latin lookup 0 subtable" a l a
EndChar

StartChar: ale
Encoding: 5 57348 5
Width: 850
Flags: HW
LayerCount: 2
Fore
SplineSet
170 600 m 0
 208 599 248 583 285 553 c 0
 327 520 369 470 415 399 c 1
 461 470 503 520 545 553 c 0
 582.652097175 582.982225528 623.707405238 599.837780485 661.725123887 599.837780485 c 0
 678.231773363 599.837780485 694.165791881 596.660256707 709 590 c 0
 759 568 787 522 804 471 c 0
 822 421 830 363 830 305 c 0
 830 247 822 189 804 138 c 0
 787 88 759 42 709 20 c 0
 693.93147148 13.2345382154 677.728113047 9.96813532935 660.94248273 9.96813532935 c 0
 623.144423311 9.96813532935 582.393866529 26.5309235691 545 57 c 0
 503 90 461 140 415 211 c 1
 369 140 327 90 285 57 c 0
 247.606133471 26.5309235691 206.855576689 9.96813532935 169.05751727 9.96813532935 c 0
 152.271886953 9.96813532935 136.06852852 13.2345382154 121 20 c 0
 71 42 43 88 26 138 c 0
 8 189 0 247 0 305 c 0
 0 363 8 421 26 471 c 0
 43 522 71 568 121 590 c 0
 136 597 153 600 170 600 c 0
175 503 m 4
 169 504 164 502 160 500 c 4
 149 495 131 475 118 439 c 4
 105 402 98 354 98 305 c 4
 98 256 105 207 118 171 c 4
 131 135 149 114 160 109 c 4
 163.523490745 107.398413298 167.559997482 106.104636191 172.635369552 106.104636191 c 4
 183.404822064 106.104636191 198.851741596 111.929837553 224 133 c 4
 259 160 305 216 358 305 c 5
 305 394 259 449 224 477 c 4
 201 496 186 502 175 503 c 4
655 503 m 0
 644 502 629 496 606 477 c 0
 571 449 525 394 472 305 c 1
 525 216 571 160 606 133 c 0
 631.148258404 111.929837553 646.595177936 106.104636191 657.364630448 106.104636191 c 0
 662.440002518 106.104636191 666.476509255 107.398413298 670 109 c 0
 681 114 699 135 712 171 c 0
 725 207 732 256 732 305 c 0
 732 354 725 402 712 439 c 0
 699 475 681 495 670 500 c 0
 666 502 661 504 655 503 c 0
EndSplineSet
Validated: 1
Ligature2: "'liga' Standard Ligatures in Latin lookup 0 subtable" a l e
EndChar

StartChar: ali
Encoding: 6 57349 6
Width: 1024
LayerCount: 2
Fore
SplineSet
170.13033 623.71468 m 0
 152.9553 623.8671 136.3221 620.68578 120.79781 613.8939 c 0
 71.120079 592.15986 43.377404 545.65683 25.650689 495.24647 c 0
 7.9239748 444.83609 0 386.9105 0 328.85989 c 0
 0 270.80929 7.9239748 212.88368 25.650689 162.47332 c 0
 43.377411 112.06297 71.120058 65.56127 120.79781 43.82728 c 0
 170.47556 22.0932 231.49965 37.31923 285.34576 80.50833 c 0
 326.74367 113.71294 369.11453 163.63161 415 234.75332 c 1
 460.88547 163.63161 503.25633 113.71294 544.65424 80.50833 c 0
 598.50035 37.31923 659.52444 22.0932 709.20219 43.82728 c 0
 758.87994 65.56127 786.62255 112.06297 804.34934 162.47332 c 0
 822.07607 212.88368 830 270.80929 830 328.85989 c 0
 830 386.9105 822.07607 444.83609 804.34934 495.24647 c 0
 786.62255 545.65683 758.87994 592.15986 709.20219 613.8939 c 0
 659.52447 635.62794 598.50037 620.40052 544.65424 577.21146 c 0
 503.25632 544.00689 460.88547 494.08953 415 422.96785 c 1
 369.11453 494.08953 326.74368 544.00689 285.34576 577.21146 c 0
 248.32655 606.90393 207.91539 623.37937 170.13033 623.71468 c 0
175.33445 527.18616 m 0
 185.89071 526.29093 200.68866 519.93753 224.24992 501.03945 c 0
 258.86201 473.27768 305.08799 417.96531 358.29913 328.85989 c 1
 305.08815 239.75481 258.86193 184.44209 224.24992 156.68034 c 0
 186.55191 126.44336 171.28849 128.32036 159.93683 133.28671 c 0
 148.58517 138.25306 130.55698 158.50164 117.769 194.86749 c 0
 104.981 231.23334 97.64665 280.109 97.64665 328.85989 c 0
 97.64665 377.61079 104.981 426.48781 117.769 462.85369 c 0
 130.55699 499.21955 148.58515 519.46671 159.93683 524.43308 c 0
 164.19371 526.29547 169.0007 527.72331 175.33445 527.18616 c 0
654.66556 527.18616 m 0
 660.9993 527.72331 665.80629 526.29547 670.06318 524.43308 c 0
 681.41485 519.46671 699.44301 499.21955 712.23103 462.85369 c 0
 725.01895 426.48781 732.35337 377.61079 732.35337 328.85989 c 0
 732.35337 280.109 725.01895 231.23334 712.23103 194.86749 c 0
 699.44302 158.50164 681.41483 138.25306 670.06318 133.28671 c 0
 658.71151 128.32036 643.4481 126.44336 605.75008 156.68034 c 0
 571.13807 184.44209 524.91185 239.75481 471.70087 328.85989 c 1
 524.91201 417.96531 571.13799 473.27768 605.75008 501.03945 c 0
 629.31134 519.93753 644.1093 526.29093 654.66556 527.18616 c 0
EndSplineSet
Validated: 41
Ligature2: "'liga' Standard Ligatures in Latin lookup 0 subtable" a l i
EndChar

StartChar: anpa
Encoding: 7 57350 7
Width: 850
Flags: W
LayerCount: 2
Fore
SplineSet
48.088839 840.68154 m 0
 21.5437998957 840.27974201 4.29649205103e-08 818.407377403 4.29649205103e-08 791.859297573 c 0
 4.29649205103e-08 791.668282849 0.00219726659664 791.358245537 0.00490456 791.16725 c 2
 0.00490456 302.93772 l 2
 0.00760040605636 275.990145547 21.8802835472 254.117463947 48.827858 254.11477 c 2
 781.17213 254.11477 l 2
 808.119735668 254.117432736 829.992444148 275.990114336 829.99514 302.93772 c 2
 829.99514 791.16725 l 2
 829.99782272 791.357376882 830 791.666003993 830 791.856149802 c 0
 830 818.809114722 808.12512992 840.683984802 781.172165 840.683984802 c 0
 754.21920008 840.683984802 732.34433 818.809114722 732.34433 791.856149802 c 0
 732.34433 791.666003993 732.34650728 791.357376882 732.34919 791.16725 c 2
 732.34919 351.76067 l 1
 97.650808 351.76067 l 1
 97.650808 791.16725 l 2
 97.6535152984 791.358245714 97.6557125262 791.668283315 97.6557125262 791.859298216 c 0
 97.6557125262 818.812263136 75.7808424462 840.687133216 48.8278775262 840.687133216 c 0
 48.6238912096 840.687133216 48.2928019499 840.684627455 48.088839 840.68154 c 0
415 229.70329 m 0
 354.90891 229.70329 305.14836 179.94274 305.14836 119.85164 c 0
 305.14836 59.76055 354.90891 10 415 10 c 0
 475.0911 10 524.85165 59.76055 524.85165 119.85164 c 0
 524.85165 179.94274 475.0911 229.70329 415 229.70329 c 0
415 132.05738 m 0
 422.31933 132.05738 427.20574 127.17097 427.20574 119.85164 c 0
 427.20574 112.53231 422.31933 107.64591 415 107.64591 c 0
 407.68067 107.64591 402.79426 112.53231 402.79426 119.85164 c 0
 402.79426 127.17097 407.68067 132.05738 415 132.05738 c 0
EndSplineSet
Validated: 9
Ligature2: "'liga' Standard Ligatures in Latin lookup 0 subtable" a n p a
EndChar

StartChar: ante
Encoding: 8 57351 8
Width: 850
Flags: W
LayerCount: 2
Fore
SplineSet
48.888051 839.99296 m 0
 48.8591346722 839.993022102 48.81219797 839.993072504 48.7832815755 839.993072504 c 0
 21.8549093595 839.993072504 -1.42452852714e-06 818.13816172 -1.42452852714e-06 791.209789504 c 0
 -1.42452853498e-06 776.551941644 9.99070833366 758.197708906 22.30069 750.24052 c 2
 388.13887 506.34932 l 2
 394.92225437 501.827742423 407.04391805 498.158056273 415.196155 498.158056273 c 0
 423.34839195 498.158056273 435.47005563 501.827742423 442.25344 506.34932 c 2
 808.09162 750.24052 l 2
 820.407643615 758.196950377 830.403256984 776.554351887 830.403256984 791.216862656 c 0
 830.403256984 818.145234872 808.5483462 840.000145656 781.619973984 840.000145656 c 0
 773.254174026 840.000145656 760.870148561 836.152817682 753.97706 831.41236 c 2
 415.19615 605.55982 l 1
 76.415253 831.41236 l 2
 69.5503477567 836.130848851 57.2181612607 839.974957651 48.888051 839.99296 c 0
414.60702 351.81688 m 0
 406.632497739 351.720419723 394.774766539 348.052061323 388.13887 343.62858 c 2
 22.30069 99.73739 l 2
 10.0036566256 91.7785827991 0.0234556260474 73.4311472041 0.0234556260474 58.7832926898 c 0
 0.0234556260474 31.8549204738 21.87836641 10.0000096898 48.806738626 10.0000096898 c 0
 57.1599091061 10.0000096898 69.5285235456 13.8367490288 76.415253 18.56416 c 2
 415.19615 244.41809 l 1
 753.97706 18.56416 l 2
 760.863798609 13.8367302795 773.232435216 9.99997572378 781.585623854 9.99997572378 c 0
 808.51399607 9.99997572378 830.368906854 31.8548865078 830.368906854 58.7832587238 c 0
 830.368906854 73.4311355969 820.388682344 91.7785864086 808.09162 99.73739 c 2
 442.25344 343.62858 l 2
 435.469889481 348.150479509 423.347833834 351.820426937 415.195280073 351.820426937 c 0
 415.03291439 351.820426937 414.769373878 351.818837909 414.60702 351.81688 c 0
EndSplineSet
Validated: 9
Ligature2: "'liga' Standard Ligatures in Latin lookup 0 subtable" a n t e
EndChar

StartChar: anu
Encoding: 9 57352 9
Width: 850
Flags: W
LayerCount: 2
Fore
SplineSet
48.737808 839.99999 m 0
 21.8345419087 839.987962821 7.10993954237e-06 818.143664652 7.10993953845e-06 791.240395872 c 0
 7.10993953845e-06 779.86777807 6.61833480469 764.204342479 14.77306 756.27737 c 2
 366.15347 404.89834 l 1
 366.15347 59.43152 l 2
 366.150914792 59.2460956314 366.148841 58.945102658 366.148841 58.7596606844 c 0
 366.148841 31.8443620364 387.993141352 10.0000616844 414.90844 10.0000616844 c 0
 441.823738648 10.0000616844 463.668039 31.8443620364 463.668039 58.7596606844 c 0
 463.668039 58.945102658 463.665965208 59.2460956314 463.66341 59.43152 c 2
 463.66341 404.89834 l 1
 815.04384 756.27737 l 2
 823.181685392 764.201794818 829.786313536 779.85190181 829.786313536 791.210644536 c 0
 829.786313536 818.125943184 807.942013184 839.970243536 781.026714536 839.970243536 c 0
 769.66797181 839.970243536 754.017864818 833.365615392 746.09344 825.22777 c 2
 414.90844 494.04141 l 1
 83.723467 825.22777 l 2
 75.7965631523 833.382038549 60.1334878305 839.999995633 48.7612452994 839.999995633 c 0
 48.7547766044 839.999995633 48.7442766943 839.999993109 48.737808 839.99999 c 0
EndSplineSet
Validated: 9
Ligature2: "'liga' Standard Ligatures in Latin lookup 0 subtable" a n u
EndChar

StartChar: awen
Encoding: 10 57353 10
Width: 850
Flags: W
LayerCount: 2
Fore
SplineSet
416.96076 839.98425 m 0
 416.618472184 839.992947726 416.062784896 840.00000675 415.720386591 840.00000675 c 0
 394.68446917 840.00000675 373.464363817 823.438814606 368.35408 803.03306 c 2
 194.50836 107.65295 l 1
 49.539079 107.65295 l 2
 49.3430754458 107.65580108 49.0249079209 107.658115 48.8288836319 107.658115 c 0
 21.8752452719 107.658115 -0.000171368138297 85.78269836 -0.000171368138297 58.82906 c 0
 -0.000171368138297 31.87542164 21.8752452719 10.000005 48.8288836319 10.000005 c 0
 49.0249079209 10.000005 49.3430754458 10.00231892 49.539079 10.00517 c 2
 232.62953 10.00517 l 2
 253.670397477 10.006929789 274.890329637 26.574740349 279.99545 46.98689 c 2
 415.71999 589.88645 l 1
 551.44454 46.98689 l 2
 556.549659285 26.5747446578 577.769586965 10.0069340978 598.81045 10.00517 c 2
 781.90093 10.00517 l 2
 782.096933554 10.00231892 782.415101079 10.000005 782.611125368 10.000005 c 0
 809.564763728 10.000005 831.440180368 31.87542164 831.440180368 58.82906 c 0
 831.440180368 85.78269836 809.564763728 107.658115 782.611125368 107.658115 c 0
 782.415101079 107.658115 782.096933554 107.65580108 781.90093 107.65295 c 2
 636.93162 107.65295 l 1
 463.0859 803.03306 l 2
 458.108236765 822.909286599 437.444174045 839.463419719 416.96076 839.98425 c 0
EndSplineSet
Validated: 9
Ligature2: "'liga' Standard Ligatures in Latin lookup 0 subtable" a w e n
EndChar

StartChar: ee
Encoding: 11 57354 11
Width: 850
Flags: W
LayerCount: 2
Fore
SplineSet
48.751629 839.99999 m 0
 21.8426880015 839.987742015 0.0035474809002 818.138658838 0.0035474809002 791.229715052 c 0
 0.0035474809002 779.855156502 6.62278131346 764.188818238 14.778623 756.26021 c 2
 346.0378 425.00241 l 1
 14.778623 93.74324 l 2
 6.62084624683 85.8143410118 4.19254091142e-05 70.1464761689 4.19254091142e-05 58.7703274041 c 0
 4.19254091142e-05 31.8491328441 21.8491273654 10.0000474041 48.7703219254 10.0000474041 c 0
 60.1464713803 10.0000474041 75.8143368857 16.620852407 83.743236 24.77863 c 2
 449.48471 390.52011 l 2
 457.367818653 398.404814616 463.765703937 413.852887256 463.765703937 425.002415 c 0
 463.765703937 436.151942744 457.367818653 451.600015384 449.48471 459.48472 c 2
 83.743236 825.22481 l 2
 75.8146186802 833.380712098 60.1482327536 839.99999496 48.7736245566 839.99999496 c 0
 48.7675537827 839.99999496 48.7576997733 839.999992738 48.751629 839.99999 c 0
414.49173 839.99999 m 0
 387.583548187 839.986983541 365.745023817 818.137900654 365.745023817 791.229715697 c 0
 365.745023817 779.855156846 372.364257947 764.188818293 380.5201 756.26021 c 2
 711.7779 425.00241 l 1
 380.5201 93.74324 l 2
 372.362293317 85.814336517 365.741464704 70.1464480644 365.741464704 58.7702747039 c 0
 365.741464704 31.8490801439 387.590550144 9.99999470389 414.511744704 9.99999470389 c 0
 425.887918064 9.99999470389 441.555806517 16.6208233165 449.48471 24.77863 c 2
 815.22481 390.52011 l 2
 823.107918653 398.404814616 829.505803937 413.852887256 829.505803937 425.002415 c 0
 829.505803937 436.151942744 823.107918653 451.600015384 815.22481 459.48472 c 2
 449.48471 825.22481 l 2
 441.556092627 833.38071245 425.889706423 839.999995598 414.515097936 839.999995598 c 0
 414.508648385 839.999995598 414.49817955 839.99999309 414.49173 839.99999 c 0
EndSplineSet
Validated: 521
Ligature2: "'liga' Standard Ligatures in Latin lookup 0 subtable" e space
Ligature2: "'liga' Standard Ligatures in Latin lookup 0 subtable" e e
Ligature2: "'liga' Standard Ligatures in Latin lookup 0 subtable" e comma
Ligature2: "'liga' Standard Ligatures in Latin lookup 0 subtable" e period
Ligature2: "'liga' Standard Ligatures in Latin lookup 0 subtable" e colon
Ligature2: "'liga' Standard Ligatures in Latin lookup 0 subtable" e nonmarkingreturn
Ligature2: "'liga' Standard Ligatures in Latin lookup 0 subtable" e nbspace
EndChar

StartChar: en
Encoding: 12 1085 12
Width: 850
Flags: W
LayerCount: 2
Fore
SplineSet
414.25068 839.99446 m 0
 387.746659815 839.595368915 366.23615068 817.758521303 366.23615068 791.25149658 c 0
 366.23615068 791.061128037 366.238336615 790.752139489 366.24103 790.56179 c 2
 366.24103 473.72908 l 1
 49.408327 473.72908 l 2
 49.2262576156 473.731544128 48.9307111693 473.733544 48.7486251109 473.733544 c 0
 21.8394591829 473.733544 0.000136110889088 451.894220928 0.000136110889088 424.985055 c 0
 0.000136110889088 398.075889072 21.8394591829 376.236566 48.7486251109 376.236566 c 0
 48.9307111693 376.236566 49.2262576156 376.238565872 49.408327 376.24103 c 2
 366.24103 376.24103 l 1
 366.24103 59.40832 l 2
 366.238565872 59.2262506156 366.236566 58.9307041693 366.236566 58.7486181109 c 0
 366.236566 31.8394521829 388.075889072 10.0001291109 414.985055 10.0001291109 c 0
 441.894220928 10.0001291109 463.733544 31.8394521829 463.733544 58.7486181109 c 0
 463.733544 58.9307041693 463.731544128 59.2262506156 463.72908 59.40832 c 2
 463.72908 376.24103 l 1
 780.56181 376.24103 l 2
 780.743879384 376.238565872 781.039425831 376.236566 781.221511889 376.236566 c 0
 808.130677817 376.236566 829.970000889 398.075889072 829.970000889 424.985055 c 0
 829.970000889 451.894220928 808.130677817 473.733544 781.221511889 473.733544 c 0
 781.039425831 473.733544 780.743879384 473.731544128 780.56181 473.72908 c 2
 463.72908 473.72908 l 1
 463.72908 790.56179 l 2
 463.731773483 790.752142943 463.733959497 791.061137099 463.733959497 791.251509097 c 0
 463.733959497 818.160675025 441.894636425 839.999998097 414.985470497 839.999998097 c 0
 414.7826568 839.999998097 414.453470657 839.99751703 414.25068 839.99446 c 0
EndSplineSet
Validated: 9
Ligature2: "'liga' Standard Ligatures in Latin lookup 0 subtable" e n
EndChar

StartChar: esun
Encoding: 13 57355 13
Width: 850
Flags: W
LayerCount: 2
Fore
SplineSet
595.62597 840 m 0
 536.27541 840 481.92814 824.50261 439.5948 795.85305 c 0
 397.26146 767.2035 365.24656 721.50711 366.41264 668.02658 c 2
 366.40154 669.09143 l 1
 366.40154 597.74226 l 1
 297.42263 602.17327 232.73278 613.28994 183.22916 629.09435 c 0
 150.70989 639.47638 126.20773 651.59842 112.14066 661.79831 c 0
 98.07358 671.99819 97.075091 678.40851 97.43379 675.83826 c 1
 94.4807578447 699.443066248 72.7772372614 718.60059016 48.9884315552 718.60059016 c 0
 22.0381410752 718.60059016 0.165441555236 696.72789064 0.165441555236 669.77760016 c 0
 0.165441555236 667.713674318 0.42050839513 664.383067526 0.73478718 662.34321 c 0
 5.6214236 627.32777 28.341871 601.9582 54.827269 582.75392 c 0
 81.312678 563.54965 114.19576 548.64253 153.53396 536.08351 c 0
 215.01768 516.45436 288.7394 504.32526 366.40155 499.91185 c 1
 366.40155 351.55094 l 1
 277.00023 349.13055 193.86139 336.5105 128.14531 313.48252 c 0
 91.417829 300.61261 61.247227 285.32648 37.616339 263.85603 c 0
 14.653482 242.99252 -3.0413517 211.07074 0.43807002 177.14971 c 0
 2.6520087 124.88562 35.502156 81.57035 77.770096 53.78506 c 0
 120.7684 25.51966 175.46286 10 234.81342 10 c 0
 294.16398 10 348.51125 25.49878 390.84459 54.14833 c 0
 433.17793 82.79789 465.19283 128.49289 464.02675 181.97343 c 2
 464.03785 180.90996 l 1
 464.03785 252.25913 l 1
 533.01677 247.82812 597.70662 236.71006 647.21024 220.90565 c 0
 679.72951 210.52363 704.23166 198.40297 718.29871 188.20308 c 0
 732.36581 178.00319 733.36429 171.59149 733.00558 174.16174 c 1
 735.959159216 150.557642948 757.662607785 131.400694617 781.450777698 131.400694617 c 0
 808.401068178 131.400694617 830.273767698 153.273394137 830.273767698 180.223684617 c 0
 830.273767698 182.287249573 830.018789529 185.617280785 829.70462 187.65679 c 0
 824.81799 222.67223 802.09755 248.0418 775.61215 267.24608 c 0
 749.12668 286.45036 716.24366 301.35747 676.90543 313.9165 c 0
 615.42171 333.54565 541.69999 345.67474 464.03784 350.08815 c 1
 464.03784 498.45045 l 1
 553.43917 500.87084 636.57801 513.4895 702.29408 536.51748 c 0
 739.02153 549.38739 769.19216 564.67352 792.82305 586.14397 c 0
 815.78606 607.00761 833.48105 638.93042 830.00133 672.85168 c 0
 827.78701 725.11532 794.93692 768.43122 752.6693 796.21633 c 0
 709.67099 824.48174 654.97653 840 595.62597 840 c 0
595.62597 742.3651 m 0
 637.38102 742.3651 674.81441 730.55213 699.03714 714.62906 c 0
 723.25989 698.70598 732.24531 681.9755 732.54944 668.02658 c 0
 732.58318129 666.899650335 732.71424369 665.075914015 732.84199 663.95574 c 0
 732.40831 663.49561 731.25571 662.12446 727.16555 658.40826 c 0
 718.43356 650.47455 698.74659 638.73152 670.00608 628.66037 c 0
 619.14499 610.83782 544.76387 598.69688 464.03784 596.12695 c 1
 464.03784 669.09143 l 2
 464.037842784 669.097554928 464.037845043 669.10749684 464.037845043 669.113621768 c 0
 464.037845043 669.401044488 464.032869984 669.867532656 464.02674 670.15489 c 0
 463.7226 684.10381 471.35742 699.4534 494.31815 714.99233 c 0
 517.27888 730.53125 553.8709 742.3651 595.62597 742.3651 c 0
366.40155 253.87443 m 1
 366.40155 180.90996 l 2
 366.401546864 180.903459676 366.401544319 180.892908425 366.401544319 180.8864081 c 0
 366.401544319 180.598977134 366.406519664 180.132475585 366.41265 179.84511 c 0
 366.71679 165.89619 359.08198 150.5466 336.12124 135.00768 c 0
 313.16052 119.46875 276.56849 107.6363 234.81343 107.6363 c 0
 193.05838 107.6363 155.62499 119.44787 131.40227 135.37095 c 0
 107.17954 151.29402 98.194102 168.02451 97.889966 181.97343 c 0
 97.856222784 183.100359746 97.725157248 184.924096066 97.597409 186.04427 c 0
 98.031102 186.50437 99.183668 187.8769 103.27384 191.59313 c 0
 112.00586 199.52684 131.6928 211.26849 160.43332 221.33963 c 0
 211.29443 239.16219 285.67556 251.3045 366.40155 253.87443 c 1
EndSplineSet
Validated: 37
Ligature2: "'liga' Standard Ligatures in Latin lookup 0 subtable" e s u n
EndChar

StartChar: ijo
Encoding: 14 57356 14
Width: 850
Flags: W
LayerCount: 2
Fore
SplineSet
415 840 m 0
 304.95392 840 199.3645 796.26416 121.55017 718.44984 c 0
 43.735836 640.6355 0 535.04608 0 425 c 0
 0 314.95392 43.735836 209.3645 121.55017 131.55017 c 0
 199.3645 53.73584 304.95392 10 415 10 c 0
 525.04608 10 630.6355 53.73584 708.44983 131.55017 c 0
 786.26418 209.3645 830 314.95392 830 425 c 0
 830 535.04608 786.26418 640.6355 708.44983 718.44984 c 0
 630.6355 796.26416 525.04608 840 415 840 c 0
415 742.35335 m 0
 499.18598 742.35335 579.87385 708.93081 639.40233 649.40233 c 0
 698.93081 589.87385 732.35334 509.18598 732.35334 425 c 0
 732.35334 340.81402 698.93081 260.12615 639.40233 200.59767 c 0
 579.87385 141.06919 499.18598 107.64665 415 107.64665 c 0
 330.81402 107.64665 250.12615 141.06919 190.59767 200.59767 c 0
 131.06919 260.12615 97.646648 340.81402 97.646648 425 c 0
 97.646648 509.18598 131.06919 589.87385 190.59767 649.40233 c 0
 250.12615 708.93081 330.81402 742.35335 415 742.35335 c 0
EndSplineSet
Validated: 9
Ligature2: "'liga' Standard Ligatures in Latin lookup 0 subtable" i j o
EndChar

StartChar: ike
Encoding: 15 57357 15
Width: 850
Flags: W
LayerCount: 2
Fore
SplineSet
415.00001 474.53714 m 0
 304.95516 474.53714 199.36758 430.80171 121.55408 352.98826 c 0
 43.740588 275.17481 0.00520623 169.58722 0.00520623 59.54234 c 0
 0.00233217852 59.3455509123 -3.84999999881e-07 59.0261081144 -3.84999999881e-07 58.8292980405 c 0
 -3.84999999881e-07 31.8763082805 21.874889855 10.0014180405 48.827879615 10.0014180405 c 0
 75.780869375 10.0014180405 97.655759615 31.8763082805 97.655759615 58.8292980405 c 0
 97.655759615 59.0261081144 97.6534270515 59.3455509123 97.650553 59.54234 c 0
 97.650553 143.72741 131.07244 224.4143 190.60026 283.94208 c 0
 250.12809 343.46987 330.81491 376.8918 415.00001 376.8918 c 0
 499.1851 376.8918 579.87193 343.46987 639.39977 283.94208 c 0
 698.92755 224.4143 732.34944 143.72741 732.34944 59.54234 c 0
 732.3465696 59.3456759422 732.34424 59.026436124 732.34424 58.8297511199 c 0
 732.34424 31.8767613599 754.21913024 10.0018711199 781.17212 10.0018711199 c 0
 808.12510976 10.0018711199 830 31.8767613599 830 58.8297511199 c 0
 830 59.026436124 829.9976704 59.3456759422 829.9948 59.54234 c 0
 829.9948 169.58722 786.25941 275.17481 708.4459 352.98826 c 0
 630.63245 430.80171 525.04485 474.53714 415.00001 474.53714 c 0
EndSplineSet
Validated: 9
Ligature2: "'liga' Standard Ligatures in Latin lookup 0 subtable" i k e
EndChar

StartChar: ilo
Encoding: 16 57358 16
Width: 850
Flags: W
LayerCount: 2
Fore
SplineSet
413.59071 839.99736 m 0
 411.618571132 839.950781648 408.440042492 839.642163408 406.49578 839.30848 c 2
 48.744635 839.30848 l 2
 21.8400120413 839.306061679 0.00241556125871 817.468462959 0 790.56384 c 2
 0 424.98324 l 2
 0.00241556125383 398.078617041 21.8400120413 376.241018321 48.744635 376.2386 c 2
 365.58061 376.2386 l 1
 365.58061 59.40263 l 2
 365.578191136 59.2222393939 365.576228 58.9294182924 365.576228 58.7490114698 c 0
 365.576228 31.8395540858 387.415787616 9.99999446977 414.325245 9.99999446977 c 0
 441.234702384 9.99999446977 463.074262 31.8395540858 463.074262 58.7490114698 c 0
 463.074262 58.9294182924 463.072298864 59.2222393939 463.06988 59.40263 c 2
 463.06988 376.2386 l 1
 779.90586 376.2386 l 2
 806.81047468 376.241026599 828.64806444 398.078625319 828.65048 424.98324 c 2
 828.65048 790.56384 l 2
 828.64806444 817.468454681 806.81047468 839.306053401 779.90586 839.30848 c 2
 422.28058 839.30848 l 2
 420.038494365 839.690202434 416.372982797 840.000006149 414.098634536 840.000006149 c 0
 413.958443559 840.000006149 413.730893367 839.998820674 413.59071 839.99736 c 0
97.487882 741.82059 m 1
 365.58061 741.82059 l 1
 365.58061 473.72787 l 1
 97.487882 473.72787 l 1
 97.487882 741.82059 l 1
463.06988 741.82059 m 1
 731.16258 741.82059 l 1
 731.16258 473.72787 l 1
 463.06988 473.72787 l 1
 463.06988 741.82059 l 1
EndSplineSet
Validated: 9
Ligature2: "'liga' Standard Ligatures in Latin lookup 0 subtable" i l o
EndChar

StartChar: insa
Encoding: 17 57359 17
Width: 850
Flags: W
LayerCount: 2
Fore
SplineSet
414.64618 375.86022 m 0
 421.95928 375.86022 426.84111 370.9784 426.84111 363.66529 c 0
 426.84111 356.35219 421.95928 351.47037 414.64618 351.47037 c 0
 407.33308 351.47037 402.45125 356.35219 402.45125 363.66529 c 0
 402.45125 370.9784 407.33308 375.86022 414.64618 375.86022 c 0
414.64618 473.42377 m 0
 354.60621 473.42377 304.88769 423.70526 304.8877 363.66529 c 0
 304.8877 303.62533 354.60622 253.90681 414.64618 253.90681 c 0
 474.68614 253.90681 524.40466 303.62533 524.40466 363.66529 c 0
 524.40467 423.70526 474.68615 473.42377 414.64618 473.42377 c 0
48.050864 839.9734 m 0
 21.5267870781 839.573520023 1.10049150521e-08 817.719746421 1.10049072077e-08 791.192655353 c 0
 1.10049072077e-08 791.002273361 0.00218456159471 790.693262963 0.00487624 790.5029 c 2
 0.00487624 58.78109 l 2
 0.00774477170203 31.8567975361 21.8616725362 10.0028692161 48.785965 10 c 2
 780.5064 10 l 2
 807.430704186 10.0028574954 829.284641466 31.8567858154 829.28751 58.78109 c 2
 829.28751 790.5029 l 2
 829.290368256 790.699064049 829.292688 791.017492159 829.292688 791.21367703 c 0
 829.292688 818.143708006 807.436430976 839.99996503 780.5064 839.99996503 c 0
 753.576369024 839.99996503 731.720112 818.143708006 731.720112 791.21367703 c 0
 731.720112 791.017492159 731.722431744 790.699064049 731.72529 790.5029 c 2
 731.72529 107.56217 l 1
 97.567046 107.56217 l 1
 97.567046 790.5029 l 2
 97.5697376015 790.693260244 97.5719220897 791.002266227 97.5719220897 791.192645499 c 0
 97.5719220897 818.122676475 75.7156650657 839.978933499 48.7856340897 839.978933499 c 0
 48.5828260433 839.978933499 48.2536490432 839.976454491 48.050864 839.9734 c 0
EndSplineSet
Validated: 41
Ligature2: "'liga' Standard Ligatures in Latin lookup 0 subtable" i n s a
EndChar

StartChar: jaki
Encoding: 18 57360 18
Width: 850
Flags: W
LayerCount: 2
Fore
SplineSet
413.56151 839.97875 m 0
 400.58866762 839.595741421 383.7375553 830.860126701 375.94742 820.47961 c 2
 271.69428 681.47636 l 1
 56.84764 717.28367 l 2
 54.6537886584 717.648173694 51.0683462151 717.944002778 48.8444202604 717.944002778 c 0
 21.8904832684 717.944002778 0.0148242604387 696.06834377 0.0148242604387 669.114406778 c 0
 0.0148242604387 654.697620956 9.74710267176 636.50194112 21.73866 628.49905 c 2
 161.8864 535.06723 l 1
 9.7617858 332.23349 l 2
 4.37327940815 325.046703066 -1.14175778521e-06 311.923776359 -1.14175778521e-06 302.941242887 c 0
 -1.14175778913e-06 280.111504203 18.2758990817 258.534057789 40.794419 254.7773 c 2
 366.18191 200.54605 l 1
 366.18191 58.81461 l 2
 366.190180571 31.8689461183 388.065838549 10.0000015186 415.0115037 10.0000015186 c 0
 428.483137457 10.0000015186 445.979507 18.7447233983 454.0659 29.51947 c 2
 558.31904 168.52273 l 1
 773.16568 132.71542 l 2
 775.360268484 132.350666157 778.946932635 132.054634053 781.171626767 132.054634053 c 0
 808.125563759 132.054634053 830.001222767 153.930293061 830.001222767 180.884230053 c 0
 830.001222767 195.302188156 820.267713687 213.498689253 808.27464 221.50142 c 2
 668.12692 314.93324 l 1
 820.25151 517.76698 l 2
 825.639510182 524.953560554 830.012379894 538.075939298 830.012379894 547.058003983 c 0
 830.012379894 569.887290833 811.736900902 591.464666969 789.2189 595.22179 c 2
 463.83141 649.45304 l 1
 463.83141 791.18587 l 2
 463.822873643 818.13126793 441.947215733 839.999996685 415.00181645 839.999996685 c 0
 414.604205366 839.999996685 413.958948076 839.99047817 413.56151 839.97875 c 0
314.19528 575.39566 m 1
 366.18191 566.73168 l 1
 366.18191 516.229 l 1
 301.94129 559.057 l 1
 314.19528 575.39566 l 1
463.83141 550.45676 m 1
 693.94289 512.10416 l 1
 586.75234 369.18251 l 1
 463.83141 451.13072 l 1
 463.83141 550.45676 l 1
243.26098 480.81658 m 1
 366.18191 398.86975 l 1
 366.18191 299.54232 l 1
 136.07043 337.89493 l 1
 243.26098 480.81658 l 1
463.83141 333.77009 m 1
 528.07203 290.94347 l 1
 515.81665 274.60343 l 1
 463.83141 283.2674 l 1
 463.83141 333.77009 l 1
EndSplineSet
Validated: 9
Ligature2: "'liga' Standard Ligatures in Latin lookup 0 subtable" j a k i
EndChar

StartChar: jan
Encoding: 19 57361 19
Width: 850
Flags: W
LayerCount: 2
Fore
SplineSet
415.1505 839.99999 m 2
 220.30212 839.99999 61.299537 680.99702 61.299537 486.14809 c 0
 61.299537 390.76182 99.77397 304.29627 161.53502 240.53935 c 1
 161.389185694 240.402348102 161.154133534 240.178222662 161.01035 240.03907 c 2
 14.589265 93.61759 l 2
 6.53587022964 85.6991041194 -0.000218279641715 70.1061649821 -0.000218279641715 58.8119222829 c 0
 -0.000218279641715 31.8676745469 21.8675209844 9.99987928295 48.8116997204 9.99987928295 c 0
 60.1004065826 9.99987928295 75.6879740039 16.5305637642 83.605377 24.5773 c 2
 230.02658 170.99879 l 2
 232.710534876 173.61576109 236.404617436 178.37753965 238.2723 181.62776 c 1
 290.54488 151.09571 350.4753 132.29629 415.15014 132.29629 c 0
 479.82242 132.29629 539.75686 151.09791 592.02797 181.62776 c 1
 593.895655135 178.377539119 597.589742175 173.615760559 600.2737 170.99879 c 2
 746.69474 24.5773 l 2
 754.611773444 16.5328815102 770.197489806 10.0040780982 781.484285452 10.0040780982 c 0
 808.428464188 10.0040780982 830.296203452 31.8718733622 830.296203452 58.8161210982 c 0
 830.296203452 70.1084206282 823.762027826 85.6994786962 815.71099 93.61759 c 2
 669.28981 240.03907 l 2
 669.146023716 240.178222693 668.910967076 240.402348133 668.76513 240.53935 c 1
 730.52624 304.29627 769.00084 390.76182 769.00084 486.14809 c 0
 769.00084 680.99702 609.99828 839.99999 415.14977 839.99999 c 2
 415.1505 839.99999 l 2
415.1505 742.3857 m 0
 557.24446 742.3857 671.38741 628.24234 671.38741 486.14809 c 0
 671.38741 344.05385 557.24446 229.9105 415.1505 229.9105 c 0
 273.05667 229.9105 158.91359 344.05385 158.91359 486.14809 c 0
 158.91359 628.24234 273.05667 742.3857 415.1505 742.3857 c 0
EndSplineSet
Validated: 5
Ligature2: "'liga' Standard Ligatures in Latin lookup 0 subtable" j a n
EndChar

StartChar: jelo
Encoding: 20 57362 20
Width: 850
Flags: W
LayerCount: 2
Fore
SplineSet
414.26428 840.70491 m 0
 387.716816806 840.304688622 366.171049577 818.431655758 366.171049577 791.881175928 c 0
 366.171049577 791.69062817 366.173236006 791.381348714 366.17593 791.19082 c 2
 366.17593 771.76123 l 1
 311.37816 755.23176 267.86853 711.7215 251.33862 656.92391 c 1
 170.87823 656.92391 l 2
 170.695134377 656.926397864 170.397921968 656.928417 170.214809443 656.928417 c 0
 143.261045779 656.928417 121.385527443 635.052898664 121.385527443 608.099135 c 0
 121.385527443 581.145371336 143.261045779 559.269853 170.214809443 559.269853 c 0
 170.397921968 559.269853 170.695134377 559.271872136 170.87823 559.27436 c 2
 251.33862 559.27436 l 1
 267.80676 504.68157 311.04911 461.28154 365.55798 444.61301 c 1
 14.292847 93.34788 l 2
 6.40319319734 85.4541506388 -4.09178306563e-06 69.9898180024 -4.09178306171e-06 58.8292803651 c 0
 -4.09178306563e-06 31.8824908201 21.8698533573 10.0069732166 48.816642 10 c 2
 781.18337 10 l 2
 808.130150365 10.0069814902 830.000001096 31.882499092 830.000001096 58.8292803612 c 0
 830.000001096 69.9898180002 823.596803805 85.4541506384 815.70715 93.34788 c 2
 464.44205 444.61301 l 1
 518.95091 461.28154 562.19327 504.68157 578.66141 559.27436 c 1
 659.1218 559.27436 l 2
 659.304895623 559.271872136 659.602108032 559.269853 659.785220557 559.269853 c 0
 686.738984221 559.269853 708.614502557 581.145371336 708.614502557 608.099135 c 0
 708.614502557 635.052898664 686.738984221 656.928417 659.785220557 656.928417 c 0
 659.602108032 656.928417 659.304895623 656.926397864 659.1218 656.92391 c 2
 578.66141 656.92391 l 1
 562.1315 711.7215 518.62186 755.23176 463.82409 771.76123 c 1
 463.82409 791.19082 l 2
 463.826783918 791.381346039 463.828970286 791.690621152 463.828970286 791.881166234 c 0
 463.828970286 818.834929898 441.95345195 840.710448234 414.999688286 840.710448234 c 0
 414.796704088 840.710448234 414.467241176 840.707967105 414.26428 840.70491 c 0
409.14883 681.04776 m 0
 410.797008056 680.843883031 413.482506615 680.678417665 415.143246427 680.678417665 c 0
 416.781265392 680.678417665 419.430295473 680.839403031 421.05626 681.03776 c 0
 457.20905 678.19031 485.19593 650.13367 487.94932 613.95071 c 0
 487.745208008 612.301593114 487.579551899 609.614553001 487.579551899 607.952852604 c 0
 487.579551899 606.313859938 487.740728008 603.663266771 487.93932 602.03635 c 0
 485.08958 565.88758 457.03558 537.9039 420.85644 535.14883 c 0
 419.206759548 535.35308314 416.518794051 535.518853805 414.856517017 535.518853805 c 0
 413.216939846 535.518853805 410.565408383 535.35756314 408.93792 535.15883 c 0
 372.78732 538.00872 344.80306 566.06547 342.0504 602.24726 c 0
 342.254276969 603.895438056 342.419742335 606.580936615 342.419742335 608.241676427 c 0
 342.419742335 609.879695392 342.258756969 612.528725473 342.0604 614.15469 c 0
 344.90788 650.30792 372.96521 678.29493 409.14883 681.04776 c 0
415.00001 355.95985 m 1
 663.31171 107.64816 l 1
 166.68832 107.64816 l 1
 415.00001 355.95985 l 1
EndSplineSet
Validated: 9
Ligature2: "'liga' Standard Ligatures in Latin lookup 0 subtable" j e l o
EndChar

StartChar: jo
Encoding: 21 57363 21
Width: 850
Flags: W
LayerCount: 2
Fore
SplineSet
412.56991 844.81042 m 0
 318.23195 844.81042 240.70343 767.2805 240.70343 672.94254 c 0
 240.70343 639.3491 250.5727 607.91452 267.49305 581.32577 c 1
 216.48382 568.1434 169.08343 547.83056 128.0623 520.5181 c 0
 49.986763 468.53426 0 392.08916 0 308.18106 c 0
 0 224.27296 49.712516 147.46407 127.52055 94.14949 c 0
 205.32858 40.83491 306.2434 11.97215 411.66792 10.03547 c 0
 411.783783241 10.0333186805 411.971862601 10.0306306805 412.08774 10.02947 c 0
 519.44255 8.97502 622.67104 35.92288 702.12509 88.89225 c 0
 781.57911 141.86161 831.80257 220.29573 829.95047 305.71986 c 0
 829.373345549 332.236476406 807.379126029 353.758934006 780.85623 353.76106 c 2
 412.56991 353.76106 l 2
 412.372887603 353.763924328 412.053066236 353.766249 411.85602302 353.766249 c 0
 384.747411212 353.766249 362.74621902 331.765056808 362.74621902 304.656445 c 0
 362.74621902 277.547833192 384.747411212 255.546641 411.85602302 255.546641 c 0
 412.053066236 255.546641 412.372887603 255.548965672 412.56991 255.55183 c 2
 722.70463 255.55183 l 1
 710.62252 225.52997 686.19478 196.30619 647.648 170.60834 c 0
 588.69614 131.3071 503.01904 107.38848 413.23636 108.23639 c 0
 325.0883 109.89826 241.22807 135.28952 183.03265 175.16541 c 0
 124.78521 215.07694 98.209222 262.95039 98.209222 308.18106 c 0
 98.209222 353.41173 124.51096 400.16672 182.49089 438.77061 c 0
 240.47083 477.3745 324.28989 501.16619 412.52004 501.07605 c 0
 412.525780859 501.076324783 412.535099259 501.076772783 412.54084 501.07705 c 0
 412.55084 501.07705 412.56024 501.07605 412.56994 501.07605 c 0
 506.9079 501.07605 584.43643 578.60459 584.43643 672.94254 c 0
 584.43643 767.2805 506.9079 844.81042 412.56991 844.81042 c 0
412.56991 746.60119 m 0
 453.83136 746.60119 486.22718 714.20399 486.22718 672.94254 c 0
 486.22718 631.68109 453.83136 599.28528 412.56991 599.28528 c 0
 371.30846 599.28528 338.91265 631.68109 338.91265 672.94254 c 0
 338.91265 714.20399 371.30846 746.60119 412.56991 746.60119 c 0
EndSplineSet
Validated: 41
Ligature2: "'liga' Standard Ligatures in Latin lookup 0 subtable" j o
EndChar

StartChar: kalama
Encoding: 22 57364 22
Width: 850
Flags: W
LayerCount: 2
Fore
SplineSet
414.26578 840.0636 m 0
 387.738190238 839.664280544 366.20855217 817.808118032 366.20855217 791.277522964 c 0
 366.20855217 791.086904238 366.210741918 790.77750963 366.21344 790.58691 c 2
 366.21344 607.6372 l 2
 366.210721952 607.445896561 366.208516 607.135359367 366.208516 606.944036621 c 0
 366.208516 580.011071213 388.067154592 558.152432621 415.00012 558.152432621 c 0
 441.933085408 558.152432621 463.791724 580.011071213 463.791724 606.944036621 c 0
 463.791724 607.135359367 463.789518048 607.445896561 463.7868 607.6372 c 2
 463.7868 790.58691 l 2
 463.789498074 790.77750933 463.791687815 791.08690345 463.791687815 791.277521875 c 0
 463.791687815 818.210487283 441.933049223 840.069125875 415.000083815 840.069125875 c 0
 414.797404485 840.069125875 414.468436376 840.066650283 414.26578 840.0636 c 0
49.8295 779.00231 m 0
 49.5430732682 779.008404251 49.0780961057 779.01335031 48.7916045481 779.01335031 c 0
 21.8586391401 779.01335031 5.48094533315e-07 757.154711718 5.48094533315e-07 730.22174631 c 0
 5.48094529393e-07 723.662272358 2.44792140335 713.611196891 5.4641096 707.78631 c 2
 66.44643 585.81891 l 2
 73.7988608686 570.605234345 93.4796918559 558.257903378 110.376856311 558.257903378 c 0
 137.309821719 558.257903378 159.168460311 580.11654197 159.168460311 607.049507378 c 0
 159.168460311 613.599286429 156.727366412 623.637166644 153.71959 629.45549 c 2
 92.735898 751.42151 l 2
 85.5609954385 766.294494179 66.3389291345 778.650692579 49.8295 779.00231 c 0
783.57921 778.95521 m 0
 782.92553032 778.986996679 781.863858173 779.012794564 781.2094061 779.012794564 c 0
 764.299306357 779.012794564 744.611925705 766.651899079 737.26436 751.42151 c 2
 676.28065 629.45549 l 2
 673.273043167 623.637299126 670.832086896 613.599685149 670.832086896 607.050101657 c 0
 670.832086896 580.117136249 692.690725488 558.258497657 719.623690896 558.258497657 c 0
 736.520601477 558.258497657 756.201303796 570.605562387 763.55383 585.81891 c 2
 824.53616 707.78631 l 2
 827.552203301 713.611083966 830.000006559 723.661932326 830.000006559 730.221239374 c 0
 830.000006559 755.875822653 809.203489701 777.708641493 783.57921 778.95521 c 0
49.099311 473.47417 m 2
 22.1717817198 473.47145192 0.315349662223 451.61501928 0.3126323 424.68749 c 0
 0.3126323 314.72436 44.015838 209.21455 121.77153 131.4589 c 0
 199.52722 53.70325 305.03702 10 415.00012 10 c 0
 524.96322 10 630.47302 53.70325 708.22871 131.4589 c 0
 785.98437 209.21455 829.68763 314.72436 829.68763 424.68749 c 0
 829.684912635 451.615031034 807.828471035 473.471463674 780.90093 473.47417 c 2
 49.099311 473.47417 l 2
101.70181 375.90081 m 1
 728.29843 375.90081 l 1
 718.0194 309.86277 687.09062 248.3107 639.23375 200.45386 c 0
 579.75015 140.9703 499.12268 107.57337 415.00012 107.57337 c 0
 330.87757 107.57337 250.2501 140.9703 190.76649 200.45386 c 0
 142.90962 248.3107 111.98082 309.86277 101.70181 375.90081 c 1
EndSplineSet
Validated: 9
Ligature2: "'liga' Standard Ligatures in Latin lookup 0 subtable" k a l a m a
EndChar

StartChar: kala
Encoding: 23 57365 23
Width: 850
Flags: W
LayerCount: 2
Fore
SplineSet
48.180141 597.14088 m 0
 21.584702259 596.792217787 -1.64670083791e-06 574.922686868 -1.64670083791e-06 548.324962771 c 0
 -1.64670083791e-06 545.454962965 0.490563615821 540.848657084 1.0950101 538.04303 c 0
 18.285053 452.38466 51.87598 373.24044 98.143051 303.57203 c 1
 51.876143 233.90375 18.285011 154.7592 1.0950101 69.10103 c 0
 0.490683552769 66.2956716675 0.000215630379486 61.6898176278 0.000215630379486 58.8201058043 c 0
 0.000215630379486 31.8714039803 21.8716258064 9.99999380434 48.8203276304 9.99999380434 c 0
 71.2183394945 9.99999380434 92.7208850041 27.87151402 96.817081 49.89178 c 0
 109.23891 111.79003 131.59955 169.69018 162.06677 222.02552 c 1
 271.76848 102.70723 424.42484 24.54187 594.20026 10.83867 c 0
 595.28147991 10.7514870198 597.039351624 10.6807298185 598.12408079 10.6807298185 c 0
 598.125242532 10.6807298185 598.127128258 10.6807298998 598.12829 10.68073 c 0
 666.26595 10.68073 726.34298 47.99094 766.62081 101.6947 c 0
 806.89863 155.39847 830 226.27915 830 303.57203 c 0
 830 380.86493 806.89863 451.7456 766.62081 505.44937 c 0
 726.34298 559.15314 666.26595 596.46334 598.12829 596.46334 c 0
 598.12716245 596.463340094 598.125332225 596.463340171 598.124204675 596.463340171 c 0
 597.03944115 596.463340171 595.281513935 596.392578494 594.20026 596.30539 c 0
 424.42484 582.6022 271.76848 504.43683 162.06677 385.11855 c 1
 131.59955 437.45389 109.23891 495.35543 96.817081 557.25368 c 0
 92.7207408151 579.273732008 71.21822761 597.145078566 48.8203997387 597.145078566 c 0
 48.6436807278 597.145078566 48.3568448129 597.143197608 48.180141 597.14088 c 0
599.91565 498.77379 m 0
 632.22502 498.15687 663.01115 480.8776 688.516 446.8711 c 0
 714.4918 412.23668 732.36999 361.07868 732.36999 303.57203 c 0
 732.36999 246.06538 714.4918 194.90739 688.516 160.27296 c 0
 663.01151 126.26696 632.2259 108.98766 599.91704 108.37028 c 0
 448.60199 121.16113 313.66352 193.66326 219.97303 303.57203 c 1
 313.66323 413.48046 448.60116 485.98261 599.91565 498.77379 c 0
EndSplineSet
Validated: 9
Ligature2: "'liga' Standard Ligatures in Latin lookup 0 subtable" k a l a
EndChar

StartChar: kama
Encoding: 24 57366 24
Width: 850
Flags: W
LayerCount: 2
Fore
SplineSet
352.39348 839.60568 m 0
 328.620231586 838.649467138 307.716950306 818.630734978 305.73437 794.92101 c 2
 249.52035 120.34727 l 1
 61.278003 167.4082 l 2
 57.8895493819 168.305424276 52.2946766504 169.033606298 48.7894477957 169.033606298 c 0
 21.8575698277 169.033606298 -0.000186204276488 147.175850266 -0.000186204276488 120.243972298 c 0
 -0.000186204276488 98.9139322823 16.8508935032 77.637309173 37.613831 72.75151 c 2
 281.53814 11.76974 l 2
 284.753155851 10.9663858859 290.051958132 10.314388344 293.365823663 10.314388344 c 0
 318.143869397 10.314388344 339.925914476 30.3544505259 341.98646 55.04667 c 2
 391.76172 652.35541 l 1
 708.82479 199.40658 l 1
 515.47662 102.7325 l 2
 500.247365325 95.385079513 487.887390516 75.6986971488 487.887390516 58.7896822228 c 0
 487.887390516 31.8578042548 509.745146548 10.0000482228 536.677024516 10.0000482228 c 0
 543.236064073 10.0000482228 553.286503009 12.447750779 559.11104 15.46367 c 2
 803.03535 137.42582 l 2
 817.919836239 144.870449816 829.999998983 164.419367133 829.999998983 181.061796153 c 0
 829.999998983 189.549651003 826.050229839 202.082228726 821.18355 209.0363 c 2
 394.31672 818.84567 l 2
 386.275031487 830.32695913 368.371966899 839.64510683 354.35452226 839.64510683 c 0
 353.813055817 839.64510683 352.934508885 839.62744361 352.39348 839.60568 c 0
EndSplineSet
Validated: 9
Ligature2: "'liga' Standard Ligatures in Latin lookup 0 subtable" k a m a
EndChar

StartChar: kasi
Encoding: 25 57367 25
Width: 850
Flags: W
LayerCount: 2
Fore
SplineSet
658.81667 840.04381 m 0
 628.51689 840.93509 597.86701 830.87831 571.00603 812.69776 c 0
 509.60949 771.14221 461.66799 691.40123 425.4512 568.83665 c 0
 414.75741 532.64675 405.24861 492.47554 397.10424 448.31136 c 1
 359.9596 531.52157 309.92675 585.90053 253.7469 614.41905 c 0
 194.38889 644.55089 126.55363 640.46146 77.452259 604.45827 c 0
 28.350878 568.45509 0 505.02418 0 430.67146 c 0
 0 374.90692 42.282605 335.71766 84.737481 315.50568 c 0
 127.19235 295.29371 176.49585 286.16306 224.76811 283.58365 c 0
 266.83092 281.33604 307.34459 283.87815 342.89874 293.64852 c 1
 357.20163 230.29617 366.17598 152.70476 366.17598 58.90838 c 0
 366.532706486 31.910904895 388.405867446 9.99991060696 415 9.99991060696 c 0
 441.594132554 9.99991060696 463.467293514 31.910904895 463.82402 58.90838 c 0
 463.82402 203.66963 474.30477 323.0353 491.16647 419.16473 c 1
 526.13937 407.64774 566.00028 405.16364 608.3757 407.5103 c 0
 655.26103 410.1067 703.8073 419.28107 745.8375 439.51955 c 0
 787.8677 459.75804 830 498.82796 830 554.5925 c 0
 830 655.7948 806.85095 736.55713 760.25141 789.12444 c 0
 736.95161 815.40809 706.18618 834.32416 671.76878 838.98318 c 0
 667.4666 839.56556 663.14519 839.91651 658.81667 840.04381 c 0
652.13553 740.9945 m 0
 654.51472 741.12832 656.7403 741.0035 658.86377 740.71598 c 0
 667.35766 739.56618 676.64147 735.24631 687.67074 722.80458 c 0
 709.72924 697.92114 732.35335 639.27197 732.35335 554.5925 c 0
 732.35335 548.39643 728.71327 540.99697 703.99252 529.0934 c 0
 679.27182 517.18983 640.08808 508.55118 603.05796 506.50055 c 0
 572.3 504.79724 542.29049 508.19304 524.92123 512.58307 c 0
 525.080833506 514.065427693 525.210366786 516.47873993 525.210366786 517.969927671 c 0
 525.210366786 524.886705216 522.583031906 535.439709139 519.34578 541.52574 c 1
 551.74926 650.54289 595.13456 709.88077 625.17134 730.21081 c 0
 636.47668 737.86271 644.99796 740.59306 652.13553 740.9945 c 0
172.33749 536.48978 m 0
 183.53618 536.21623 195.9957 532.89643 210.07712 525.74829 c 0
 242.80101 509.1367 282.57561 466.1922 313.79387 388.66064 c 1
 292.80641 383.8316 261.53076 380.89357 229.90019 382.58374 c 0
 191.20555 384.65137 151.25343 393.33373 126.19452 405.26382 c 0
 101.13562 417.1939 97.646648 424.4754 97.646648 430.67146 c 0
 97.646648 480.23993 115.0675 509.75001 134.62421 524.0898 c 0
 145.62486 532.15594 157.93921 536.84151 172.33749 536.48978 c 0
EndSplineSet
Validated: 41
Ligature2: "'liga' Standard Ligatures in Latin lookup 0 subtable" k a s i
EndChar

StartChar: ken
Encoding: 26 57368 26
Width: 850
Flags: W
LayerCount: 2
Fore
SplineSet
48.077475 839.99446 m 0
 21.5390186051 839.594674334 0.000561241197748 817.759689072 0.000561241197744 791.255653611 c 0
 0.000561241197744 791.065065053 0.00275551330115 790.755719435 0.00545917 790.56515 c 2
 0.00545917 59.47336 l 2
 0.00244547908 59.2721622684 -4.14999998441e-07 58.9455621776 -4.15000002363e-07 58.7443419403 c 0
 -4.15000002363e-07 31.8374596363 21.868317665 9.99998994027 48.813209585 9.99998994027 c 0
 75.758101505 9.99998994027 97.626419585 31.8374596363 97.626419585 58.7443419403 c 0
 97.626419585 58.9455621776 97.6239736909 59.2721622684 97.62096 59.47336 c 2
 97.62096 374.66984 l 1
 264.10684 366.62271 421.55593 329.23397 537.98253 271.10278 c 0
 665.88574 207.2414 728.5072 127.01764 732.19654 56.91508 c 0
 733.197565455 31.0471852066 755.049574012 10.0529517511 780.973344814 10.0529517511 c 0
 807.918236734 10.0529517511 829.786554814 31.8904214471 829.786554814 58.7973037511 c 0
 829.786554814 59.6909680469 829.738361298 61.1399551664 829.67898 62.03165 c 0
 823.33149 182.64345 727.26006 285.58279 581.63877 358.29072 c 0
 532.69344 382.72886 478.7213 403.40315 421.25739 420.30393 c 1
 484.09008 437.21326 542.71363 458.77756 595.19094 484.97919 c 0
 742.71342 558.63638 836.19155 668.29651 829.6804 793.1013 c 0
 828.68274324 818.97283139 806.830620669 839.970016286 780.903340691 839.970016286 c 0
 753.958448771 839.970016286 732.090130691 818.13254659 732.090130691 791.225664286 c 0
 732.090130691 790.342816391 732.137165902 788.911329031 732.19512 788.03038 c 0
 735.97988 715.48581 679.74115 636.17991 551.5347 572.16712 c 0
 434.15873 513.56193 270.88688 477.75212 97.62096 474.05148 c 1
 97.62096 790.56515 l 2
 97.6236635243 790.755714768 97.6258576889 791.065052809 97.6258576889 791.255636699 c 0
 97.6258576889 818.162519003 75.7575396089 839.999988699 48.8126476889 839.999988699 c 0
 48.609728519 839.999988699 48.2803711543 839.997511842 48.077475 839.99446 c 0
EndSplineSet
Validated: 41
Ligature2: "'liga' Standard Ligatures in Latin lookup 0 subtable" k e n
EndChar

StartChar: kepeken
Encoding: 27 57369 27
Width: 850
Flags: W
LayerCount: 2
Fore
SplineSet
414.04103 839.99728 m 0
 412.069184611 839.950740228 408.891121891 839.642238468 406.94714 839.30866 c 2
 110.14401 839.30866 l 2
 83.2419934105 839.30542939 61.4064680345 817.46928667 61.403998 790.56727 c 2
 61.403998 546.86302 l 2
 61.4064625162 519.960997811 83.2419878922 498.124850611 110.14401 498.12162 c 2
 366.03534 498.12162 l 1
 366.03534 462.28777 l 1
 303.49904 446.47609 247.43951 403.11774 205.82841 342.38993 c 0
 171.069 291.66157 146.85657 231.00667 133.73535 165.7188 c 1
 83.683245 215.77091 l 2
 75.7598469044 223.914430157 60.1078541102 230.523663907 48.7457610844 230.523663907 c 0
 21.8380430524 230.523663907 -0.000104915620966 208.685515939 -0.000104915620966 181.777797907 c 0
 -0.00010491562097 170.415385896 6.60944378258 154.763086674 14.753352 146.83963 c 2
 136.60617 24.9882 l 2
 144.486505819 17.111492282 159.924852388 10.7188019601 171.066765019 10.7188019601 c 0
 197.478620176 10.7188019601 219.312991048 32.150803002 219.8042 58.55809 c 0
 221.41309 146.13871 246.62855 229.47319 286.24431 287.28897 c 0
 325.86006 345.10475 373.37832 371.4832 418.27381 371.4832 c 0
 463.1693 371.4832 509.57884 345.37681 547.89665 287.82655 c 0
 586.21447 230.27629 609.82905 147.07933 609.73958 59.50302 c 0
 609.73633462 59.2940822355 609.733700688 58.9549164238 609.733700688 58.745953456 c 0
 609.733700688 31.838235424 631.571848656 10.000087456 658.479566688 10.000087456 c 0
 685.38728472 10.000087456 707.225432688 31.838235424 707.225432688 58.745953456 c 0
 707.225432688 58.9273948718 707.223446844 59.2218950835 707.221 59.40332 c 0
 707.32791 164.05083 680.63717 264.35541 629.03857 341.85235 c 0
 586.96235 405.04745 528.7349 449.6789 463.51676 464.00859 c 1
 463.51676 498.12162 l 1
 719.40671 498.12162 l 2
 746.309492614 498.124090186 768.145635334 519.960237386 768.1481 546.86302 c 2
 768.1481 790.56727 l 2
 768.145629815 817.470047095 746.309487095 839.306189815 719.40671 839.30866 c 2
 422.72965 839.30866 l 2
 420.488042066 839.690241951 416.823319533 839.99993165 414.549465774 839.99993165 c 0
 414.409133684 839.99993165 414.181354457 839.998743711 414.04103 839.99728 c 0
158.88542 741.82725 m 1
 366.03534 741.82725 l 1
 366.03534 595.60304 l 1
 158.88542 595.60304 l 1
 158.88542 741.82725 l 1
463.51676 741.82725 m 1
 670.6653 741.82725 l 1
 670.6653 595.60304 l 1
 463.51676 595.60304 l 1
 463.51676 741.82725 l 1
EndSplineSet
Validated: 41
Ligature2: "'liga' Standard Ligatures in Latin lookup 0 subtable" k e p e k e n
EndChar

StartChar: kili
Encoding: 28 57370 28
Width: 850
Flags: W
LayerCount: 2
Fore
SplineSet
414.26427 840.69001 m 0
 387.717595091 840.289500585 366.172467628 818.416870122 366.172467628 791.867174144 c 0
 366.172467628 791.676395003 366.174659411 791.366740026 366.17736 791.17598 c 2
 366.17736 735.7512 l 1
 328.20917 762.90006 281.852 778.97067 231.91201 778.97067 c 0
 104.40898 778.97067 0 674.56179 0 547.05866 c 2
 0 425 l 2
 0 314.95392 43.735814 209.36447 121.55017 131.55017 c 0
 199.36451 53.73586 304.95395 10 415 10 c 0
 525.04605 10 630.63549 53.73586 708.44983 131.55017 c 0
 786.26418 209.36447 830 314.95392 830 425 c 2
 830 547.05866 l 2
 830 674.56169 725.59089 778.97067 598.08799 778.97067 c 0
 548.14826 778.97067 501.79209 762.89982 463.82402 735.7512 c 1
 463.82402 791.17598 l 2
 463.826720549 791.366738614 463.828912299 791.676391297 463.828912299 791.867169026 c 0
 463.828912299 818.82044141 441.953792683 840.695561026 415.000520299 840.695561026 c 0
 414.797303665 840.695561026 414.467463531 840.693074166 414.26427 840.69001 c 0
231.91201 681.32402 m 0
 306.64277 681.32402 366.17736 621.78946 366.17736 547.05866 c 0
 366.166948305 546.68418259 366.158498233 546.076217752 366.158498233 545.70159563 c 0
 366.158498233 518.748323246 388.033617849 496.87320363 414.986890233 496.87320363 c 0
 441.940162617 496.87320363 463.815282233 518.748323246 463.815282233 545.70159563 c 0
 463.815282233 545.896805315 463.812987473 546.213650793 463.81016 546.40884 c 0
 463.815162514 546.58816497 463.821344914 546.87928433 463.82396 547.05866 c 0
 463.82396 621.78936 523.35728 681.32263 598.08793 681.32263 c 0
 672.81859 681.32263 732.3533 621.78936 732.3533 547.05866 c 2
 732.3533 425 l 2
 732.3533 340.814 698.93074 260.12612 639.40226 200.59767 c 0
 579.87381 141.06923 499.18599 107.64665 414.99996 107.64665 c 0
 330.81393 107.64665 250.12611 141.06923 190.59763 200.59767 c 0
 131.06919 260.12612 97.646648 340.814 97.646648 425 c 2
 97.646648 547.05866 l 2
 97.646648 621.78946 157.18125 681.32402 231.91201 681.32402 c 0
EndSplineSet
Validated: 9
Ligature2: "'liga' Standard Ligatures in Latin lookup 0 subtable" k i l i
EndChar

StartChar: kiwen
Encoding: 29 57371 29
Width: 850
Flags: W
LayerCount: 2
Fore
SplineSet
415.3381 838.66495 m 0
 415.244684309 838.665598588 415.093051214 838.666124979 414.999633272 838.666124979 c 0
 398.37202914 838.666124979 378.839617434 826.597177468 371.4005 811.72651 c 2
 202.07812 473.08175 l 1
 49.409875 473.08175 l 2
 49.2277818904 473.08421468 48.9321969294 473.086215 48.7500871405 473.086215 c 0
 21.8399353405 473.086215 -0.000187859485735 451.2460918 -0.000187859485735 424.33594 c 0
 -0.000187859485735 397.4257882 21.8399353405 375.585665 48.7500871405 375.585665 c 0
 48.9321969294 375.585665 49.2277818904 375.58766532 49.409875 375.59013 c 2
 153.33231 375.59013 l 1
 5.8103691 80.54487 l 2
 2.97137285971 74.8645361129 0.66725996904 65.1005572833 0.66725996904 58.7502743982 c 0
 0.66725996904 31.844350569 22.5039515029 10.0042276386 49.409875 10 c 2
 780.59012 10 l 2
 807.49605128 10.0042198584 829.33274913 31.8443427898 829.33274913 58.7502744004 c 0
 829.33274913 65.1005572848 827.02863624 74.8645361134 824.18964 80.54487 c 2
 676.6677 375.59013 l 1
 780.59012 375.59013 l 2
 780.77221311 375.58766532 781.067798071 375.585665 781.249907859 375.585665 c 0
 808.160059659 375.585665 830.000182859 397.4257882 830.000182859 424.33594 c 0
 830.000182859 451.2460918 808.160059659 473.086215 781.249907859 473.086215 c 0
 781.067798071 473.086215 780.77221311 473.08421468 780.59012 473.08175 c 2
 627.92189 473.08175 l 1
 458.59951 811.72651 l 2
 451.217893131 826.482230454 431.836781451 838.550651574 415.3381 838.66495 c 0
415 680.928 m 1
 518.92243 473.08175 l 1
 311.07758 473.08175 l 1
 415 680.928 l 1
262.33176 375.59013 m 1
 567.66825 375.59013 l 1
 701.71888 107.49024 l 1
 128.28112 107.49024 l 1
 262.33176 375.59013 l 1
EndSplineSet
Validated: 9
Ligature2: "'liga' Standard Ligatures in Latin lookup 0 subtable" k i w e n
EndChar

StartChar: kon
Encoding: 30 57372 30
Width: 850
Flags: W
LayerCount: 2
Fore
SplineSet
244.19172 839.99506 m 0
 237.745981823 839.903593965 227.883862143 837.394614765 222.17806 834.39466 c 0
 143.03379 794.19887 100 703.43251 100 606.6527 c 0
 100 509.87289 143.2722 419.4223 223.13132 381.03065 c 0
 258.05959 364.23916 290.9666 309.76224 290.9666 243.34687 c 0
 290.9666 176.9315 257.82118 120.70344 222.17806 102.60102 c 0
 207.10081553 95.2095578833 194.864211322 75.5827446178 194.864211322 58.7911689609 c 0
 194.864211322 31.8584420169 216.722656378 9.99999696092 243.655383322 9.99999696092 c 0
 250.303890316 9.99999696092 260.475813947 12.5109980024 266.36057 15.60491 c 0
 345.50484 55.8007 388.53863 146.56706 388.53863 243.34687 c 0
 388.53863 340.12668 345.26643 430.57727 265.40731 468.96892 c 0
 230.47904 485.76042 197.57202 540.23733 197.57202 606.6527 c 0
 197.57202 673.06807 230.71744 729.29613 266.36057 747.39856 c 0
 281.438252523 754.789898114 293.675212252 774.416885666 293.675212252 791.208800072 c 0
 293.675212252 818.141527016 271.816767196 839.999972072 244.884040252 839.999972072 c 0
 244.692950244 839.999972072 244.382790771 839.997771464 244.19172 839.99506 c 0
610.08993 839.99506 m 0
 603.643782058 839.903778297 593.781035178 837.394799097 588.07487 834.39466 c 0
 508.93061 794.19887 465.89682 703.43251 465.89682 606.6527 c 0
 465.89682 509.87289 509.1704 419.4223 589.02952 381.03065 c 0
 623.95779 364.23916 656.86343 309.76224 656.86343 243.34687 c 0
 656.86343 176.9315 623.718 120.70344 588.07487 102.60102 c 0
 573.009253644 95.2062701377 560.782086746 75.5840862299 560.782086746 58.8015023488 c 0
 560.782086746 31.8687754048 582.640531802 10.0103303488 609.573258746 10.0103303488 c 0
 616.215261123 10.0103303488 626.378374645 12.5167020325 632.25878 15.60491 c 0
 711.40304 55.8007 754.43683 146.56706 754.43683 243.34687 c 0
 754.43683 340.12668 711.16325 430.57727 631.30413 468.96892 c 0
 596.37586 485.76042 563.47023 540.23733 563.47023 606.6527 c 0
 563.47023 673.06807 596.61566 729.29613 632.25878 747.39856 c 0
 647.336462523 754.789898114 659.573422252 774.416885666 659.573422252 791.208800072 c 0
 659.573422252 818.141527016 637.714977196 839.999972072 610.782250252 839.999972072 c 0
 610.591160244 839.999972072 610.281000771 839.997771464 610.08993 839.99506 c 0
EndSplineSet
Validated: 9
Ligature2: "'liga' Standard Ligatures in Latin lookup 0 subtable" k o n
EndChar

StartChar: ko
Encoding: 31 57373 31
Width: 850
Flags: W
LayerCount: 2
Fore
SplineSet
170.88268 840 m 0
 124.09346 840 83.449136 809.39918 66.183576 774.86806 c 0
 48.918015 740.33693 45.771648 703.70065 45.771648 669.11732 c 0
 45.771648 625.68431 52.357578 584.04817 57.262019 559.04228 c 1
 50.558045 549.59495 42.876672 537.53603 35.669605 523.1219 c 0
 17.500976 486.78465 0 433.13733 0 363.97067 c 0
 0 321.25008 18.07132 283.71863 42.907723 258.88223 c 0
 67.744118 234.04583 97.410297 220.02336 124.92814 210.85074 c 0
 151.97807 201.8341 178.20641 197.41982 197.96326 195.23144 c 1
 206.49031 175.84149 219.44194 149.71352 237.06071 123.28536 c 0
 271.74195 71.26351 329.55882 10 415 10 c 0
 500.44118 10 558.25805 71.26351 592.93929 123.28536 c 0
 610.55806 149.71352 623.50969 175.84149 632.03674 195.23144 c 1
 651.79359 197.41982 678.02193 201.8341 705.07186 210.85074 c 0
 732.58971 220.02336 762.2559 234.04583 787.09226 258.88223 c 0
 811.9287 283.71863 830 321.25008 830 363.97067 c 0
 830 433.13733 812.49906 486.78465 794.33043 523.1219 c 0
 787.12334 537.53603 779.44193 549.59495 772.73802 559.04228 c 1
 777.64239 584.04817 784.22834 625.68431 784.22834 669.11732 c 0
 784.22834 703.70065 781.082 740.33693 763.81644 774.86806 c 0
 746.55088 809.39918 705.90654 840 659.11732 840 c 0
 555.0842 840 457.18957 802.59618 415 784.03347 c 1
 372.81043 802.59618 274.9158 840 170.88268 840 c 0
170.88268 742.35335 m 0
 276.66699 742.35335 393.16511 686.47827 393.16511 686.47827 c 2
 398.855761505 683.633243951 408.637792225 681.324237302 415 681.324237302 c 0
 421.362207775 681.324237302 431.144238495 683.633243951 436.83489 686.47827 c 2
 436.83489 686.47827 553.333 742.35335 659.11732 742.35335 c 0
 673.35751 742.35335 670.85779 742.43925 676.47826 731.19828 c 0
 682.09873 719.95735 686.58031 695.5634 686.58031 669.11732 c 0
 686.58031 616.22516 672.78162 558.90096 672.78162 558.90096 c 2
 671.977141049 555.682460942 671.324230596 550.377867767 671.324230596 547.060350236 c 0
 671.324230596 535.896602871 677.730652729 520.429205645 685.62428 512.53491 c 2
 685.62428 512.53491 694.64616 504.14428 706.99224 479.45212 c 0
 719.3383 454.75996 732.35334 416.86282 732.35334 363.97067 c 0
 732.35334 345.66185 727.53877 337.421 718.04619 327.92835 c 0
 708.55351 318.4357 692.44772 309.57199 674.19349 303.48725 c 0
 637.68505 291.31777 598.08799 290.73465 598.08799 290.73465 c 2
 578.6645467 290.733138907 557.9142843 275.777348827 551.77044 257.35119 c 2
 551.77044 257.35119 538.04019 216.97294 511.69201 177.45067 c 0
 485.34383 137.9284 451.61764 107.64665 415 107.64665 c 0
 378.38236 107.64665 344.65617 137.9284 318.30799 177.45067 c 0
 291.95981 216.97294 278.22957 257.35119 278.22956 257.35119 c 0
 272.0857157 275.777348827 251.3354533 290.733138907 231.91201 290.73465 c 2
 231.91201 290.73465 192.31495 291.31777 155.80651 303.48725 c 0
 137.55228 309.57199 121.44649 318.4357 111.95384 327.92835 c 0
 102.4612 337.421 97.646648 345.66185 97.646648 363.97067 c 0
 97.646648 416.86282 110.66168 454.75996 123.00776 479.45212 c 0
 135.35384 504.14428 144.37572 512.53491 144.37572 512.53491 c 2
 152.269347271 520.429205645 158.675769404 535.896602871 158.675769404 547.060350236 c 0
 158.675769404 550.377867767 158.022858951 555.682460942 157.21838 558.90096 c 2
 157.21838 558.90096 143.41969 616.22516 143.41969 669.11732 c 0
 143.41969 695.5634 147.90127 719.95735 153.52174 731.19828 c 0
 159.14221 742.43922 156.64248 742.35335 170.88268 742.35335 c 0
EndSplineSet
Validated: 9
Ligature2: "'liga' Standard Ligatures in Latin lookup 0 subtable" k o
EndChar

StartChar: kule
Encoding: 32 57374 32
Width: 850
Flags: W
LayerCount: 2
Fore
SplineSet
415.3381 838.66495 m 0
 415.244684309 838.665598588 415.093051214 838.666124979 414.999633272 838.666124979 c 0
 398.37202914 838.666124979 378.839617434 826.597177468 371.4005 811.72651 c 2
 202.07812 473.08175 l 1
 49.409875 473.08175 l 2
 49.2277818904 473.08421468 48.9321969294 473.086215 48.7500871405 473.086215 c 0
 21.8399353405 473.086215 -0.000187859485735 451.2460918 -0.000187859485735 424.33594 c 0
 -0.000187859485735 397.4257882 21.8399353405 375.585665 48.7500871405 375.585665 c 0
 48.9321969294 375.585665 49.2277818904 375.58766532 49.409875 375.59013 c 2
 153.33231 375.59013 l 1
 5.8103691 80.54487 l 2
 2.97137285971 74.8645361129 0.66725996904 65.1005572833 0.66725996904 58.7502743982 c 0
 0.66725996904 31.844350569 22.5039515029 10.0042276386 49.409875 10 c 2
 780.59012 10 l 2
 807.49605128 10.0042198584 829.33274913 31.8443427898 829.33274913 58.7502744004 c 0
 829.33274913 65.1005572848 827.02863624 74.8645361134 824.18964 80.54487 c 2
 676.6677 375.59013 l 1
 780.59012 375.59013 l 2
 780.77221311 375.58766532 781.067798071 375.585665 781.249907859 375.585665 c 0
 808.160059659 375.585665 830.000182859 397.4257882 830.000182859 424.33594 c 0
 830.000182859 451.2460918 808.160059659 473.086215 781.249907859 473.086215 c 0
 781.067798071 473.086215 780.77221311 473.08421468 780.59012 473.08175 c 2
 627.92189 473.08175 l 1
 458.59951 811.72651 l 2
 451.217893131 826.482230454 431.836781451 838.550651574 415.3381 838.66495 c 0
415 680.928 m 1
 518.92243 473.08175 l 1
 311.07758 473.08175 l 1
 415 680.928 l 1
262.33176 375.59013 m 1
 567.66825 375.59013 l 1
 701.71888 107.49024 l 1
 128.28112 107.49024 l 1
 262.33176 375.59013 l 1
EndSplineSet
Validated: 9
Ligature2: "'liga' Standard Ligatures in Latin lookup 0 subtable" k u l e
EndChar

StartChar: kulupu
Encoding: 33 57375 33
Width: 850
Flags: W
LayerCount: 2
Fore
SplineSet
415 840 m 0
 307.72034 840 219.70531 751.98497 219.70531 644.70531 c 0
 219.70531 537.42565 307.72034 449.41201 415 449.41201 c 0
 522.27966 449.41201 610.29469 537.42565 610.29469 644.70531 c 0
 610.29469 751.98497 522.27966 840 415 840 c 0
415 742.35335 m 0
 469.50728 742.35335 512.64666 699.21259 512.64665 644.70531 c 0
 512.64665 590.19804 469.50728 547.05866 415 547.05866 c 0
 360.49272 547.05866 317.35335 590.19804 317.35335 644.70531 c 0
 317.35334 699.21259 360.49272 742.35335 415 742.35335 c 0
195.29469 400.58799 m 0
 88.015023 400.58799 0 312.57435 0 205.29469 c 0
 0 98.01502 88.015023 10 195.29469 10 c 0
 302.57435 10 390.58799 98.01503 390.58799 205.29469 c 0
 390.58799 312.57435 302.57435 400.58799 195.29469 400.58799 c 0
634.70531 400.58799 m 0
 527.42565 400.58799 439.41201 312.57435 439.41201 205.29469 c 0
 439.41201 98.01503 527.42565 10 634.70531 10 c 0
 741.98496 10 830 98.01503 830 205.29469 c 0
 830 312.57435 741.98496 400.58799 634.70531 400.58799 c 0
195.29469 302.94134 m 0
 249.80196 302.94134 292.94134 259.80196 292.94134 205.29469 c 0
 292.94134 150.78741 249.80196 107.64666 195.29469 107.64665 c 0
 140.78741 107.64665 97.646648 150.78741 97.646648 205.29469 c 0
 97.646648 259.80196 140.78741 302.94134 195.29469 302.94134 c 0
634.70531 302.94134 m 0
 689.21259 302.94134 732.35334 259.80196 732.35334 205.29469 c 0
 732.35334 150.78741 689.21259 107.64665 634.70531 107.64665 c 0
 580.19804 107.64665 537.05866 150.78741 537.05866 205.29469 c 0
 537.05866 259.80196 580.19804 302.94134 634.70531 302.94134 c 0
EndSplineSet
Validated: 41
Ligature2: "'liga' Standard Ligatures in Latin lookup 0 subtable" k u l u p u
EndChar

StartChar: kute
Encoding: 34 57376 34
Width: 850
Flags: W
LayerCount: 2
Fore
SplineSet
409.69444 840.04215 m 0
 303.96477 840.04215 202.74293 812.75439 124.98723 760.13603 c 0
 47.231529 707.51768 -1.7764505 630.1147 0.04930958 545.9797 c 0
 0.267967860213 519.248118266 22.1413522087 497.552921497 48.873828215 497.552921497 c 0
 75.825864119 497.552921497 97.699980215 519.427037593 97.699980215 546.379073497 c 0
 97.699980215 546.853702316 97.6864173667 547.62387547 97.669706 548.09821 c 0
 96.684716 593.48872 122.12856 640.30292 179.71096 679.26973 c 0
 237.29335 718.23653 321.20979 742.39959 409.69444 742.39959 c 0
 498.17909 742.39959 583.45254 718.27211 643.3427 678.90533 c 0
 703.03673 639.66746 731.17375 591.67774 732.3422 546.41754 c 0
 732.17776 430.08966 685.9317 318.61068 603.66329 236.34227 c 0
 521.24815 153.92713 409.51852 107.64673 292.96591 107.64673 c 0
 292.76242903 107.649802984 292.432122247 107.652297 292.228618074 107.652297 c 0
 265.27658217 107.652297 243.402466074 85.778180904 243.402466074 58.826145 c 0
 243.402466074 31.874109096 265.27658217 9.999993 292.228618074 9.999993 c 0
 292.432122247 9.999993 292.76242903 10.002487016 292.96591 10.00556 c 0
 435.37741 10.00556 572.00654 66.59873 672.70669 167.29888 c 0
 773.4068 267.99901 830 404.62676 830 547.03826 c 0
 830.000002057 547.043524792 830.000003726 547.052070541 830.000003726 547.057335334 c 0
 830.000003726 547.34732751 829.994939657 547.81798496 829.9887 548.10791 c 0
 828.14576 632.24264 776.41779 708.28206 696.97601 760.50043 c 0
 617.53425 812.7188 515.42411 840.04215 409.69444 840.04215 c 0
415.56363 596.51907 m 0
 415.473543889 596.519672239 415.327315525 596.520161012 415.237227401 596.520161012 c 0
 395.520163712 596.520161012 374.672789516 581.269030959 368.70291 562.47746 c 2
 307.67631 379.39766 l 2
 306.173096317 375.087346601 304.953096806 367.884262327 304.953096806 363.319346888 c 0
 304.953096806 336.367310984 326.827212902 314.493194888 353.779248806 314.493194888 c 0
 373.489534962 314.493194888 394.334738057 329.737494778 400.30872 348.52065 c 2
 461.33532 531.60045 l 2
 462.841469608 535.91459369 464.063851898 543.124506713 464.063851898 547.694005856 c 0
 464.063851898 574.466724845 442.335752488 596.340353581 415.56363 596.51907 c 0
EndSplineSet
Validated: 41
Ligature2: "'liga' Standard Ligatures in Latin lookup 0 subtable" k u t e
EndChar

StartChar: lape
Encoding: 35 57377 35
Width: 850
Flags: W
LayerCount: 2
Fore
SplineSet
634.86011 600.278 m 0
 544.49049 600.278 467.80692 537.77269 445.95962 453.92427 c 1
 49.443177 453.92427 l 2
 49.2627316293 453.926688312 48.9698216444 453.928651 48.7893600694 453.928651 c 0
 21.8574473254 453.928651 -0.000336930626652 432.070889592 -0.000336930626652 405.139005 c 0
 -0.000336930626652 378.207120408 21.8574473254 356.349359 48.7893600694 356.349359 c 0
 48.9698216444 356.349359 49.2627316293 356.351321688 49.443177 356.35374 c 2
 445.95962 356.35374 l 1
 467.80692 272.50531 544.49049 210 634.86011 210 c 0
 742.05474 210 830 297.94521 830 405.13969 c 0
 830 512.33418 742.05474 600.278 634.86011 600.278 c 0
634.86011 502.70884 m 0
 689.32422 502.70884 732.43078 459.60365 732.43078 405.13969 c 0
 732.43078 350.67573 689.32422 307.56916 634.86011 307.56916 c 0
 582.36984 307.56916 540.55003 347.64287 537.57906 399.29934 c 0
 537.782367832 400.944565617 537.94737129 403.62523322 537.94737129 405.282973043 c 0
 537.94737129 406.917969305 537.786847832 409.562131142 537.58906 411.18512 c 0
 540.65922 462.7423 582.43972 502.70884 634.86011 502.70884 c 0
EndSplineSet
Validated: 9
Ligature2: "'liga' Standard Ligatures in Latin lookup 0 subtable" l a p e
EndChar

StartChar: laso
Encoding: 36 57378 36
Width: 850
Flags: W
LayerCount: 2
Fore
SplineSet
172.23082 839.99954 m 0
 138.23006 839.94324 104.90766 830.26331 76.74424 808.87021 c 0
 26.675938 770.83802 0 702.90215 0 615.7485 c 0
 0 583.29768 23.075844 562.52134 40.334751 552.53279 c 0
 57.593665 542.54423 75.479682 537.20261 95.44778 532.70842 c 0
 135.38399 523.72003 183.42753 519.94122 231.91201 519.94122 c 0
 275.27632 519.94122 318.24194 522.99528 355.4158 530.0646 c 1
 360.96186 505.51386 364.55967 478.90793 365.72291 450.3391 c 1
 14.300262 94.41392 l 2
 6.41074708456 86.4192279013 0.00766251551477 70.7571015305 0.00766251551477 59.4538164937 c 0
 0.00766251551477 32.1620457696 21.8773902206 10.0067359804 48.824019 10 c 2
 781.17599 10 l 2
 808.122614916 10.006739891 829.992339486 32.1620496794 829.992339486 59.453816492 c 0
 829.992339486 70.7571015296 823.589254916 86.4192279012 815.69974 94.41392 c 2
 464.27709 450.3391 l 1
 465.44033 478.90793 469.03814 505.51386 474.5842 530.0646 c 1
 511.75806 522.99528 554.72368 519.94122 598.08799 519.94122 c 0
 646.57247 519.94122 694.61601 523.72003 734.5522 532.70842 c 0
 754.5203 537.20261 772.40637 542.54423 789.66526 552.53279 c 0
 806.92416 562.52134 830 583.29768 830 615.7485 c 0
 830 702.90215 803.32408 770.83802 753.25579 808.87021 c 0
 703.18746 846.9024 636.81534 847.91593 579.30963 823.64832 c 0
 516.57453 797.1739 458.90977 742.5738 419.40882 665.68763 c 0
 419.335423063 665.69790843 419.216241623 665.71426043 419.14279 665.72413 c 0
 418.073504315 665.810467058 416.335098806 665.880537714 415.262420559 665.880537714 c 0
 413.974813468 665.880537714 411.889543458 665.779644658 410.6078 665.65533 c 0
 371.10643 742.55853 313.43424 797.1702 250.69037 823.64833 c 0
 225.53162 834.26541 198.67585 840.04333 172.23082 839.99954 c 0
168.43995 741.73649 m 0
 181.31162 742.41845 196.11444 739.54042 213.13365 732.35826 c 0
 249.22031 717.12956 290.04881 680.64008 320.45559 624.55137 c 1
 294.56057 620.94072 263.15821 618.83996 231.91201 618.83996 c 0
 188.85237 618.83996 145.35196 622.78663 116.63007 629.25103 c 0
 109.37346 630.88425 103.06992 632.79013 98.228585 634.48672 c 1
 101.43695 689.22726 118.56572 717.01498 135.33223 729.75093 c 0
 144.62712 736.81138 155.56829 741.05451 168.43995 741.73649 c 0
661.56005 741.73649 m 0
 674.43171 741.05451 685.37288 736.81138 694.66777 729.75093 c 0
 711.43429 717.01498 728.56308 689.22726 731.77142 634.48672 c 1
 726.9301 632.79013 720.6265 630.88425 713.36989 629.25103 c 0
 684.64804 622.78663 641.14763 618.83996 598.08799 618.83996 c 0
 566.84179 618.83996 535.43943 620.94072 509.54441 624.55137 c 1
 539.95119 680.64008 580.77969 717.12956 616.86635 732.35826 c 0
 633.88556 739.54042 648.68838 742.41845 661.56005 741.73649 c 0
415 360.38356 m 1
 663.30723 108.89734 l 1
 166.69277 108.89734 l 1
 415 360.38356 l 1
EndSplineSet
Validated: 41
Ligature2: "'liga' Standard Ligatures in Latin lookup 0 subtable" l a s o
EndChar

StartChar: lawa
Encoding: 37 57379 37
Width: 850
Flags: W
LayerCount: 2
Fore
SplineSet
293.12819 840 m 0
 135.32453 840 5.8994593 712.20642 0.89145368 553.9034 c 0
 0.399370896732 551.338669476 -6.37515071844e-07 547.13685725 -6.37515071844e-07 544.524354853 c 0
 -6.37515071844e-07 542.199738994 0.316805648092 538.45381618 0.70715625 536.16292 c 0
 1.035184 403.47619 25.907587 277.19528 73.930193 179.07643 c 0
 122.98193 78.85489 197.27377 10 286.84416 10 c 0
 376.41455 10 451.47269 78.23526 502.96873 178.16196 c 0
 548.32607 266.1767 575.70636 377.14901 583.49149 495.14614 c 1
 780.58939 495.14614 l 2
 780.771494328 495.143648824 781.067097501 495.141627 781.249218511 495.141627 c 0
 808.159770511 495.141627 830.000218511 517.214474104 830.000218511 544.411375 c 0
 830.000218511 571.608275896 808.159770511 593.681123 781.249218511 593.681123 c 0
 781.067097501 593.681123 780.771494328 593.679101176 780.58939 593.67661 c 2
 581.44208 593.67661 l 1
 558.07524 733.06806 437.47341 840 293.12819 840 c 0
293.12819 741.47092 m 0
 384.53919 741.47092 460.58788 678.98894 482.05063 593.67661 c 1
 104.20711 593.67661 l 1
 125.66988 678.98894 201.71717 741.47092 293.12819 741.47092 c 0
0.65311639 544.68446 m 2
 0.65279714 544.62596 0.65453539 544.56793 0.65453539 544.50941 c 0
 0.6545283 544.47641 0.65169739 544.44421 0.65169739 544.41141 c 2
 0.65311639 544.68446 l 2
99.21593 495.14614 m 1
 485.67555 495.14614 l 1
 477.84417 390.98963 452.77846 294.07008 416.50144 223.67548 c 0
 374.43973 142.05584 325.29506 108.52908 286.84416 108.52908 c 0
 248.39326 108.52908 201.11924 141.4362 161.31618 222.76101 c 0
 126.84574 293.19032 104.22962 390.52321 99.21593 495.14614 c 1
EndSplineSet
Validated: 5
Ligature2: "'liga' Standard Ligatures in Latin lookup 0 subtable" l a w a
EndChar

StartChar: la
Encoding: 38 57380 38
Width: 708
Flags: W
LayerCount: 2
Fore
SplineSet
50.477016 839.97242 m 0
 50.0242177066 839.987646768 49.2890330376 840.000004724 48.8359787925 840.000004724 c 0
 21.8834212485 840.000004724 0.008881792537 818.125465268 0.008881792537 791.172907724 c 0
 0.008881792537 764.367258628 21.7638662695 742.493045887 48.569115 742.34654 c 0
 201.23158 739.36198 346.75384 699.7111 449.77599 635.86562 c 0
 552.79814 572.02012 602.39851 493.15926 602.39851 418.27187 c 0
 602.39851 343.38448 553.18911 266.38879 450.45629 205.01767 c 0
 347.72347 143.64654 202.3177 107.2222 49.659543 107.64812 c 0
 49.4297882554 107.652037903 49.0568259083 107.655217651 48.827037761 107.655217651 c 0
 21.874480217 107.655217651 -5.92390321756e-05 85.7806781946 -5.92390321756e-05 58.8281206506 c 0
 -5.92390321756e-05 31.8755631066 21.874480217 10.0010236506 48.827037761 10.0010236506 c 0
 48.9814803539 10.0010236506 49.232161549 10.0024600951 49.386594 10.00423 c 0
 217.42549 9.5354 378.06545 48.03159 500.53285 121.19187 c 0
 623.00025 194.35216 700.04239 300.68476 700.04239 418.27187 c 0
 700.04239 535.85898 623.38983 643.14733 501.21177 718.86423 c 0
 379.03371 794.58114 218.51159 836.68734 50.477016 839.97242 c 0
EndSplineSet
Validated: 41
Ligature2: "'liga' Standard Ligatures in Latin lookup 0 subtable" l a
EndChar

StartChar: len
Encoding: 39 57381 39
Width: 850
Flags: W
LayerCount: 2
Fore
SplineSet
48.827881 840.71003 m 2
 21.8806334119 840.707158228 0.00807495364872 818.834597588 0.00520587 791.88735 c 2
 0.00520587 242.62848 l 1
 0.00520587 59.54173 l 2
 0.00233164188 59.344934868 -1.06500000641e-06 59.0254822576 -1.06500000641e-06 58.8286661374 c 0
 -1.06500000641e-06 31.8756769294 21.874888727 10.0007871374 48.827877935 10.0007871374 c 0
 75.780867143 10.0007871374 97.655756935 31.8756769294 97.655756935 58.8286661374 c 0
 97.655756935 59.0254822576 97.6534242281 59.344934868 97.65055 59.54173 c 2
 97.65055 193.80442 l 1
 366.17733 193.80442 l 1
 366.17733 59.54173 l 2
 366.174457392 59.3449903309 366.172126 59.0256277615 366.172126 58.8288671219 c 0
 366.172126 31.8758779139 388.047015792 10.0009881219 415.000005 10.0009881219 c 0
 441.952994208 10.0009881219 463.827884 31.8758779139 463.827884 58.8288671219 c 0
 463.827884 59.0256277615 463.825552608 59.3449903309 463.82268 59.54173 c 2
 463.82268 193.80442 l 1
 732.34946 193.80442 l 1
 732.34946 59.54173 l 2
 732.346579112 59.3447070393 732.344241 59.0248845606 732.344241 58.8278405386 c 0
 732.344241 31.8748513306 754.219130792 9.99996153864 781.17212 9.99996153864 c 0
 808.125109208 9.99996153864 829.999999 31.8748513306 829.999999 58.8278405386 c 0
 829.999999 59.0248845606 829.997660888 59.3447070393 829.99478 59.54173 c 2
 829.99478 242.62848 l 1
 829.99478 791.88735 l 2
 829.991910913 818.834611312 808.119341313 840.707171952 781.17208 840.71003 c 2
 48.827881 840.71003 l 2
97.65055 743.0633 m 1
 732.34946 743.0633 l 1
 732.34946 291.45116 l 1
 422.9683 291.45116 l 2
 420.800936307 291.806748605 417.259379827 292.095342255 415.06304 292.095342255 c 0
 412.866700173 292.095342255 409.325143693 291.806748605 407.15778 291.45116 c 2
 97.65055 291.45116 l 1
 97.65055 743.0633 l 1
EndSplineSet
Validated: 9
Ligature2: "'liga' Standard Ligatures in Latin lookup 0 subtable" l e n
EndChar

StartChar: lete
Encoding: 40 57382 40
Width: 850
Flags: W
LayerCount: 2
Fore
SplineSet
170.77077 839.73209 m 0
 143.945842071 839.65032671 122.174886071 817.812910966 122.174886071 790.987858429 c 0
 122.174886071 782.632769274 126.015753111 770.263543738 130.74825 763.37798 c 2
 323.92927 473.60644 l 1
 49.453497 473.60644 l 2
 49.2577960641 473.609287216 48.9401197651 473.611598 48.7443981185 473.611598 c 0
 21.8374573025 473.611598 -5.98815127049e-05 451.774080816 -5.98815127049e-05 424.86714 c 0
 -5.98815127049e-05 397.960199184 21.8374573025 376.122682 48.7443981185 376.122682 c 0
 48.9401197651 376.122682 49.2577960641 376.124992784 49.453497 376.12784 c 2
 323.92927 376.12784 l 1
 130.74825 86.35631 l 2
 126.014961217 79.4703605692 122.173451479 67.1001999906 122.173451479 58.7443444228 c 0
 122.173451479 31.8374036068 144.010968663 9.99988642279 170.917909479 9.99988642279 c 0
 185.564999281 9.99988642279 203.905241434 19.9835993854 211.85595 32.28496 c 2
 415 337.00034 l 1
 618.14405 32.28496 l 2
 626.094775433 19.9837338642 644.434947045 10.0001300439 659.081933061 10.0001300439 c 0
 685.988873877 10.0001300439 707.826391061 31.8376472279 707.826391061 58.7445880439 c 0
 707.826391061 67.1003541506 703.984956346 79.470405587 699.25176 86.35631 c 2
 506.07074 376.12784 l 1
 780.5465 376.12784 l 2
 780.742200936 376.124992784 781.059877235 376.122682 781.255598882 376.122682 c 0
 808.162539698 376.122682 830.000056882 397.960199184 830.000056882 424.86714 c 0
 830.000056882 451.774080816 808.162539698 473.611598 781.255598882 473.611598 c 0
 781.059877235 473.611598 780.742200936 473.609287216 780.5465 473.60644 c 2
 506.07074 473.60644 l 1
 699.25176 763.37798 l 2
 703.985016095 770.263913512 707.826499303 782.634035495 707.826499303 790.989859428 c 0
 707.826499303 817.896800244 685.988982119 839.734317428 659.082041303 839.734317428 c 0
 644.434983942 839.734317428 626.094763838 829.75063858 618.14405 817.44932 c 2
 415 512.73394 l 1
 211.85595 817.44932 l 2
 203.905097633 829.749533874 185.565457042 839.732316149 170.919252253 839.732316149 c 0
 170.878271056 839.732316149 170.811751007 839.732214834 170.77077 839.73209 c 0
EndSplineSet
Validated: 9
Ligature2: "'liga' Standard Ligatures in Latin lookup 0 subtable" l e t e
EndChar

StartChar: lili
Encoding: 41 57383 41
Width: 708
Flags: W
LayerCount: 2
Fore
SplineSet
277.05377 646.44709 m 0
 276.718305713 646.454240064 276.173722137 646.460043015 275.838181661 646.460043015 c 0
 244.349057933 646.460043015 218.792667661 620.903652743 218.792667661 589.414529015 c 0
 218.792667661 581.745310338 221.654765989 569.993791419 225.18128 563.18346 c 2
 367.78156 277.98422 l 2
 376.486528362 260.58329237 399.342491562 246.460800381 418.799335 246.460800381 c 0
 438.256178438 246.460800381 461.112141638 260.58329237 469.81711 277.98422 c 2
 612.41739 563.18346 l 2
 615.936541979 569.988048863 618.792665324 581.728021826 618.792665324 589.388756793 c 0
 618.792665324 620.877880521 593.236275052 646.434270793 561.747151324 646.434270793 c 0
 541.987436001 646.434270793 518.975180688 631.993868518 510.38051 614.20123 c 2
 418.79934 431.03754 l 1
 327.21816 614.20123 l 2
 318.829397163 631.589850012 296.355750443 646.035995292 277.05377 646.44709 c 0
EndSplineSet
Validated: 9
Ligature2: "'liga' Standard Ligatures in Latin lookup 0 subtable" l i l i
EndChar

StartChar: linja
Encoding: 42 57384 42
Width: 850
Flags: W
LayerCount: 2
Fore
SplineSet
236.64109 828.81068 m 0
 162.95997 828.81068 103.3351 773.79507 63.472472 697.257 c 0
 23.609834 620.71893 2.1467913 522.94444 0.02959164 420.41333 c 0
 0.0132602486677 419.944414355 5.78613719819e-06 419.183045174 5.78613719426e-06 418.713845221 c 0
 5.78613719426e-06 391.761836917 21.8740994821 369.887743221 48.8261077861 369.887743221 c 0
 75.6039733036 369.887743221 97.4776074474 391.620047058 97.651184 418.39735 c 0
 99.504068 508.12827 119.65962 593.75739 150.07341 652.15324 c 0
 180.4872 710.5491 214.15825 731.1683 236.64109 731.1683 c 0
 259.12393 731.1683 291.25111 711.16307 319.99154 653.05939 c 0
 348.73196 594.95572 366.67648 509.40195 366.18018 419.67483 c 0
 365.61304 317.13992 384.48415 219.29007 422.48749 142.45982 c 0
 460.49083 65.62958 519.67775 10 593.35888 10 c 0
 667.03999 10 726.66489 65.01561 766.52747 141.55368 c 0
 806.39012 218.09174 827.85319 315.86624 829.9704 418.39735 c 0
 829.986739773 418.866385845 830.000001038 419.627950313 830.000001038 420.097270686 c 0
 830.000001038 447.04927899 808.125907342 468.923372686 781.173899038 468.923372686 c 0
 754.395794443 468.923372686 732.522159035 447.190873562 732.34882 420.41333 c 0
 730.49587 330.6824 710.34037 245.05329 679.92656 186.65744 c 0
 649.51277 128.26158 615.84171 107.64237 593.35888 107.64237 c 0
 570.87603 107.64237 538.74886 127.64761 510.00843 185.75128 c 0
 481.268 243.85497 463.32348 329.40734 463.81978 419.13446 c 0
 464.38693 521.66937 445.51582 619.52061 407.51248 696.35085 c 0
 369.50914 773.1811 310.32221 828.81068 236.64109 828.81068 c 0
EndSplineSet
Validated: 41
Ligature2: "'liga' Standard Ligatures in Latin lookup 0 subtable" l i n j a
EndChar

StartChar: lipu
Encoding: 43 57385 43
Width: 850
Flags: W
LayerCount: 2
Fore
SplineSet
48.824019 840 m 2
 21.8755849026 839.997575057 0.00242439057172 818.124414097 0 791.17598 c 2
 0 58.82402 l 2
 0.00242439054568 31.8755859025 21.8755849025 10.0024249425 48.824019 10 c 2
 781.17599 10 l 2
 808.12441913 10.0024299092 829.99757561 31.8755908692 830 58.82402 c 2
 830 791.17598 l 2
 829.99757561 818.124409131 808.12441913 839.997570091 781.17599 840 c 2
 48.824019 840 l 2
97.646648 742.35335 m 1
 732.35334 742.35335 l 1
 732.35334 107.64665 l 1
 97.646648 107.64665 l 1
 97.646648 742.35335 l 1
EndSplineSet
Validated: 9
Ligature2: "'liga' Standard Ligatures in Latin lookup 0 subtable" l i p u
EndChar

StartChar: li
Encoding: 44 57386 44
Width: 850
Flags: W
LayerCount: 2
Fore
SplineSet
146.73488 839.95637 m 0
 120.950022637 838.862997659 100.023181879 817.029976731 100.023181879 791.221948284 c 0
 100.023181879 777.520643509 109.012439917 759.855103798 120.08849 751.78994 c 2
 555.79697 425.00858 l 1
 120.08849 98.22721 l 2
 108.999579734 90.1627008448 99.9998844453 72.4895658361 99.9998844453 58.778247927 c 0
 99.9998844453 31.852672695 121.852525213 10.000031927 148.778100445 10.000031927 c 0
 157.973849538 10.000031927 171.341134459 14.5652899437 178.61579 20.19034 c 2
 666.34932 385.98944 l 2
 677.117016502 394.067191541 685.856016562 411.547761781 685.856016562 425.00857 c 0
 685.856016562 438.469378219 677.117016502 455.949948459 666.34932 464.0277 c 2
 178.61579 829.8268 l 2
 171.34470993 835.442466655 157.987279656 840.000109157 148.800097424 840.000109157 c 0
 148.229841742 840.000109157 147.304624336 839.980514015 146.73488 839.95637 c 0
EndSplineSet
Validated: 9
Ligature2: "'liga' Standard Ligatures in Latin lookup 0 subtable" l i
EndChar

StartChar: loje
Encoding: 45 57387 45
Width: 850
Flags: W
LayerCount: 2
Fore
SplineSet
48.82178 839.96126 m 2
 21.8721574714 839.958860086 5.68446591274e-08 818.084754829 5.68446552052e-08 791.135132194 c 0
 5.6844651283e-08 790.841222882 0.00520184449825 790.364209419 0.01161119 790.07037 c 0
 1.8547434 705.93566 53.582724 629.89772 133.02444 577.67936 c 0
 212.46617 525.461 314.57481 498.1363 420.30445 498.1363 c 0
 526.03408 498.1363 627.2572 525.42402 705.01287 578.04238 c 0
 782.76852 630.66073 831.77654 708.06361 829.95069 792.19858 c 0
 829.376367466 818.56122173 807.509406826 839.95890237 781.14051 839.96126 c 2
 48.82178 839.96126 l 2
109.68069 742.31876 m 1
 723.3354 742.31876 l 1
 711.49833 712.89867 687.72579 684.24252 650.28918 658.90863 c 0
 592.70681 619.94184 508.78907 595.77881 420.30445 595.77881 c 0
 331.81982 595.77881 246.54785 619.90626 186.65771 659.27303 c 0
 148.47064 684.37403 123.24536 713.05965 109.68069 742.31876 c 1
414.26345 473.79495 m 0
 403.333538016 473.634429822 388.189050336 467.231636222 380.45879 459.503 c 2
 14.29941 93.34363 l 2
 6.40964059834 85.4503030154 0.00634948975462 69.9864615944 0.00634948975461 58.8261268281 c 0
 0.0063494897546 31.8800085397 21.8756623583 10.0059037207 48.82178 10 c 2
 781.14051 10 l 2
 808.085899171 10.0066318525 829.954620817 31.880736534 829.954620817 58.8261265212 c 0
 829.954620817 69.9864614278 823.551329571 85.4503029863 815.66156 93.34363 c 2
 449.50215 459.503 l 2
 441.608428942 467.395062882 426.14272553 473.800215367 414.980490598 473.800215367 c 0
 414.782576722 473.800215367 414.461342534 473.797856482 414.26345 473.79495 c 0
414.98117 355.93589 m 1
 663.27455 107.6425 l 1
 166.68778 107.6425 l 1
 414.98117 355.93589 l 1
EndSplineSet
Validated: 41
Ligature2: "'liga' Standard Ligatures in Latin lookup 0 subtable" l o j e
EndChar

StartChar: lon
Encoding: 46 57388 46
Width: 850
Flags: W
LayerCount: 2
Fore
SplineSet
415.00001 633.955 m 0
 355.01139 633.95501 305.33579 584.27945 305.33579 524.29089 c 0
 305.33579 464.30232 355.01139 414.62676 415.00001 414.62676 c 0
 474.98863 414.62676 524.66422 464.30232 524.66422 524.29089 c 0
 524.66422 584.27945 474.98862 633.95501 415.00001 633.955 c 0
415.00001 536.47626 m 0
 422.30688 536.47626 427.18538 531.59772 427.18538 524.29089 c 0
 427.18538 516.98405 422.30688 512.10691 415.00001 512.10691 c 0
 407.69314 512.10691 402.81464 516.98405 402.81464 524.29089 c 0
 402.81464 531.59772 407.69314 536.47626 415.00001 536.47626 c 0
49.452628 207.4839 m 2
 49.2572494811 207.486737832 48.9400966087 207.489041 48.7446974813 207.489041 c 0
 21.8376981533 207.489041 0.000133481342324 185.651495592 0.000133481342324 158.74452 c 0
 0.000133481342324 131.837544408 21.8376981533 109.999999 48.7446974813 109.999999 c 0
 48.9400966087 109.999999 49.2572494811 110.002302168 49.452628 110.00514 c 2
 780.54737 110.00514 l 2
 780.742748519 110.002302168 781.059901391 109.999999 781.255300519 109.999999 c 0
 808.162299847 109.999999 829.999864519 131.837544408 829.999864519 158.74452 c 0
 829.999864519 185.651495592 808.162299847 207.489041 781.255300519 207.489041 c 0
 781.059901391 207.489041 780.742748519 207.486737832 780.54737 207.4839 c 2
 49.452628 207.4839 l 2
EndSplineSet
Validated: 41
Ligature2: "'liga' Standard Ligatures in Latin lookup 0 subtable" l o n
EndChar

StartChar: luka
Encoding: 47 57389 47
Width: 850
Flags: W
LayerCount: 2
Fore
SplineSet
523.59373 828.30831 m 0
 470.94187 828.30831 423.40364 799.98014 384.97448 757.78839 c 0
 346.54532 715.59664 314.27831 658.18371 286.65727 586.97267 c 0
 247.97058 487.23277 220.8597 365.43978 206.63096 233.85625 c 1
 92.177422 448.45733 l 2
 84.651208944 463.045997624 65.2201430254 474.886075696 48.8045070031 474.886075696 c 0
 21.8643716671 474.886075696 -8.59968662681e-05 453.021618032 -8.59968662681e-05 426.081482696 c 0
 -8.59968662681e-05 419.150130596 2.71490093933 408.597771628 6.0601527 402.52711 c 2
 201.25911 36.52905 l 2
 208.867773838 22.2752186622 228.156221154 10.7068917794 244.313679903 10.7068917794 c 0
 270.683174888 10.7068917794 292.542622612 32.1033172222 293.10709 58.46677 c 0
 297.0532 245.80673 328.40388 424.70995 377.65175 551.67808 c 0
 402.27568 615.16213 430.50961 662.84198 457.12937 692.06808 c 0
 483.74912 721.29417 505.80745 730.70883 523.59373 730.70883 c 0
 541.38001 730.70883 562.38971 721.60372 587.86334 692.67634 c 0
 613.33698 663.74896 640.06982 616.25956 662.73396 552.89182 c 0
 708.06222 426.15635 734.03165 247.27845 732.31721 59.94101 c 0
 732.3099057 59.6274029106 732.303977572 59.1182904916 732.303977572 58.8045983506 c 0
 732.303977572 31.8644630146 754.168435236 10.0000053506 781.108570572 10.0000053506 c 0
 808.048705908 10.0000053506 829.913163572 31.8644630146 829.913163572 58.8045983506 c 0
 829.913163572 58.8715899401 829.912893172 58.980329239 829.91256 59.04732 c 0
 831.71284 255.76598 805.65375 443.10557 754.63182 585.7603 c 0
 729.12082 657.08766 698.52882 714.68828 661.11145 757.17874 c 0
 623.69408 799.66919 576.24559 828.30831 523.59373 828.30831 c 0
EndSplineSet
Validated: 41
Ligature2: "'liga' Standard Ligatures in Latin lookup 0 subtable" l u k a
EndChar

StartChar: lukin
Encoding: 48 57390 48
Width: 850
Flags: W
LayerCount: 2
Fore
SplineSet
409.65973 696.037 m 0
 303.92604 696.037 202.70159 668.74593 124.94528 616.12349 c 0
 48.505505 564.39203 -0.03177838 488.68979 0.08549759 406.20539 c 0
 0.0383029652526 405.408947023 8.13996408056e-08 404.115036157 8.13996408056e-08 403.317196104 c 0
 8.13996408056e-08 402.940977287 0.0085227700526 402.330422232 0.01902394 401.95435 c 0
 0.0300884852587 400.590010265 0.159824612619 398.381997465 0.30861351 397.02575 c 0
 4.0207871 314.85869 55.139113 240.74536 133.02063 189.54909 c 0
 212.4631 137.32669 314.57581 110 420.3095 110 c 0
 526.04319 110 627.26764 137.28968 705.02395 189.91212 c 0
 782.78025 242.53456 831.7848 319.94458 829.95022 404.08264 c 0
 828.1157 488.22071 776.39112 564.26551 696.94863 616.48791 c 0
 617.50613 668.7103 515.39342 696.037 409.65973 696.037 c 0
409.65973 598.39464 m 0
 498.14776 598.39464 583.42451 574.26581 643.31457 534.89643 c 0
 703.20464 495.52703 731.34313 447.34671 732.33285 401.95435 c 0
 733.32258 356.562 707.88156 309.74549 650.29941 270.77615 c 0
 592.71727 231.80681 508.79754 207.64236 420.3095 207.64236 c 0
 331.82147 207.64236 246.54472 231.77118 186.65466 271.14056 c 0
 126.76458 310.50997 98.62609 358.69029 97.636357 404.08264 c 0
 96.64663 449.475 122.08767 496.29011 179.66981 535.25946 c 0
 237.25196 574.2288 321.17169 598.39464 409.65973 598.39464 c 0
414.98461 512.86527 m 0
 354.89603 512.86527 305.13788 463.10712 305.13788 403.0185 c 0
 305.13788 342.92988 354.89603 293.17172 414.98461 293.17172 c 0
 475.0732 293.17172 524.83135 342.92988 524.83135 403.0185 c 0
 524.83135 463.10712 475.0732 512.86527 414.98461 512.86527 c 0
414.98461 415.22292 m 0
 422.30367 415.22292 427.19042 410.3375 427.19042 403.0185 c 0
 427.19042 395.6995 422.30367 390.81269 414.98461 390.81269 c 0
 407.66556 390.81269 402.7788 395.6995 402.7788 403.0185 c 0
 402.7788 410.3375 407.66556 415.22292 414.98461 415.22292 c 0
EndSplineSet
Validated: 41
Ligature2: "'liga' Standard Ligatures in Latin lookup 0 subtable" l u k i n
EndChar

StartChar: lupa
Encoding: 49 57391 49
Width: 850
Flags: W
LayerCount: 2
Fore
SplineSet
48.091846 840.68129 m 0
 21.5451470424 840.281068533 6.23143698135e-08 818.408655774 6.23143776579e-08 791.858940093 c 0
 6.23143776579e-08 791.668396705 0.00218645359754 791.359124343 0.0048804 791.1686 c 2
 0.0048804 424.99495 l 2
 0.0048804 314.95003 43.740279 209.36241 121.55381 131.54892 c 0
 199.36733 53.73544 304.95495 10 414.99983 10 c 0
 525.04472 10 630.63234 53.73544 708.44586 131.54892 c 0
 786.25937 209.36241 829.99482 314.95003 829.99482 424.99495 c 2
 829.99482 791.1686 l 2
 829.997681016 791.364942412 830.000003 791.683660055 830.000003 791.880023311 c 0
 830.000003 818.833023007 808.125104696 840.707921311 781.172105 840.707921311 c 0
 754.219105304 840.707921311 732.344207 818.833023007 732.344207 791.880023311 c 0
 732.344207 791.683660055 732.346528984 791.364942412 732.34939 791.1686 c 2
 732.34939 424.99495 l 2
 732.34939 340.80985 698.9275 260.12294 639.39966 200.59513 c 0
 579.87181 141.06732 499.18496 107.64538 414.99983 107.64538 c 0
 330.81471 107.64538 250.12786 141.06732 190.60001 200.59513 c 0
 131.07217 260.12294 97.650262 340.80985 97.650262 424.99495 c 2
 97.650262 791.1686 l 2
 97.6529558695 791.359121624 97.6551421984 791.668389571 97.6551421984 791.858930239 c 0
 97.6551421984 818.811929935 75.7802438944 840.686828239 48.8272441984 840.686828239 c 0
 48.6242627842 840.686828239 48.2948043913 840.684347108 48.091846 840.68129 c 0
EndSplineSet
Validated: 9
Ligature2: "'liga' Standard Ligatures in Latin lookup 0 subtable" l u p a
EndChar

StartChar: mama
Encoding: 50 57392 50
Width: 850
Flags: W
LayerCount: 2
Fore
SplineSet
341.76536 840 m 0
 251.14249 840 164.18051 803.97959 100.10046 739.89954 c 0
 36.020411 675.81949 0 588.85751 0 498.23464 c 0
 0 407.61177 36.020411 320.65118 100.10046 256.57113 c 0
 136.54982 220.12177 180.41515 192.78568 228.13361 175.95843 c 1
 222.76936 162.28738 219.70531 147.50936 219.70531 132.05866 c 0
 219.70531 65.22573 274.93244 10 341.76536 10 c 0
 408.59828 10 463.82402 65.22573 463.82402 132.05866 c 0
 463.82402 147.50936 460.75997 162.28738 455.39572 175.95843 c 1
 503.11422 192.78567 546.97947 220.12173 583.42887 256.57113 c 0
 647.50892 320.65118 683.52933 407.61177 683.52933 498.23464 c 0
 683.52933 588.85751 647.50892 675.81949 583.42887 739.89954 c 0
 519.34882 803.97959 432.38823 840 341.76536 840 c 0
341.76536 742.35335 m 0
 406.52814 742.35335 468.58715 716.64623 514.38136 670.85203 c 0
 560.17556 625.05783 585.88268 562.99742 585.88268 498.23464 c 0
 585.88268 433.47186 560.17556 371.41285 514.38136 325.61864 c 0
 468.58715 279.82444 406.52814 254.11732 341.76536 254.11732 c 0
 277.00258 254.11732 214.94217 279.82444 169.14797 325.61864 c 0
 123.35377 371.41285 97.646645 433.47186 97.646645 498.23464 c 0
 97.646645 562.99742 123.35377 625.05783 169.14797 670.85203 c 0
 214.94217 716.64623 277.00258 742.35335 341.76536 742.35335 c 0
341.76536 156.47067 m 0
 355.8259 156.47067 366.17598 146.11921 366.17598 132.05866 c 0
 366.17598 117.99812 355.8259 107.64665 341.76536 107.64665 c 0
 327.70481 107.64665 317.35335 117.99812 317.35335 132.05866 c 0
 317.35335 146.11921 327.70481 156.47067 341.76536 156.47067 c 0
EndSplineSet
Validated: 9
Ligature2: "'liga' Standard Ligatures in Latin lookup 0 subtable" m a m a
EndChar

StartChar: mani
Encoding: 51 57393 51
Width: 850
Flags: W
LayerCount: 2
Fore
SplineSet
48.091846 840.68129 m 0
 21.5451470424 840.281068533 6.23143698135e-08 818.408655774 6.23143776579e-08 791.858940093 c 0
 6.23143776579e-08 791.668396705 0.00218645359754 791.359124343 0.0048804 791.1686 c 0
 0.0048804 680.40617 78.813191 587.11518 183.09032 564.51725 c 1
 183.09032 241.90951 l 2
 183.09032 114.40778 287.4982 10 414.99983 10 c 0
 542.50147 10 646.90935 114.40778 646.90935 241.90951 c 2
 646.90935 564.51725 l 1
 751.18651 587.11518 829.99482 680.40617 829.99482 791.1686 c 0
 829.997681016 791.364942412 830.000003 791.683660055 830.000003 791.880023311 c 0
 830.000003 818.833023007 808.125104696 840.707921311 781.172105 840.707921311 c 0
 754.219105304 840.707921311 732.344207 818.833023007 732.344207 791.880023311 c 0
 732.344207 791.683660055 732.346528984 791.364942412 732.34939 791.1686 c 0
 732.34939 718.40933 675.86739 660.22097 603.91845 657.19405 c 0
 602.319682593 657.385760697 599.715286571 657.541351986 598.105066023 657.541351986 c 0
 595.921288535 657.541351986 592.399723597 657.256028857 590.24443 656.90447 c 2
 239.88271 656.90447 l 2
 237.678514907 657.272505536 234.075925743 657.571201043 231.84121633 657.571201043 c 0
 230.187898661 657.571201043 227.514312465 657.407201216 225.87339 657.20513 c 0
 154.02387 660.33581 97.650262 718.47957 97.650262 791.1686 c 0
 97.6529558695 791.359121624 97.6551421984 791.668389571 97.6551421984 791.858930239 c 0
 97.6551421984 818.811929935 75.7802438944 840.686828239 48.8272441984 840.686828239 c 0
 48.6242627842 840.686828239 48.2948043913 840.684347108 48.091846 840.68129 c 0
280.73709 559.25909 m 1
 549.26258 559.25909 l 1
 549.26258 241.90951 l 2
 549.26258 167.17957 489.72973 107.64538 414.99983 107.64538 c 0
 340.26994 107.64538 280.73709 167.17957 280.73709 241.90951 c 2
 280.73709 559.25909 l 1
EndSplineSet
Validated: 9
Ligature2: "'liga' Standard Ligatures in Latin lookup 0 subtable" m a n i
EndChar

StartChar: ma
Encoding: 52 57394 52
Width: 850
Flags: W
LayerCount: 2
Fore
SplineSet
414.26488 840.02614 m 0
 411.905579583 839.977905208 408.112027583 839.566950328 405.79713 839.10883 c 0
 299.26258 836.73952 197.53355 793.49523 122.01845 717.98012 c 0
 46.541012 642.50269 3.3028944 540.83738 0.89389025 434.36079 c 0
 0.400462830829 431.819707639 -2.12116901821e-09 427.656531032 -2.12116901821e-09 425.067985073 c 0
 -2.12116901821e-09 422.485667119 0.398555694829 418.332324046 0.88963325 415.79713 c 0
 3.2589435 309.26258 46.503241 207.53355 122.01835 132.01845 c 0
 197.49588 56.54101 299.16118 13.30289 405.63777 10.89389 c 0
 408.17867597 10.4005330619 412.341557984 10.0001274311 414.929917352 10.0001274311 c 0
 417.512424711 10.0001274311 421.666066857 10.3987410619 424.20144 10.88989 c 0
 530.73598 13.25904 632.46501 56.50334 707.98012 132.01845 c 0
 783.45758 207.49589 826.69566 309.16119 829.10469 415.63778 c 0
 829.598875715 418.180759253 829.999953977 422.347103981 829.999953977 424.937656626 c 0
 829.999953977 427.517968248 829.602011715 431.668143199 829.11169 434.20144 c 0
 826.7395 540.73598 783.49525 642.46502 707.98012 717.98012 c 0
 632.50268 793.45756 530.83738 836.69567 424.36079 839.10468 c 0
 421.776219631 839.615651477 417.5403745 840.030352966 414.905778546 840.030352966 c 0
 414.728882904 840.030352966 414.441760355 840.028465557 414.26488 840.02614 c 0
366.25321 738.03337 m 1
 366.25321 473.74536 l 1
 101.9652 473.74536 l 1
 112.23566 539.7276 143.13849 601.22716 190.95495 649.04362 c 0
 238.77141 696.86008 300.27097 727.76291 366.25321 738.03337 c 1
463.74535 738.03337 m 1
 529.72759 727.76291 591.22715 696.86008 639.04362 649.04362 c 0
 686.86007 601.22716 717.76292 539.7276 728.03337 473.74536 c 1
 463.74535 473.74536 l 1
 463.74535 738.03337 l 1
101.9652 376.25321 m 1
 366.25321 376.25321 l 1
 366.25321 111.9652 l 1
 300.27097 122.23566 238.77141 153.13849 190.95495 200.95495 c 0
 143.13849 248.77141 112.23566 310.27097 101.9652 376.25321 c 1
463.74535 376.25321 m 1
 728.03337 376.25321 l 1
 717.76292 310.27097 686.86007 248.77141 639.04362 200.95495 c 0
 591.22715 153.13849 529.72759 122.23566 463.74535 111.9652 c 1
 463.74535 376.25321 l 1
EndSplineSet
Validated: 9
Ligature2: "'liga' Standard Ligatures in Latin lookup 0 subtable" m a
EndChar

StartChar: meli
Encoding: 53 57395 53
Width: 850
Flags: W
LayerCount: 2
Fore
SplineSet
415.00001 840.68558 m 0
 186.38289 840.68558 0.00487009 654.30774 0.00487009 425.69047 c 2
 0.00487009 59.51831 l 2
 0.00218154916 59.3279769922 -4.55000005672e-07 59.0190152506 -4.55000005672e-07 58.8286632553 c 0
 -4.55000005672e-07 31.8756972313 21.874870521 10.0008262553 48.827836545 10.0008262553 c 0
 75.780802569 10.0008262553 97.655673545 31.8756972313 97.655673545 58.8286632553 c 0
 97.655673545 59.0190152506 97.6534915408 59.3279769922 97.650803 59.51831 c 2
 97.650803 425.69047 l 2
 97.650803 601.53611 239.15455 743.03968 415.00001 743.03968 c 0
 590.84547 743.03968 732.34921 601.53611 732.34921 425.69047 c 2
 732.34921 59.51831 l 2
 732.346515136 59.3277533358 732.344328 59.0184285032 732.344328 58.8278527844 c 0
 732.344328 31.8748867604 754.219198976 10.0000157844 781.172165 10.0000157844 c 0
 808.125131024 10.0000157844 830.000002 31.8748867604 830.000002 58.8278527844 c 0
 830.000002 59.0184285032 829.997814864 59.3277533358 829.99512 59.51831 c 2
 829.99512 425.69047 l 2
 829.99512 654.30774 643.61714 840.68558 415.00001 840.68558 c 0
415.00001 657.5995 m 0
 253.79326 657.5995 122.06228 525.86858 122.06228 364.66178 c 0
 122.06228 203.4551 253.79326 71.72405 415.00001 71.72405 c 0
 576.20676 71.72405 707.93773 203.4551 707.93773 364.66178 c 0
 707.93773 525.86858 576.20676 657.5995 415.00001 657.5995 c 0
415.00001 559.9536 m 0
 523.43499 559.9536 610.29184 473.09683 610.29182 364.66178 c 0
 610.29182 256.22685 523.43499 169.36996 415.00001 169.36996 c 0
 306.56503 169.36996 219.70819 256.22685 219.70819 364.66178 c 0
 219.70819 473.09683 306.56503 559.9536 415.00001 559.9536 c 0
EndSplineSet
Validated: 9
Ligature2: "'liga' Standard Ligatures in Latin lookup 0 subtable" m e l i
EndChar

StartChar: mije
Encoding: 54 57396 54
Width: 850
Flags: W
LayerCount: 2
Fore
SplineSet
415 840.71003 m 0
 253.79312 840.71002 122.06258 708.9781 122.06258 547.77122 c 0
 122.06258 386.56434 253.79312 254.8338 415 254.8338 c 0
 576.20688 254.8338 707.93742 386.56434 707.93742 547.77122 c 0
 707.93742 708.9781 576.20688 840.71003 415 840.71003 c 0
415 743.0633 m 0
 523.43507 743.0633 610.29208 656.20629 610.29208 547.77122 c 0
 610.29208 439.33616 523.43507 352.47915 415 352.47915 c 0
 306.56493 352.47915 219.70792 439.33616 219.70792 547.77122 c 0
 219.70792 656.20629 306.56493 743.0633 415 743.0633 c 0
170.88525 230.42177 m 2
 77.088858 230.42177 0.00520587 153.33812 0.00520587 59.54173 c 0
 0.00233164188 59.344934868 -1.06500000641e-06 59.0254822576 -1.06500000641e-06 58.8286661374 c 0
 -1.06500000641e-06 31.8756769294 21.874888727 10.0007871374 48.827877935 10.0007871374 c 0
 75.780867143 10.0007871374 97.655756935 31.8756769294 97.655756935 58.8286661374 c 0
 97.655756935 59.0254822576 97.6534242281 59.344934868 97.65055 59.54173 c 0
 97.65055 100.56631 129.86067 132.77643 170.88525 132.77643 c 2
 659.11475 132.77643 l 2
 700.13933 132.77643 732.34946 100.56631 732.34946 59.54173 c 0
 732.346579112 59.3447070393 732.344241 59.0248845606 732.344241 58.8278405386 c 0
 732.344241 31.8748513306 754.219130792 9.99996153864 781.17212 9.99996153864 c 0
 808.125109208 9.99996153864 829.999999 31.8748513306 829.999999 58.8278405386 c 0
 829.999999 59.0248845606 829.997660888 59.3447070393 829.99478 59.54173 c 0
 829.99478 153.33812 752.91113 230.42177 659.11475 230.42177 c 2
 170.88525 230.42177 l 2
EndSplineSet
Validated: 9
Ligature2: "'liga' Standard Ligatures in Latin lookup 0 subtable" m i j e
EndChar

StartChar: mi
Encoding: 55 57397 55
Width: 850
Flags: W
LayerCount: 2
Fore
SplineSet
431.71784 839.99987 m 0
 341.77322 839.99987 263.38764 787.96434 225.04156 712.55495 c 1
 211.218856815 704.853310128 200.000431042 685.760462789 200.000431042 669.93698719 c 0
 200.000431042 669.75089436 200.002518255 669.448845059 200.00509 669.26277 c 2
 200.00509 608.28574 l 1
 200.00509 59.491 l 2
 200.002282528 59.2965853033 200.000004 58.9809971709 200.000004 58.7865622045 c 0
 200.000004 31.8562949725 221.856452768 9.99984620448 248.78672 9.99984620448 c 0
 275.716987232 9.99984620448 297.573436 31.8562949725 297.573436 58.7865622045 c 0
 297.573436 58.9809971709 297.571157472 59.2965853033 297.56835 59.491 c 2
 297.56835 419.75431 l 1
 335.504 392.62888 381.82074 376.57299 431.71784 376.57299 c 0
 559.11199 376.57299 663.43197 480.89158 663.43197 608.28574 c 0
 663.43197 735.67989 559.11199 839.99987 431.71784 839.99987 c 0
431.71784 742.4366 m 0
 506.38467 742.4366 565.86871 682.95257 565.86871 608.28574 c 0
 565.86871 533.6189 506.38467 474.13625 431.71784 474.13625 c 0
 357.051 474.13625 297.56835 533.6189 297.56835 608.28574 c 0
 297.56835 682.95257 357.051 742.4366 431.71784 742.4366 c 0
EndSplineSet
Validated: 9
Ligature2: "'liga' Standard Ligatures in Latin lookup 0 subtable" m i
EndChar

StartChar: moku
Encoding: 56 57398 56
Width: 850
Flags: W
LayerCount: 2
Fore
SplineSet
49.267773 840.18849 m 2
 22.3336187876 840.185969048 0.474015368888 818.324319544 0.474015368888 791.390165214 c 0
 0.474015368888 791.097803938 0.479165442986 790.623302402 0.48551107 790.33101 c 0
 2.3190119 706.24031 54.015135 630.23867 133.41292 578.04565 c 0
 212.81069 525.85264 314.86504 498.54083 420.53921 498.54083 c 0
 526.21339 498.54083 627.38272 525.81584 705.09526 578.40868 c 0
 782.80782 631.00151 831.78378 708.36718 829.95029 792.45788 c 0
 829.373736549 818.802097316 807.519875429 840.185410596 781.16935 840.18849 c 2
 49.267773 840.18849 l 2
110.08383 742.60179 m 1
 723.40298 742.60179 l 1
 711.57583 713.19474 687.81761 684.55028 650.39932 659.22704 c 0
 592.8496 620.27962 508.97742 596.12753 420.53921 596.12753 c 0
 332.10101 596.12753 246.87335 620.24421 187.01701 659.59144 c 0
 148.84812 684.68219 123.6378 713.35537 110.08383 742.60179 c 1
418.71994 469.44634 m 0
 335.34403 469.44634 259.02305 420.0492 206.04663 342.73466 c 0
 171.24973 291.95159 147.01102 231.23146 133.8757 165.87315 c 1
 83.770207 215.97865 l 2
 75.8385674425 224.129043838 60.1712231135 230.743856228 48.7984562655 230.743856228 c 0
 21.8617808655 230.743856228 0.000131265467267 208.882206628 0.000131265467267 181.945531228 c 0
 0.000131265467263 170.57276415 6.61494388254 154.9054196 14.765338 146.97378 c 2
 136.74941 24.9911 l 2
 144.6382167 17.1059721509 160.093131671 10.7064480994 171.24698806 10.7064480994 c 0
 197.687180497 10.7064480994 219.545047606 32.1614422309 220.03687 58.59706 c 0
 221.64749 146.27193 246.88929 229.69655 286.54768 287.57455 c 0
 326.20607 345.45255 373.77614 371.85964 418.71994 371.85964 c 0
 463.66375 371.85964 510.12363 345.72574 548.48268 288.11355 c 0
 586.84173 230.50135 610.48153 147.21397 610.39196 59.54342 c 0
 610.388821458 59.3378389689 610.386274235 59.0041227801 610.386274235 58.7985177929 c 0
 610.386274235 31.8618423929 632.247923835 10.0001927929 659.184599235 10.0001927929 c 0
 686.121274635 10.0001927929 707.982924235 31.8618423929 707.982924235 58.7985177929 c 0
 707.982924235 58.9765737817 707.981013858 59.2655795705 707.97866 59.44362 c 0
 708.08568 164.20384 681.3653 264.61671 629.71116 342.19706 c 0
 578.05703 419.7774 502.09586 469.44634 418.71994 469.44634 c 0
EndSplineSet
Validated: 41
Ligature2: "'liga' Standard Ligatures in Latin lookup 0 subtable" m o k u
EndChar

StartChar: moli
Encoding: 57 57399 57
Width: 850
Flags: W
LayerCount: 2
Fore
SplineSet
415 840 m 0
 304.95392 840 199.3645 796.26416 121.55017 718.44984 c 0
 43.735836 640.6355 0 535.04608 0 425 c 0
 0 314.95392 43.735836 209.3645 121.55017 131.55017 c 0
 199.3645 53.73584 304.95392 10 415 10 c 0
 525.04608 10 630.6355 53.73584 708.44983 131.55017 c 0
 786.26418 209.3645 830 314.95392 830 425 c 0
 830 535.04608 786.26418 640.6355 708.44983 718.44984 c 0
 630.6355 796.26416 525.04608 840 415 840 c 0
415 742.35335 m 0
 499.18598 742.35335 579.87385 708.93081 639.40233 649.40233 c 0
 698.93081 589.87385 732.35334 509.18598 732.35334 425 c 0
 732.35334 340.81402 698.93081 260.12615 639.40233 200.59767 c 0
 579.87385 141.06919 499.18598 107.64665 415 107.64665 c 0
 330.81402 107.64665 250.12615 141.06919 190.59767 200.59767 c 0
 131.06919 260.12615 97.646648 340.81402 97.646648 425 c 0
 97.646648 509.18598 131.06919 589.87385 190.59767 649.40233 c 0
 250.12615 708.93081 330.81402 742.35335 415 742.35335 c 0
219.19543 535.34661 m 0
 192.25415379 535.33461034 170.388770199 513.459485726 170.388770199 486.518206843 c 0
 170.388770199 475.129413411 177.01656275 459.443752105 185.18295 451.50557 c 2
 211.68852 425 l 1
 185.18295 398.49443 l 2
 177.015281716 390.556055465 170.386449485 374.869383599 170.386449485 363.479537443 c 0
 170.386449485 336.526256227 192.261576269 314.651129443 219.214857485 314.651129443 c 0
 230.604381593 314.651129443 246.29074432 321.279643613 254.22906 329.44692 c 2
 280.73465 355.95249 l 1
 307.2416 329.44692 l 2
 315.179886536 321.279837645 330.8660962 314.651480951 342.255460858 314.651480951 c 0
 369.208742074 314.651480951 391.083868858 336.526607735 391.083868858 363.479888951 c 0
 391.083868858 374.869571055 384.45519865 390.556085445 376.28773 398.49443 c 2
 349.78215 425 l 1
 376.28773 451.50557 l 2
 384.45519865 459.443914555 391.083868858 475.130428945 391.083868858 486.520111049 c 0
 391.083868858 513.473392265 369.208742074 535.348519049 342.255460858 535.348519049 c 0
 330.8660962 535.348519049 315.179886536 528.720162355 307.2416 520.55308 c 2
 280.73465 494.04751 l 1
 254.22906 520.55308 l 2
 246.290931401 528.719111202 230.605550992 535.346614786 219.217050158 535.346614786 c 0
 219.211082994 535.346614786 219.201397163 535.346612642 219.19543 535.34661 c 0
487.72476 535.34661 m 0
 460.783478272 535.334615853 438.918090203 513.459491236 438.918090203 486.518206839 c 0
 438.918090203 475.129413408 445.545882752 459.443752105 453.71227 451.50557 c 2
 480.21785 425 l 1
 453.71227 398.49443 l 2
 445.54480135 390.556085445 438.916131142 374.869571055 438.916131142 363.479888951 c 0
 438.916131142 336.526607735 460.791257926 314.651480951 487.744539142 314.651480951 c 0
 499.1339038 314.651480951 514.820113464 321.279837645 522.7584 329.44692 c 2
 549.26535 355.95249 l 1
 575.77094 329.44692 l 2
 583.70925568 321.279643613 599.395618407 314.651129443 610.785142515 314.651129443 c 0
 637.738423731 314.651129443 659.613550515 336.526256227 659.613550515 363.479537443 c 0
 659.613550515 374.869383599 652.984718284 390.556055465 644.81705 398.49443 c 2
 618.31148 425 l 1
 644.81705 451.50557 l 2
 652.984718284 459.443944535 659.613550515 475.130616401 659.613550515 486.520462557 c 0
 659.613550515 513.473743773 637.738423731 535.348870557 610.785142515 535.348870557 c 0
 599.395618407 535.348870557 583.70925568 528.720356387 575.77094 520.55308 c 2
 549.26535 494.04751 l 1
 522.7584 520.55308 l 2
 514.820271401 528.719111205 499.13489099 535.346614791 487.746390154 535.346614791 c 0
 487.740420231 535.346614791 487.730729922 535.346612645 487.72476 535.34661 c 0
EndSplineSet
Validated: 9
Ligature2: "'liga' Standard Ligatures in Latin lookup 0 subtable" m o l i
EndChar

StartChar: monsi
Encoding: 58 57400 58
Width: 850
Flags: W
LayerCount: 2
Fore
SplineSet
292.6912 839.29567 m 2
 265.766549187 839.292861053 243.912378947 817.438690813 243.90957 790.51404 c 2
 243.90957 58.78673 l 2
 243.912373429 31.8620736684 265.766543669 10.0078989484 292.6912 10.00509 c 2
 780.50894 10.00509 l 2
 780.703335594 10.00228308 781.018892714 10.000005 781.213308572 10.000005 c 0
 808.143578012 10.000005 830.000028572 31.85645556 830.000028572 58.786725 c 0
 830.000028572 85.71699444 808.143578012 107.573445 781.213308572 107.573445 c 0
 781.018892714 107.573445 780.703335594 107.57116692 780.50894 107.56836 c 2
 341.47284 107.56836 l 1
 341.47284 741.7324 l 1
 780.50894 741.7324 l 2
 780.703335594 741.72959308 781.018892714 741.727315 781.213308572 741.727315 c 0
 808.143578012 741.727315 830.000028572 763.58376556 830.000028572 790.514035 c 0
 830.000028572 817.44430444 808.143578012 839.300755 781.213308572 839.300755 c 0
 781.018892714 839.300755 780.703335594 839.29847692 780.50894 839.29567 c 2
 292.6912 839.29567 l 2
109.75868 534.40906 m 0
 49.718183 534.40906 0 484.69088 0 424.65038 c 0
 0 364.60988 49.718183 314.89031 109.75868 314.89031 c 0
 169.79918 314.89031 219.51875 364.60988 219.51875 424.65038 c 0
 219.51875 484.69088 169.79918 534.40907 109.75868 534.40906 c 0
109.75868 436.84579 m 0
 117.07185 436.84579 121.95409 431.96355 121.95409 424.65038 c 0
 121.95409 417.33721 117.07185 412.45497 109.75868 412.45497 c 0
 102.44551 412.45497 97.563272 417.33721 97.563272 424.65038 c 0
 97.563272 431.96355 102.44551 436.84579 109.75868 436.84579 c 0
EndSplineSet
Validated: 9
Ligature2: "'liga' Standard Ligatures in Latin lookup 0 subtable" m o n s i
EndChar

StartChar: mun
Encoding: 59 57401 59
Width: 850
Flags: W
LayerCount: 2
Fore
SplineSet
169.60995 839.99374 m 0
 169.394251869 839.997192986 169.044110734 839.999995409 168.828384966 839.999995409 c 0
 141.875115342 839.999995409 119.999997966 818.124878033 119.999997966 791.171608409 c 0
 119.999997966 777.279809808 129.182565277 759.463527001 140.4968 751.40312 c 0
 261.08485 665.54659 326.57326 546.34432 326.57326 423.70138 c 0
 326.57326 301.05845 261.22749 183.03827 140.8321 98.8317 c 0
 129.334300178 90.7841830371 120.002752496 72.8626981784 120.002752496 58.8283855832 c 0
 120.002752496 31.8751159592 141.877869872 9.99999858322 168.831139496 9.99999858322 c 0
 168.840355276 9.99999858322 168.855314222 10.0000036979 168.86453 10.00001 c 0
 306.9865 10.14147 439.40495 50.57194 539.6998 125.91088 c 0
 639.99463 201.24981 700.20456 307.81678 700.20456 421.31546 c 0
 700.20456 534.81416 640.15568 641.88238 540.07805 718.58639 c 0
 440.00041 795.2904 307.72811 837.74313 169.60995 839.99374 c 0
314.34302 721.41984 m 1
 377.14471 704.08082 434.31643 676.61838 480.67679 641.0857 c 0
 561.27802 579.30929 602.55799 500.59721 602.55799 421.31546 c 0
 602.55799 342.03372 561.43769 264.36761 481.05365 203.98518 c 0
 434.38977 168.93245 376.68125 142.22718 313.25675 125.90395 c 1
 384.22184 212.31073 424.22121 315.69423 424.22121 423.70138 c 0
 424.22121 531.23526 384.6235 634.50964 314.34302 721.41984 c 1
EndSplineSet
Validated: 9
Ligature2: "'liga' Standard Ligatures in Latin lookup 0 subtable" m u n
EndChar

StartChar: musi
Encoding: 60 57402 60
Width: 850
Flags: W
LayerCount: 2
Fore
SplineSet
170.88268 840 m 0
 77.085243 840 0 762.91476 0 669.11732 c 0
 0 592.26315 51.765717 526.66305 122.05866 505.4589 c 1
 122.05866 302.94134 l 2
 122.05866 141.73259 253.79138 10 415 10 c 0
 576.20862 10 707.94134 141.73259 707.94134 302.94134 c 2
 707.94134 505.4589 l 1
 778.23446 526.66296 830 592.26305 830 669.11732 c 0
 830 762.91476 752.91478 840 659.11732 840 c 0
 565.31988 840.00001 488.23603 762.91476 488.23603 669.11732 c 0
 488.23603 592.26255 540.00091 526.66114 610.29469 505.45752 c 1
 610.29469 302.94134 l 2
 610.29469 194.50496 523.43632 107.64665 415 107.64665 c 0
 306.56368 107.64665 219.70531 194.50496 219.70531 302.94134 c 2
 219.70531 505.45752 l 1
 289.99909 526.66115 341.76536 592.26256 341.76535 669.11732 c 0
 341.76535 762.91476 264.68011 840 170.88268 840 c 0
170.88268 742.35335 m 0
 211.90772 742.35335 244.11732 710.14236 244.11732 669.11732 c 0
 244.11732 630.0726 214.92231 599.07715 176.7394 596.16949 c 0
 175.089722681 596.373746049 172.40176196 596.539519075 170.739487677 596.539519075 c 0
 169.099912898 596.539519075 166.448385619 596.378226049 164.8209 596.17949 c 0
 126.73778 599.18172 97.646648 630.14224 97.646648 669.11762 c 0
 97.646648 710.14266 129.85764 742.35365 170.88268 742.35335 c 0
659.11732 742.35335 m 0
 700.14236 742.35335 732.35334 710.14236 732.35334 669.11732 c 0
 732.35334 630.0726 703.15696 599.07715 664.97404 596.16949 c 0
 663.324362681 596.373746049 660.63640196 596.539519075 658.974127677 596.539519075 c 0
 657.334552898 596.539519075 654.683025619 596.378226049 653.05554 596.17949 c 0
 614.97242 599.18172 585.88268 630.14224 585.88268 669.11762 c 0
 585.88268 710.14266 618.09228 742.35365 659.11732 742.35335 c 0
EndSplineSet
Validated: 41
Ligature2: "'liga' Standard Ligatures in Latin lookup 0 subtable" m u s i
EndChar

StartChar: mute
Encoding: 61 57403 61
Width: 850
Flags: W
LayerCount: 2
Fore
SplineSet
48.092153 841.40003 m 0
 21.5454641666 840.999808888 0.000325403267421 819.127404638 0.000325403267425 792.577699085 c 0
 0.000325403267425 792.387153215 0.00251185236362 792.077876825 0.00520587 791.88735 c 2
 0.00520587 59.54173 l 2
 0.00233164188 59.344934868 -1.06500000641e-06 59.0254822576 -1.06500000641e-06 58.8286661374 c 0
 -1.06500000641e-06 31.8756769294 21.874888727 10.0007871374 48.827877935 10.0007871374 c 0
 75.780867143 10.0007871374 97.655756935 31.8756769294 97.655756935 58.8286661374 c 0
 97.655756935 59.0254822576 97.6534242281 59.344934868 97.65055 59.54173 c 2
 97.65055 791.88735 l 2
 97.6532439408 792.077874109 97.6554303276 792.38714609 97.6554303276 792.577689244 c 0
 97.6554303276 819.530678452 75.7805405356 841.405568244 48.8275513276 841.405568244 c 0
 48.6245698777 841.405568244 48.2951114269 841.40308711 48.092153 841.40003 c 0
414.26427 841.40003 m 0
 387.717585102 840.99980507 366.172449532 819.127400869 366.172449532 792.577699193 c 0
 366.172449532 792.387153293 366.174635982 792.077876854 366.17733 791.88735 c 2
 366.17733 59.54173 l 2
 366.174457392 59.3449903309 366.172126 59.0256277615 366.172126 58.8288671219 c 0
 366.172126 31.8758779139 388.047015792 10.0009881219 415.000005 10.0009881219 c 0
 441.952994208 10.0009881219 463.827884 31.8758779139 463.827884 58.8288671219 c 0
 463.827884 59.0256277615 463.825552608 59.3449903309 463.82268 59.54173 c 2
 463.82268 791.88735 l 2
 463.825373942 792.077874163 463.82756033 792.387146232 463.82756033 792.577689439 c 0
 463.82756033 819.530678647 441.952670538 841.405568439 414.99968133 841.405568439 c 0
 414.796696291 841.405568439 414.467232015 841.403087219 414.26427 841.40003 c 0
780.43636 841.40003 m 0
 753.889697177 840.999783653 732.344579523 819.127379722 732.344579523 792.577699795 c 0
 732.344579523 792.387153729 732.346765977 792.077877021 732.34946 791.88735 c 2
 732.34946 59.54173 l 2
 732.346579112 59.3447070393 732.344241 59.0248845606 732.344241 58.8278405386 c 0
 732.344241 31.8748513306 754.219130792 9.99996153864 781.17212 9.99996153864 c 0
 808.125109208 9.99996153864 829.999999 31.8748513306 829.999999 58.8278405386 c 0
 829.999999 59.0248845606 829.997660888 59.3447070393 829.99478 59.54173 c 2
 829.99478 791.88735 l 2
 829.997473944 792.077874204 829.999660332 792.387146341 829.999660332 792.57768959 c 0
 829.999660332 819.530678798 808.12477054 841.40556859 781.171781332 841.40556859 c 0
 780.968793532 841.40556859 780.639324775 841.403087302 780.43636 841.40003 c 0
EndSplineSet
Validated: 9
Ligature2: "'liga' Standard Ligatures in Latin lookup 0 subtable" m u t e
EndChar

StartChar: mu
Encoding: 62 181 62
Width: 850
Flags: W
LayerCount: 2
Fore
SplineSet
146.47067 840 m 0
 66.155505 840 0 773.8445 0 693.52933 c 0
 0 624.22008 49.281619 565.49688 114.39934 550.69296 c 1
 79.852924 495.06652 61.029332 430.49537 61.029332 363.97067 c 0
 61.029332 270.11059 98.335413 180.04428 164.70451 113.67518 c 0
 231.07361 47.30608 321.13992 10 415 10 c 0
 508.86008 10 598.92639 47.30608 665.29549 113.67518 c 0
 731.66458 180.04428 768.97067 270.11059 768.97067 363.97067 c 0
 768.97067 430.49537 750.14705 495.06652 715.60067 550.69296 c 1
 780.71836 565.49687 830 624.22007 830 693.52933 c 0
 830 773.8445 763.84453 840 683.52933 840 c 0
 604.0884 840 538.54361 775.26687 537.12516 696.13694 c 1
 498.36726 710.38827 457.07579 717.94134 415 717.94134 c 0
 372.92421 717.94134 331.63274 710.38827 292.87484 696.13694 c 1
 291.45639 775.26686 225.9116 840 146.47067 840 c 0
146.47067 742.35335 m 0
 174.01345 742.35335 195.29469 721.07211 195.29469 693.52933 c 0
 195.29469 665.98654 174.01346 644.70531 146.47067 644.70531 c 0
 118.92788 644.70531 97.646648 665.98654 97.646648 693.52933 c 0
 97.646648 721.07211 118.92788 742.35335 146.47067 742.35335 c 0
683.52933 742.35335 m 0
 711.07214 742.35335 732.35334 721.07212 732.35334 693.52933 c 0
 732.35334 665.98654 711.07214 644.70531 683.52933 644.70531 c 0
 655.98654 644.70531 634.70531 665.98654 634.70531 693.52933 c 0
 634.70531 721.07212 655.98654 742.35335 683.52933 742.35335 c 0
415 620.29469 m 0
 482.99998 620.29469 548.16473 593.3019 596.24798 545.21865 c 0
 644.33123 497.1354 671.32402 431.97066 671.32402 363.97067 c 0
 671.32402 295.97068 644.33123 230.80594 596.24798 182.72269 c 0
 548.16473 134.63944 482.99998 107.64665 415 107.64665 c 0
 347.00002 107.64665 281.83527 134.63944 233.75202 182.72269 c 0
 185.66877 230.80594 158.67598 295.97068 158.67598 363.97067 c 0
 158.67598 431.97066 185.66877 497.1354 233.75202 545.21865 c 0
 281.83527 593.3019 347.00002 620.29469 415 620.29469 c 0
415 290.73465 m 0
 368.39044 290.73465 329.55866 251.90424 329.55866 205.29469 c 0
 329.55866 158.68512 368.39043 119.85334 415 119.85335 c 0
 461.60957 119.85334 500.44134 158.68512 500.44134 205.29469 c 0
 500.44134 251.90424 461.60956 290.73465 415 290.73465 c 0
415 217.5 m 0
 421.16283 217.5 427.20531 211.45751 427.20531 205.29469 c 0
 427.20531 199.13187 421.16283 193.08799 415 193.08799 c 0
 408.83717 193.08799 402.79469 199.13187 402.79469 205.29469 c 0
 402.79469 211.45751 408.83717 217.5 415 217.5 c 0
EndSplineSet
Validated: 41
Ligature2: "'liga' Standard Ligatures in Latin lookup 0 subtable" m u
EndChar

StartChar: nanpa
Encoding: 63 57404 63
Width: 850
Flags: W
LayerCount: 2
Fore
SplineSet
231.47065 840.02432 m 0
 204.965674748 839.625215949 183.454390485 817.787582617 183.454390485 791.27960274 c 0
 183.454390485 791.089226976 183.456576508 790.780226709 183.45927 790.58987 c 2
 183.45927 656.54071 l 1
 49.410105 656.54071 l 2
 49.2280527315 656.543173576 48.9325340723 656.545173 48.7504651356 656.545173 c 0
 21.8403309996 656.545173 0.000222135645068 634.705064136 0.000222135645068 607.79493 c 0
 0.000222135645068 580.884795864 21.8403309996 559.044687 48.7504651356 559.044687 c 0
 48.9325340723 559.044687 49.2280527315 559.046686424 49.410105 559.04915 c 2
 183.45927 559.04915 l 1
 183.45927 290.95082 l 1
 49.410105 290.95082 l 2
 49.2279507954 290.953286336 48.932266652 290.955288 48.7500957513 290.955288 c 0
 21.8399616153 290.955288 -0.000147248740234 269.115179136 -0.000147248740234 242.205045 c 0
 -0.000147248740234 215.294910864 21.8399616153 193.454802 48.7500957513 193.454802 c 0
 48.932266652 193.454802 49.2279507954 193.456803664 49.410105 193.45927 c 2
 183.45927 193.45927 l 1
 183.45927 59.4101 l 2
 183.456803664 59.2279457954 183.454802 58.932261652 183.454802 58.7500907513 c 0
 183.454802 31.8399566153 205.294910864 9.99984775126 232.205045 9.99984775126 c 0
 259.115179136 9.99984775126 280.955288 31.8399566153 280.955288 58.7500907513 c 0
 280.955288 58.932261652 280.953286336 59.2279457954 280.95082 59.4101 c 2
 280.95082 193.45927 l 1
 549.04915 193.45927 l 1
 549.04915 59.4101 l 2
 549.046686424 59.2280477315 549.044687 58.9325290723 549.044687 58.7504601356 c 0
 549.044687 31.8403259996 570.884795864 10.0002171356 597.79493 10.0002171356 c 0
 624.705064136 10.0002171356 646.545173 31.8403259996 646.545173 58.7504601356 c 0
 646.545173 58.9325290723 646.543173576 59.2280477315 646.54071 59.4101 c 2
 646.54071 193.45927 l 1
 780.5899 193.45927 l 2
 780.772054205 193.456803664 781.067738348 193.454802 781.249909249 193.454802 c 0
 808.160043385 193.454802 830.000152249 215.294910864 830.000152249 242.205045 c 0
 830.000152249 269.115179136 808.160043385 290.955288 781.249909249 290.955288 c 0
 781.067738348 290.955288 780.772054205 290.953286336 780.5899 290.95082 c 2
 646.54071 290.95082 l 1
 646.54071 559.04915 l 1
 780.5899 559.04915 l 2
 780.771952269 559.046686424 781.067470928 559.044687 781.249539864 559.044687 c 0
 808.159674 559.044687 829.999782864 580.884795864 829.999782864 607.79493 c 0
 829.999782864 634.705064136 808.159674 656.545173 781.249539864 656.545173 c 0
 781.067470928 656.545173 780.771952269 656.543173576 780.5899 656.54071 c 2
 646.54071 656.54071 l 1
 646.54071 790.58987 l 2
 646.543173576 790.771922269 646.545173 791.067440928 646.545173 791.249509864 c 0
 646.545173 818.159644 624.705064136 839.999752864 597.79493 839.999752864 c 0
 570.884795864 839.999752864 549.044687 818.159644 549.044687 791.249509864 c 0
 549.044687 791.067440928 549.046686424 790.771922269 549.04915 790.58987 c 2
 549.04915 656.54071 l 1
 280.95082 656.54071 l 1
 280.95082 790.58987 l 2
 280.953513589 790.780230131 280.95569969 791.089235955 280.95569969 791.279615142 c 0
 280.95569969 818.189749278 259.115590826 840.029858142 232.20545669 840.029858142 c 0
 232.002638523 840.029858142 231.673445126 840.027377054 231.47065 840.02432 c 0
280.95082 559.04915 m 1
 549.04915 559.04915 l 1
 549.04915 290.95082 l 1
 280.95082 290.95082 l 1
 280.95082 559.04915 l 1
EndSplineSet
Validated: 9
Ligature2: "'liga' Standard Ligatures in Latin lookup 0 subtable" n a n p a
EndChar

StartChar: nasa
Encoding: 64 57405 64
Width: 850
Flags: W
LayerCount: 2
Fore
SplineSet
434.15111 839.99452 m 0
 319.02667 839.99452 208.56553 794.24091 127.16027 712.83563 c 0
 45.754994 631.43036 0 520.96785 0 405.84341 c 0
 0 300.87874 41.718853 200.1613 115.94007 125.94007 c 0
 190.1613 51.71885 290.87874 10 395.84341 10 c 0
 490.64831 10 581.62344 47.6827 648.66061 114.7199 c 0
 715.69777 181.75708 753.38055 272.73081 753.38048 367.53571 c 0
 753.38048 452.18084 719.73257 533.41227 659.87942 593.26542 c 0
 600.02628 653.11855 518.79623 686.76512 434.15111 686.76512 c 0
 279.60751 686.76512 153.22939 560.38701 153.22939 405.84341 c 0
 153.22939 272.45644 262.45644 163.22939 395.84341 163.22939 c 0
 508.07376 163.22939 600.14973 255.30537 600.14973 367.53571 c 0
 600.14973 458.60943 525.22482 533.53572 434.15111 533.53572 c 0
 433.957948502 533.53836684 433.644396281 533.540515 433.451216649 533.540515 c 0
 405.254107209 533.540515 382.369496649 510.65590444 382.369496649 482.458795 c 0
 382.369496649 454.26168556 405.254107209 431.377075 433.451216649 431.377075 c 0
 433.644396281 431.377075 433.957948502 431.37922316 434.15111 431.38187 c 0
 470.01713 431.38187 497.99726 403.40174 497.99726 367.53571 c 0
 497.99726 310.51306 452.86606 265.38325 395.84341 265.38325 c 0
 317.66413 265.38325 255.38325 327.66413 255.38325 405.84341 c 0
 255.38325 505.17931 334.8152 584.61126 434.15111 584.61126 c 0
 491.74276 584.61126 546.92308 561.75597 587.64652 521.03252 c 0
 628.36997 480.30907 651.22665 425.12737 651.22665 367.53571 c 0
 651.22666 299.78429 624.33382 234.86028 576.42634 186.95278 c 0
 528.51885 139.04529 463.59484 112.15385 395.84341 112.15385 c 0
 317.93222 112.15385 243.26451 143.08144 188.17298 198.17298 c 0
 133.08144 253.26451 102.15385 327.93222 102.15385 405.84341 c 0
 102.15385 493.91437 137.11758 578.32578 199.39316 640.60136 c 0
 261.66874 702.87693 346.08015 737.84204 434.15111 737.84204 c 0
 434.35760625 737.83901504 434.692806551 737.83656 434.899324956 737.83656 c 0
 463.096434396 737.83656 485.981044956 760.72117056 485.981044956 788.91828 c 0
 485.981044956 817.11538944 463.096434396 840 434.899324956 840 c 0
 434.692806551 840 434.35760625 839.99754496 434.15111 839.99452 c 0
EndSplineSet
Validated: 41
Ligature2: "'liga' Standard Ligatures in Latin lookup 0 subtable" n a s a
EndChar

StartChar: nasin
Encoding: 65 57406 65
Width: 850
Flags: W
LayerCount: 2
Fore
SplineSet
403.17475 839.99445 m 0
 376.67229221 839.59538582 355.163051105 817.75982826 355.163051105 791.25436616 c 0
 355.163051105 791.064011534 355.16523685 790.755045574 355.16793 790.56471 c 2
 355.16793 570.28808 l 1
 68.831193 341.21758 l 2
 58.4363450366 333.138136064 49.9999466895 315.89586617 49.9999466895 302.730370415 c 0
 49.9999466895 275.822794247 71.8379795215 253.984761415 98.7455556895 253.984761415 c 0
 108.39663655 253.984761415 122.276538641 258.963138381 129.72748 265.09721 c 2
 355.16793 445.45012 l 1
 355.16793 59.45444 l 2
 355.165084992 59.2588126392 355.162776 58.9412557864 355.162776 58.7456077393 c 0
 355.162776 31.8380315713 377.000808832 9.99999873927 403.908385 9.99999873927 c 0
 430.815961168 9.99999873927 452.653994 31.8380315713 452.653994 58.7456077393 c 0
 452.653994 58.9412557864 452.651685008 59.2588126392 452.64884 59.45444 c 2
 452.64884 445.45151 l 1
 678.0907 265.09721 l 2
 685.54504052 258.952720336 699.435206644 253.965888144 709.095535097 253.965888144 c 0
 736.003111265 253.965888144 757.841144097 275.803920976 757.841144097 302.711497144 c 0
 757.841144097 315.887518992 749.393860342 333.138244112 738.9856 341.21758 c 2
 452.64884 570.28808 l 1
 452.64884 790.56471 l 2
 452.651533085 790.755043288 452.653718778 791.064005537 452.653718778 791.254357876 c 0
 452.653718778 818.161934044 430.815685946 839.999966876 403.908109778 839.999966876 c 0
 403.705691025 839.999966876 403.377145844 839.997495316 403.17475 839.99445 c 0
EndSplineSet
Validated: 9
Ligature2: "'liga' Standard Ligatures in Latin lookup 0 subtable" n a s i n
EndChar

StartChar: nena
Encoding: 66 57407 66
Width: 850
Flags: W
LayerCount: 2
Fore
SplineSet
353.7203 840 m 0
 297.78518 840 245.65298 812.86775 202.64595 770.11861 c 0
 159.63892 727.36945 123.44249 668.51698 93.086117 595.67287 c 0
 32.373394 449.98463 0.0178352 258.95839 0.00515672 59.50259 c 0
 0.00231033374761 59.3068197352 2.23165955049e-07 58.9890309182 2.23165955049e-07 58.7932399621 c 0
 2.23165955049e-07 31.8593880421 21.8593583032 10.0000299621 48.7932102232 10.0000299621 c 0
 75.7270621432 10.0000299621 97.5864202232 31.8593880421 97.5864202232 58.7932399621 c 0
 97.5864202232 58.9870986149 97.5841554832 59.3017514319 97.581365 59.49559 c 0
 97.593355 248.18536 129.5001 429.38727 183.15454 558.13822 c 0
 209.98177 622.51369 241.15446 670.81416 271.43541 700.91354 c 0
 301.71636 731.01292 328.79178 742.42389 353.7203 742.42389 c 0
 378.64881 742.42389 405.72424 731.01292 436.00518 700.91354 c 0
 466.28613 670.81416 497.45743 622.51369 524.28466 558.13822 c 0
 577.9391 429.38727 609.84723 248.18536 609.85922 59.49575 c 0
 609.856429989 59.3019278363 609.854165633 58.9873016508 609.854165633 58.7934594075 c 0
 609.854165633 31.8596074875 631.713523713 10.0002494075 658.647375633 10.0002494075 c 0
 685.581227553 10.0002494075 707.440585633 31.8596074875 707.440585633 58.7934594075 c 0
 707.440585633 58.9892339541 707.438275909 59.3069961395 707.43543 59.50275 c 0
 707.42273 258.95839 675.06719 449.98463 614.35447 595.67287 c 0
 583.99811 668.51698 547.80167 727.36945 504.79463 770.11861 c 0
 461.78761 812.86775 409.6554 840 353.7203 840 c 0
EndSplineSet
Validated: 9
Ligature2: "'liga' Standard Ligatures in Latin lookup 0 subtable" n e n a
EndChar

StartChar: nimi
Encoding: 67 57408 67
Width: 850
Flags: W
LayerCount: 2
Fore
SplineSet
173.18292 696.35954 m 0
 86.655044 696.67326 7.8245822 631.28993 1.3215763 540.70004 c 0
 1.26875570999 539.968125025 1.21544832439 538.778635745 1.2025866 538.04493 c 0
 -0.20053825 456.25761 0.94870368 375.22923 0.5855078 295.04626 c 1
 -7.635216 196.88079 71.759194 107.59684 172.70143 110.64958 c 2
 171.22791 110.62748 l 1
 642.80961 110.62748 l 1
 734.66173 102.7343 821.82598 170.15162 828.67846 265.60902 c 0
 828.731266856 266.340935349 828.784551976 267.530424629 828.7974 268.26413 c 0
 830.20053 350.05145 829.05129 431.07982 829.41449 511.2628 c 1
 837.63524 609.42823 758.24084 698.7108 657.29858 695.65806 c 2
 658.7721 695.68156 l 1
 187.17241 695.68156 l 2
 182.49476 696.08303 177.82623 696.34269 173.18292 696.35954 c 0
173.26042 598.77073 m 0
 175.61435 598.79683 177.96133 598.69113 180.29044 598.4442 c 0
 181.705114867 598.293989265 184.007852787 598.171882385 185.43048 598.17164 c 2
 658.7721 598.17164 l 2
 658.77365607 598.17163982 658.776181864 598.171639674 658.777737934 598.171639674 c 0
 659.18296798 598.171639674 659.840583626 598.18154062 660.24563 598.19374 c 0
 698.71903 599.35727 736.20235 556.46297 732.1688 517.94409 c 0
 732.029207192 516.610029692 731.910832152 514.438699132 731.90457 513.09737 c 0
 731.51906 431.88554 732.6464 351.45092 731.32205 271.88492 c 0
 728.20269 235.48278 686.73428 203.93885 649.70958 207.86479 c 0
 648.296181382 208.014481486 645.995553704 208.135970228 644.574250361 208.135970228 c 0
 644.572950301 208.135970228 644.57084006 208.135970126 644.56954 208.13597 c 2
 171.22791 208.13597 l 2
 171.22635668 208.135970179 171.223835348 208.135970325 171.222282028 208.135970325 c 0
 170.817051992 208.135970325 170.159436364 208.126069379 169.75439 208.11387 c 0
 131.28098 206.95034 93.79767 249.84603 97.831185 288.3649 c 0
 97.9707501011 289.698577185 98.0891421651 291.869285025 98.095453 293.21023 c 0
 98.480977 374.42254 97.353554 454.85762 98.67794 534.42407 c 0
 101.60105 568.53627 138.19498 598.38198 173.26042 598.77073 c 0
EndSplineSet
Validated: 37
Ligature2: "'liga' Standard Ligatures in Latin lookup 0 subtable" n i m i
EndChar

StartChar: ni
Encoding: 68 57409 68
Width: 850
Flags: W
LayerCount: 2
Fore
SplineSet
414.26611 840.17356 m 0
 387.75579634 839.77437549 366.240179457 817.932343745 366.240179457 791.419024855 c 0
 366.240179457 791.228609865 366.24236594 790.91954593 366.24506 790.72915 c 2
 366.24506 150.50061 l 1
 76.380765 343.74486 l 2
 69.4926648166 348.479554004 57.1186741902 352.322204211 48.7602502089 352.322204211 c 0
 21.8446959849 352.322204211 0.000188208939598 330.477696435 0.000188208939598 303.562142211 c 0
 0.000188208939594 288.910484444 9.98697006733 270.564453373 22.292112 262.61118 c 2
 381.40296 23.20303 l 2
 383.910489328 20.892331674 388.384047088 17.708373274 391.38858 16.09598 c 0
 397.469830804 12.730996727 408.046048253 9.99999580973 414.996208235 9.99999580973 c 0
 421.731485755 9.99999580973 432.019864785 12.574532727 437.96134 15.74673 c 0
 441.143940345 17.4003782178 445.868337785 20.7140998178 448.50687 23.14343 c 2
 807.70778 262.61118 l 2
 820.012949671 270.564449894 829.999754041 288.910495515 829.999754041 303.562174689 c 0
 829.999754041 330.477728913 808.155246265 352.322236689 781.239692041 352.322236689 c 0
 772.881250709 352.322236689 760.507238915 348.479571932 753.61913 343.74486 c 2
 463.75486 150.50061 l 1
 463.75486 790.72915 l 2
 463.757553993 790.919543592 463.759740423 791.22860373 463.759740423 791.41901638 c 0
 463.759740423 818.334570604 441.915232647 840.17907838 414.999678423 840.17907838 c 0
 414.797202081 840.17907838 414.468563427 840.176606146 414.26611 840.17356 c 0
EndSplineSet
Validated: 9
Ligature2: "'liga' Standard Ligatures in Latin lookup 0 subtable" n i
EndChar

StartChar: noka
Encoding: 69 57410 69
Width: 850
Flags: W
LayerCount: 2
Fore
SplineSet
48.051614 839.99445 m 0
 21.527123111 839.59430314 7.05691757616e-08 817.739973735 7.05691718395e-08 791.212464722 c 0
 7.05691757616e-08 791.021886915 0.00218906103419 790.71255872 0.00488621 790.522 c 2
 0.00488621 58.78245 l 2
 0.00769295110209 31.8573411454 21.862233145 10.0028035454 48.787342 10 c 2
 536.61324 10 l 2
 536.614965 9.99999977902 536.617765 9.99999959967 536.61949 9.99999959967 c 0
 536.621215 9.99999959967 536.624015 9.99999977902 536.62574 10 c 0
 630.32902 10.0226 707.32275 87.03675 707.32275 180.73997 c 0
 707.32275 274.44318 630.32902 351.45595 536.62574 351.47855 c 0
 536.624015 351.478550221 536.621215 351.4785504 536.61949 351.4785504 c 0
 536.617765 351.4785504 536.614965 351.478550221 536.61324 351.47855 c 2
 341.48344 351.47855 l 1
 341.48344 790.522 l 2
 341.485863832 790.702647071 341.487831 790.995884498 341.487831 791.176547829 c 0
 341.487831 818.107267701 319.631014872 839.964083829 292.700295 839.964083829 c 0
 265.769575128 839.964083829 243.912759 818.107267701 243.912759 791.176547829 c 0
 243.912759 790.995884498 243.914726168 790.702647071 243.91715 790.522 c 2
 243.91715 302.69609 l 2
 243.91995674 275.77098434 265.77449434 253.91644674 292.6996 253.91364 c 2
 536.61324 253.91364 l 2
 577.59133 253.89794 609.75782 221.71964 609.75782 180.73997 c 0
 609.75782 139.76029 577.59133 107.58066 536.61324 107.5649 c 2
 97.569791 107.5649 l 1
 97.569791 790.522 l 2
 97.5724881024 790.712557076 97.5746770551 791.021882602 97.5746770551 791.212458764 c 0
 97.5746770551 818.143178636 75.7178609271 839.999994764 48.7871410551 839.999994764 c 0
 48.5841240513 839.999994764 48.2546079306 839.99751071 48.051614 839.99445 c 0
EndSplineSet
Validated: 9
Ligature2: "'liga' Standard Ligatures in Latin lookup 0 subtable" n o k a
EndChar

StartChar: olin
Encoding: 70 57411 70
Width: 850
Flags: W
LayerCount: 2
Fore
SplineSet
195.45576 840 m 0
 146.17288 840 100.76704 827.21829 64.694379 803.16987 c 0
 28.621713 779.12144 0 740.20102 0 693.40818 c 0
 0 643.32263 32.630982 604.47167 66.802692 580.74131 c 0
 100.97441 557.01095 140.01376 541.41346 176.66173 526.14348 c 0
 213.30968 510.8735 247.56622 495.93103 268.36644 481.48643 c 0
 289.16667 467.04184 293.18364 460.08287 293.18364 449.08848 c 0
 293.281279094 442.20122559 296.109870454 431.74416639 299.49746 425.74683 c 0
 300.161297981 424.571534303 301.331361981 422.722356063 302.10921 421.6192 c 0
 302.887085976 420.515925136 304.235964696 418.792603536 305.1201 417.7725 c 0
 309.631272547 412.567619897 318.530738787 406.391451577 324.98498 403.98641 c 0
 326.250080021 403.515213289 328.336626581 402.854794089 329.64245 402.51226 c 0
 333.009643117 401.628456008 338.567799549 400.911165812 342.049049179 400.911165812 c 0
 343.985425523 400.911165812 347.112416611 401.135629128 349.02894 401.4122 c 0
 350.364988508 401.605080399 352.512601948 402.025631439 353.82272 402.35093 c 0
 355.132688013 402.676339121 357.227338893 403.309349681 358.49828 403.7639 c 0
 361.046908936 404.674778295 364.995719816 406.549497015 367.31259 407.94854 c 0
 368.468041467 408.646460822 370.282324987 409.870105622 371.36233 410.67989 c 0
 373.528143158 412.303743102 376.746754358 415.262545662 378.54673 417.28436 c 0
 379.444088776 418.292270964 380.815394376 419.996902004 381.60768 421.08934 c 0
 385.65199316 426.665483287 389.64503956 436.736263447 390.52073 443.56876 c 0
 390.714978167 445.086086396 390.890052087 447.558920956 390.91152 449.08848 c 0
 390.91152 460.08287 394.92849 467.04184 415.72872 481.48643 c 0
 436.52894 495.93103 470.78549 510.8735 507.43344 526.14348 c 0
 544.0814 541.41346 583.12076 557.01095 617.29247 580.74131 c 0
 651.46419 604.47167 684.09516 643.32263 684.09516 693.40818 c 0
 684.09516 740.20102 655.47345 779.12144 619.40079 803.16987 c 0
 583.32813 827.21829 537.92228 840 488.6394 840 c 0
 439.35652 840 393.95068 827.21829 357.87802 803.16987 c 0
 352.39399 799.51385 347.11282 795.47438 342.04758 791.15553 c 1
 336.98234 795.47438 331.70117 799.51385 326.21714 803.16987 c 0
 290.14448 827.21829 244.73864 840 195.45576 840 c 0
195.45576 742.27212 m 0
 227.13332 742.27212 255.02418 733.17721 272.00732 721.85512 c 0
 288.99046 710.53304 293.18364 700.58899 293.18364 693.40818 c 0
 293.559959816 666.814267379 315.451004936 645.230802063 342.04758 645.230802063 c 0
 368.644155064 645.230802063 390.535200184 666.814267379 390.91152 693.40818 c 0
 390.91152 700.58899 395.1047 710.53304 412.08784 721.85512 c 0
 429.07098 733.17721 456.96185 742.27212 488.6394 742.27212 c 0
 520.31696 742.27212 548.20782 733.17721 565.19096 721.85512 c 0
 582.1741 710.53304 586.36729 700.58899 586.36729 693.40818 c 0
 586.36729 682.41379 582.35031 675.45622 561.55009 661.01162 c 0
 540.74987 646.56702 506.49332 631.62457 469.84537 616.35457 c 0
 433.19741 601.0846 394.15805 585.48711 359.98633 561.75675 c 0
 353.89627 557.52754 347.86375 552.79632 342.04758 547.62854 c 1
 336.23142 552.79632 330.19889 557.52754 324.10883 561.75675 c 0
 289.93712 585.48711 250.89775 601.0846 214.24979 616.35457 c 0
 177.60184 631.62457 143.3453 646.56702 122.54507 661.01162 c 0
 101.74486 675.45622 97.727882 682.41379 97.727882 693.40818 c 0
 97.727882 700.58899 101.92106 710.53304 118.9042 721.85512 c 0
 135.88735 733.17721 163.77821 742.27212 195.45576 742.27212 c 0
195.45576 424.65652 m 0
 146.17288 424.65652 100.76704 411.87479 64.694379 387.82637 c 0
 28.621713 363.77795 0 324.85754 0 278.06469 c 0
 0 253.63272 10.370148 230.50105 23.968868 214.23116 c 0
 37.567574 197.96128 53.68274 186.76807 70.493631 177.1952 c 0
 104.11541 158.04946 142.20775 145.06396 178.29859 131.52989 c 0
 214.38943 117.99583 248.24764 103.88137 268.74611 89.93101 c 0
 289.24459 75.98066 293.18364 69.17135 293.18364 58.17696 c 0
 293.202684945 56.8272931317 293.342868625 54.6435440117 293.49655 53.30252 c 0
 293.650322731 51.9615067334 294.007947691 49.8026843334 294.29482 48.48372 c 0
 294.581655206 47.1645194 295.152976166 45.05180068 295.57009 43.76783 c 0
 295.987231872 42.4840524442 296.766653312 40.4392415642 297.30987 39.20352 c 0
 298.399212347 36.7257599265 300.549316667 32.9196236065 302.10921 30.70768 c 0
 302.887085976 29.6044051359 304.235964696 27.8810835359 305.1201 26.86098 c 0
 306.004111643 25.8408998628 307.518091803 24.2608755428 308.49952 23.33414 c 0
 310.467550015 21.4761686161 313.929765695 18.8077014161 316.22768 17.37774 c 0
 317.37369013 16.6643114337 319.28703989 15.6020317537 320.49855 15.00658 c 0
 322.927949549 13.8133490267 327.024416749 12.2875327067 329.64245 11.60074 c 0
 333.009286386 10.7171333444 338.566832602 10.000003305 342.047687091 10.000003305 c 0
 342.632514083 10.000003305 343.581352506 10.0205739844 344.16563 10.04592 c 0
 346.869574384 10.1631059062 351.195950704 10.7873894262 353.82272 11.43941 c 0
 359.129622174 12.7569365335 366.987367454 16.4883106135 371.36233 19.76837 c 0
 372.44258241 20.5781742173 374.12603201 21.9768929373 375.12003 22.89051 c 0
 376.113902677 23.8042980532 377.649064277 25.3643818932 378.54673 26.37284 c 0
 379.444088776 27.3807509641 380.815394376 29.0853820041 381.60768 30.17782 c 0
 382.400411028 31.2706051839 383.595397268 33.1042064639 384.27506 34.27068 c 0
 385.637149673 36.6094783896 387.448946793 40.5875705496 388.31925 43.15035 c 0
 389.190152724 45.713278613 390.176415764 49.972360853 390.52073 52.65723 c 0
 390.692017209 53.9962191166 390.860863929 56.1781000766 390.89762 57.5275 c 0
 390.902647809 57.706725461 390.908875009 57.997683541 390.91152 58.17696 c 0
 390.91152 69.17135 394.85058 75.98066 415.34906 89.93101 c 0
 435.84753 103.88137 469.70573 117.99583 505.79657 131.52989 c 0
 541.88742 145.06396 579.97975 158.04946 613.60154 177.1952 c 0
 630.41242 186.76807 646.52759 197.96128 660.1263 214.23116 c 0
 673.72501 230.50105 684.09516 253.63272 684.09516 278.06469 c 0
 684.09516 324.85754 655.47345 363.77795 619.40079 387.82637 c 0
 583.32813 411.87479 537.92228 424.65652 488.6394 424.65652 c 0
 439.35652 424.65652 393.95068 411.87479 357.87802 387.82637 c 0
 352.39399 384.17037 347.11282 380.1309 342.04758 375.81204 c 1
 336.98234 380.1309 331.70117 384.17037 326.21714 387.82637 c 0
 290.14448 411.87479 244.73864 424.65652 195.45576 424.65652 c 0
195.45576 326.92864 m 0
 227.13332 326.92864 255.02418 317.83372 272.00732 306.51164 c 0
 288.99046 295.18955 293.18364 285.2455 293.18364 278.06469 c 0
 293.559959816 251.470777379 315.451004936 229.887312063 342.04758 229.887312063 c 0
 368.644155064 229.887312063 390.535200184 251.470777379 390.91152 278.06469 c 0
 390.91152 285.2455 395.1047 295.18955 412.08784 306.51164 c 0
 429.07098 317.83372 456.96185 326.92864 488.6394 326.92864 c 0
 520.31696 326.92864 548.20782 317.83372 565.19096 306.51164 c 0
 582.04641 295.27468 586.2917 285.40234 586.35476 278.23436 c 0
 586.23343 278.14776 586.10822 278.06382 585.14067 276.90623 c 0
 582.70591 273.99321 575.9161 268.19769 565.24103 262.11882 c 0
 543.89087 249.9611 508.68729 236.98764 471.48223 223.03574 c 0
 434.27716 209.08384 394.83946 194.18534 360.366 170.72424 c 0
 354.13895 166.48639 347.97707 161.72431 342.04758 156.49867 c 1
 336.11809 161.72431 329.95621 166.48639 323.72917 170.72424 c 0
 289.25571 194.18534 249.818 209.08384 212.61294 223.03574 c 0
 175.40787 236.98764 140.2043 249.9611 118.85413 262.11882 c 0
 108.17906 268.19769 101.38925 273.99321 98.954487 276.90623 c 0
 97.986949 278.06382 97.861739 278.14773 97.740396 278.23436 c 0
 97.803466 285.40234 102.04875 295.27468 118.9042 306.51164 c 0
 135.88735 317.83372 163.77821 326.92864 195.45576 326.92864 c 0
EndSplineSet
Validated: 9
Ligature2: "'liga' Standard Ligatures in Latin lookup 0 subtable" o l i n
EndChar

StartChar: ona
Encoding: 71 57412 71
Width: 850
Flags: W
LayerCount: 2
Fore
SplineSet
598.28587 473.43204 m 0
 470.89169 473.43204 366.57308 369.11205 366.57308 241.71787 c 0
 366.57308 191.82077 382.62897 145.50402 409.75442 107.56836 c 1
 49.491036 107.56836 l 2
 49.2965830737 107.571168576 48.9809328776 107.573448 48.7864596695 107.573448 c 0
 21.8561885735 107.573448 -0.000263330502143 85.716996096 -0.000263330502143 58.786725 c 0
 -0.000263330502143 31.856453904 21.8561885735 10.000002 48.7864596695 10.000002 c 0
 48.9809328776 10.000002 49.2965830737 10.002281424 49.491036 10.00509 c 2
 598.28587 10.00509 l 2
 725.68003 10.00509 830 114.32369 830 241.71787 c 0
 830 369.11205 725.68003 473.43204 598.28587 473.43204 c 0
598.28587 375.86876 m 0
 672.95271 375.86876 732.43676 316.38472 732.43676 241.71787 c 0
 732.43676 167.05103 672.95271 107.56836 598.28587 107.56836 c 0
 523.61902 107.56836 464.13636 167.05103 464.13636 241.71787 c 0
 464.13636 316.38472 523.61902 375.86876 598.28587 375.86876 c 0
EndSplineSet
Validated: 9
Ligature2: "'liga' Standard Ligatures in Latin lookup 0 subtable" o n a
EndChar

StartChar: open
Encoding: 72 57413 72
Width: 850
Flags: W
LayerCount: 2
Fore
SplineSet
48.656926 839.40271 m 0
 22.1505854672 839.003585467 0.638193150749 817.164827333 0.638193150749 790.655482022 c 0
 0.638193150749 790.465095416 0.640379309773 790.15607755 0.64307297 789.96571 c 2
 0.64307297 310.4424 l 2
 0.288096413536 308.278564918 -5.01855605592e-07 304.742778678 -5.01855609514e-07 302.55002 c 0
 -5.01855605592e-07 300.357261322 0.288096413536 296.821475082 0.64307297 294.65764 c 2
 0.64307297 58.74829 l 2
 0.645536533809 31.8416985712 22.4847695712 10.0024646512 49.391361 10 c 2
 780.60881 10 l 2
 807.515369402 10.0024966749 829.354576442 31.8417305949 829.35704 58.74829 c 2
 829.35704 294.53293 l 2
 829.711953623 296.696577116 829.999999462 300.232051996 829.999999462 302.424615 c 0
 829.999999462 304.617178004 829.711953623 308.152652884 829.35704 310.3163 c 2
 829.35704 789.96571 l 2
 829.359890528 790.161541374 829.362204 790.479429425 829.362204 790.675281544 c 0
 829.362204 817.586801752 807.520970208 839.428035544 780.60945 839.428035544 c 0
 753.697929792 839.428035544 731.856696 817.586801752 731.856696 790.675281544 c 0
 731.856696 790.479429425 731.859009472 790.161541374 731.86186 789.96571 c 2
 731.86186 351.23526 l 1
 98.138265 351.23526 l 1
 98.138265 789.96571 l 2
 98.1409585948 790.156075239 98.1431447007 790.465089352 98.1431447007 790.655473646 c 0
 98.1431447007 817.566993854 76.3019109087 839.408227646 49.3903907007 839.408227646 c 0
 49.1879429872 839.408227646 48.8593508013 839.405755741 48.656926 839.40271 c 0
98.138265 253.74007 m 1
 731.86186 253.74007 l 1
 731.86186 107.4952 l 1
 98.138265 107.4952 l 1
 98.138265 253.74007 l 1
EndSplineSet
Validated: 9
Ligature2: "'liga' Standard Ligatures in Latin lookup 0 subtable" o p e n
EndChar

StartChar: oo
Encoding: 73 57414 73
Width: 708
Flags: W
LayerCount: 2
Fore
SplineSet
329.02618 839.99448 m 0
 302.500926223 839.595072753 280.973184028 817.740733575 280.973184028 791.212472907 c 0
 280.973184028 791.021898362 280.975372943 790.71257546 280.97807 790.52202 c 2
 280.97807 302.6961 l 2
 280.975261976 302.501664558 280.972983 302.186042748 280.972983 301.991587031 c 0
 280.972983 275.060866607 302.829799576 253.204050031 329.76052 253.204050031 c 0
 356.691240424 253.204050031 378.548057 275.060866607 378.548057 301.991587031 c 0
 378.548057 302.186042748 378.545778024 302.501664558 378.54297 302.6961 c 2
 378.54297 790.52202 l 2
 378.545667009 790.712573789 378.547855886 791.021893979 378.547855886 791.212466854 c 0
 378.547855886 818.143187278 356.69103931 840.000003854 329.760318886 840.000003854 c 0
 329.557685082 840.000003854 329.228790861 839.997529167 329.02618 839.99448 c 0
329.76053 229.52243 m 0
 269.71901 229.52243 220 179.80203 220 119.76053 c 0
 220 59.71901 269.71901 10 329.76053 10 c 0
 389.80203 10 439.52243 59.71902 439.52243 119.76053 c 0
 439.52243 179.80203 389.80203 229.52243 329.76053 229.52243 c 0
329.76053 131.95613 m 0
 337.07382 131.95613 341.95613 127.07382 341.95613 119.76053 c 0
 341.95613 112.44723 337.07382 107.56491 329.76053 107.56491 c 0
 322.44722 107.56491 317.56491 112.44722 317.56491 119.76053 c 0
 317.56491 127.07382 322.44722 131.95613 329.76053 131.95613 c 0
EndSplineSet
Validated: 521
Ligature2: "'liga' Standard Ligatures in Latin lookup 0 subtable" o exclam
Ligature2: "'liga' Standard Ligatures in Latin lookup 0 subtable" o space
Ligature2: "'liga' Standard Ligatures in Latin lookup 0 subtable" o o
Ligature2: "'liga' Standard Ligatures in Latin lookup 0 subtable" o period
Ligature2: "'liga' Standard Ligatures in Latin lookup 0 subtable" o comma
Ligature2: "'liga' Standard Ligatures in Latin lookup 0 subtable" o colon
Ligature2: "'liga' Standard Ligatures in Latin lookup 0 subtable" o nonmarkingreturn
Ligature2: "'liga' Standard Ligatures in Latin lookup 0 subtable" o nbspace
EndChar

StartChar: pakala
Encoding: 74 57415 74
Width: 850
Flags: W
LayerCount: 2
Fore
SplineSet
415.54468 841.25933 m 0
 413.325806803 841.258827523 409.748468563 840.963514883 407.55955 840.60015 c 2
 48.823934 840.60015 l 2
 21.8763519406 840.597684379 0.00322950857795 818.725181979 0 791.7776 c 2
 0 59.4241 l 2
 0.0032295085668 32.4765180213 21.8763519406 10.6040156213 48.823934 10.60155 c 2
 407.15849 10.60155 l 2
 409.254326487 10.2694896242 412.677481047 9.99999134821 414.79946 9.99999134821 c 0
 416.921438953 9.99999134821 420.344593513 10.2694896242 422.44043 10.60155 c 2
 781.17602 10.60155 l 2
 808.123627446 10.603990237 829.996770486 32.476492637 830 59.4241 c 2
 830 791.7776 l 2
 829.996770486 818.725207363 808.123627446 840.597709763 781.17602 840.60015 c 2
 422.84149 840.60015 l 2
 420.841258258 840.933601339 417.572287378 841.228913979 415.54468 841.25933 c 0
97.646482 742.95367 m 1
 347.26029 742.95367 l 1
 246.62319 441.03961 l 2
 245.241252244 436.891824597 244.119679573 429.977263334 244.119679573 425.605321464 c 0
 244.119679573 398.656035093 265.991563924 376.780911237 292.94085 376.77692 c 2
 469.31874 376.77692 l 1
 379.81004 108.24804 l 1
 97.646482 108.24804 l 1
 97.646482 742.95367 l 1
450.18995 742.95367 m 1
 732.35347 742.95367 l 1
 732.35347 108.24804 l 1
 482.7397 108.24804 l 1
 583.37679 410.16209 l 2
 584.758729595 414.309877937 585.880303759 421.224443681 585.880303759 425.596388536 c 0
 585.880303759 452.545671227 564.008422395 474.420795083 537.05914 474.42479 c 2
 360.67986 474.42479 l 1
 450.18995 742.95367 l 1
EndSplineSet
Validated: 9
Ligature2: "'liga' Standard Ligatures in Latin lookup 0 subtable" p a k a l a
EndChar

StartChar: palisa
Encoding: 75 57416 75
Width: 850
Flags: W
LayerCount: 2
Fore
SplineSet
270.89466 840 m 0
 177.10636 840 100.02261 762.9353 100 669.14692 c 0
 99.9999997792 669.145195 99.9999996 669.142395 99.9999996 669.14067 c 0
 99.9999996 669.138945 99.9999997792 669.136145 100 669.13442 c 2
 100 180.86555 l 2
 99.9999997792 180.863825 99.9999996 180.861025 99.9999996 180.8593 c 0
 99.9999996 180.857575 99.9999997792 180.854775 100 180.85305 c 0
 100.02263 87.06471 177.10636 10 270.89466 10 c 0
 364.68297 10 441.76671 87.06471 441.78932 180.85308 c 0
 441.789320221 180.854805 441.7893204 180.857605 441.7893204 180.85933 c 0
 441.7893204 180.861055 441.789320221 180.863855 441.78932 180.86558 c 2
 441.78932 669.13444 l 2
 441.789320221 669.136165 441.7893204 669.138965 441.7893204 669.14069 c 0
 441.7893204 669.142415 441.789320221 669.145215 441.78932 669.14694 c 0
 441.76671 762.9353 364.68297 840 270.89466 840 c 0
270.89466 742.34512 m 0
 311.91529 742.34512 344.12455 710.14401 344.13444 669.12336 c 2
 344.13444 180.87666 l 2
 344.12444 139.85601 311.91529 107.65489 270.89466 107.65489 c 0
 229.87776 107.65489 197.66926 139.85027 197.6535 180.86557 c 2
 197.6535 669.12336 l 2
 197.6635 710.14401 229.87402 742.34512 270.89466 742.34512 c 0
EndSplineSet
Validated: 9
Ligature2: "'liga' Standard Ligatures in Latin lookup 0 subtable" p a l i s a
EndChar

StartChar: pali
Encoding: 76 57417 76
Width: 850
Flags: W
LayerCount: 2
Fore
SplineSet
475.87143 840 m 0
 348.47138 840 244.14625 735.67486 244.14625 608.27481 c 0
 244.14624 537.38713 276.47313 473.67522 327.07449 431.07255 c 1
 289.34387 410.36924 254.83124 382.10158 225.44571 347.40066 c 0
 199.13162 316.32676 177.63177 281.13688 161.11968 243.27645 c 1
 95.291135 440.76209 l 2
 89.3286087444 459.545105912 68.4956262645 474.789292739 48.7889419646 474.789292739 c 0
 21.8574294206 474.789292739 -3.00354226042e-05 452.931833283 -3.00354226042e-05 426.000320739 c 0
 -3.00354226081e-05 421.431116216 1.22307834525 414.221949165 2.7301226 409.90843 c 2
 124.69075 44.02793 l 2
 130.837003129 25.629852336 151.568221217 10.6980791594 170.965790376 10.6980791594 c 0
 197.522055695 10.6980791594 219.377363687 32.248868656 219.74996 58.80252 c 0
 220.89627 144.52172 250.57782 226.10129 299.90304 284.34867 c 0
 349.22825 342.59604 412.84928 373.0045 477.80325 373.0045 c 0
 542.75721 373.0045 605.80174 342.67613 654.3782 284.58131 c 0
 702.95465 226.48651 731.75524 145.03827 731.98737 59.32183 c 0
 731.985764115 59.1747840273 731.984460789 58.9360935926 731.984460789 58.7890388513 c 0
 731.984460789 31.8575263073 753.841920245 10.0000668513 780.773432789 10.0000668513 c 0
 807.704945333 10.0000668513 829.562404789 31.8575263073 829.562404789 58.7890388513 c 0
 829.562404789 59.0091031409 829.559486163 59.3662850955 829.55589 59.58632 c 0
 829.26576 166.70426 794.12023 269.56139 729.22884 347.16802 c 0
 699.56919 382.63932 664.46186 411.36825 625.98396 432.21363 c 1
 675.82155 474.80916 707.59524 538.00939 707.59524 608.27481 c 0
 707.59524 735.67486 603.27149 840.00001 475.87143 840 c 0
475.87143 742.4315 m 0
 550.54172 742.4315 610.02812 682.9451 610.02812 608.27481 c 0
 610.02813 533.60453 550.54172 474.11951 475.87143 474.11951 c 0
 401.20115 474.11951 341.71474 533.60453 341.71474 608.27481 c 0
 341.71474 682.9451 401.20115 742.4315 475.87143 742.4315 c 0
EndSplineSet
Validated: 41
Ligature2: "'liga' Standard Ligatures in Latin lookup 0 subtable" p a l i
EndChar

StartChar: pana
Encoding: 77 57418 77
Width: 850
Flags: W
LayerCount: 2
Fore
SplineSet
413.95276 839.99448 m 0
 387.450202766 839.59541695 365.940880954 817.759779623 365.940880954 791.254218107 c 0
 365.940880954 791.063860183 365.943066766 790.754888871 365.94576 790.56455 c 2
 365.94576 668.71332 l 2
 365.942913336 668.517635365 365.940603 668.19998553 365.940603 668.00428019 c 0
 365.940603 641.096605766 387.778715576 619.25849319 414.68639 619.25849319 c 0
 441.594064424 619.25849319 463.432177 641.096605766 463.432177 668.00428019 c 0
 463.432177 668.19998553 463.429866664 668.517635365 463.42702 668.71332 c 2
 463.42702 790.56455 l 2
 463.429713168 790.754886561 463.431898928 791.063854124 463.431898928 791.254209738 c 0
 463.431898928 818.161884162 441.593786352 839.999996738 414.686111928 839.999996738 c 0
 414.483695342 839.999996738 414.155153678 839.997525239 413.95276 839.99448 c 0
110.78502 803.35986 m 0
 110.498870736 803.365948166 110.03434401 803.370889287 109.748129987 803.370889287 c 0
 82.8404555631 803.370889287 61.0023429871 781.532776711 61.0023429871 754.625102287 c 0
 61.0023429871 748.072155461 63.4477061929 738.031018437 66.460743 732.21185 c 2
 127.38636 610.35923 l 2
 134.730531645 595.155180166 154.39470911 582.81566146 171.27961327 582.81566146 c 0
 198.187287694 582.81566146 220.02540027 604.653774036 220.02540027 631.56144846 c 0
 220.02540027 638.107818057 217.584669269 648.140003707 214.57734 653.95472 c 2
 153.65033 775.80734 l 2
 146.481735648 790.665182438 127.278076768 803.008711398 110.78502 803.35986 c 0
721.9934 803.31406 m 0
 721.340307182 803.345819458 720.279588132 803.37159525 719.62572355 803.37159525 c 0
 702.731951638 803.37159525 683.063285087 791.022777538 675.72245 775.80727 c 2
 614.79545 653.95468 l 2
 611.788120731 648.139963707 609.34738973 638.107778057 609.34738973 631.56140846 c 0
 609.34738973 604.653734036 631.185502306 582.81562146 658.09317673 582.81562146 c 0
 674.97808089 582.81562146 694.642258355 595.155140166 701.98643 610.35919 c 2
 762.91203 732.21181 l 2
 765.925311737 738.031169329 768.370873726 748.072690261 768.370873726 754.625919222 c 0
 768.370873726 780.256553156 747.593765497 802.068876064 721.9934 803.31406 c 0
420.96905 588.17977 m 0
 331.40823 588.17977 256.3595 520.66878 204.86898 421.80475 c 0
 171.81274 358.33536 148.35024 282.77153 135.01228 201.27516 c 1
 89.684881 269.26556 l 2
 81.73395108 281.567219484 63.3932280452 291.551175006 48.7457670829 291.551175006 c 0
 21.8380926589 291.551175006 -1.99171264939e-05 269.71306243 -1.99171264939e-05 242.805388006 c 0
 -1.99171264978e-05 234.449330472 3.84157287775 222.078864165 8.574964 215.19274 c 2
 130.42619 32.4145 l 2
 138.414892236 20.4392439526 156.581659809 10.7201955663 170.977010475 10.7201955663 c 0
 197.326520603 10.7201955663 219.15983623 32.1006077926 219.71209 58.44433 c 0
 222.2226 180.01851 249.2698 296.02496 291.32702 376.77663 c 0
 333.38423 457.52829 382.52226 490.69712 420.96905 490.69712 c 0
 459.41584 490.69712 506.68481 458.13996 546.4836 377.67998 c 0
 586.28241 297.22002 610.32336 181.29078 609.651 59.7204 c 0
 609.645620047 59.4514031458 609.641253708 59.0147269116 609.641253708 58.7456762631 c 0
 609.641253708 31.8380018391 631.479366284 9.99988926307 658.387040708 9.99988926307 c 0
 685.294715132 9.99988926307 707.132827708 31.8380018391 707.132827708 58.7456762631 c 0
 707.132827708 58.8659466973 707.131955135 59.0611643714 707.13088 59.18143 c 0
 707.87395 193.53852 682.90674 321.74566 633.86025 420.90139 c 0
 584.81376 520.05711 510.52986 588.17977 420.96905 588.17977 c 0
EndSplineSet
Validated: 41
Ligature2: "'liga' Standard Ligatures in Latin lookup 0 subtable" p a n a
EndChar

StartChar: pan
Encoding: 78 57419 78
Width: 850
Flags: W
LayerCount: 2
Fore
SplineSet
539.04188 839.97569 m 0
 538.659369803 839.98656077 538.038358344 839.995383423 537.655693707 839.995383423 c 0
 523.948832668 839.995383423 506.276503327 831.00220749 498.20853 819.92133 c 2
 354.27553 628.01251 l 1
 210.34391 819.92133 l 2
 202.276061974 831.004681995 184.602270571 839.999866223 170.893482761 839.999866223 c 0
 143.958375041 839.999866223 122.097997761 818.139488943 122.097997761 791.204381223 c 0
 122.097997761 782.01226716 126.658746284 768.648175732 132.27824 761.37382 c 2
 315.24339 517.41983 l 2
 323.324003922 506.648405269 340.810711762 497.9063794 354.27622 497.9063794 c 0
 367.741728238 497.9063794 385.228436078 506.648405269 393.30905 517.41983 c 2
 576.2728 761.37382 l 2
 581.89040134 768.647453869 586.449614021 782.009556935 586.449614021 791.199942916 c 0
 586.449614021 817.379601844 565.21094918 839.231136538 539.04188 839.97569 c 0
109.81305 595.97737 m 0
 82.8908001279 595.964518288 61.0408582027 574.104143499 61.0408582027 547.18189056 c 0
 61.0408582027 535.801755478 67.6632147199 520.127610587 75.822904 512.19496 c 2
 319.7755 268.24097 l 2
 327.664270434 260.353840156 343.120283874 253.952691296 354.27553 253.952691296 c 0
 365.430776126 253.952691296 380.886789566 260.353840156 388.77556 268.24097 c 2
 632.72953 512.19496 l 2
 640.895587336 520.128566497 647.52311213 535.807734204 647.52311213 547.193102202 c 0
 647.52311213 574.128209922 625.66273485 595.988587202 598.72762713 595.988587202 c 0
 587.342256831 595.988587202 571.663086917 589.361060135 563.72948 581.195 c 2
 354.27553 371.74105 l 1
 144.82296 581.195 l 2
 136.89028207 589.354871144 121.215993688 595.977375261 109.835709147 595.977375261 c 0
 109.829455222 595.977375261 109.819303924 595.977372904 109.81305 595.97737 c 0
48.253363 351.96519 m 0
 21.617503141 351.669248505 -6.30974760833e-06 329.810220392 -6.3097476044e-06 303.172716534 c 0
 -6.30974760833e-06 289.991844977 8.44699395702 272.73040205 18.854905 264.64271 c 2
 323.79634 20.69012 l 2
 331.173760058 14.7891722849 344.828434938 9.99999732764 354.275525 9.99999732764 c 0
 363.722615062 9.99999732764 377.377289942 14.7891722849 384.75471 20.69012 c 2
 689.69614 264.64271 l 2
 700.107654355 272.730373603 708.55757905 289.994088622 708.55757905 303.177788168 c 0
 708.55757905 330.112895888 686.69720177 351.973273168 659.76209405 351.973273168 c 0
 650.096828572 351.973273168 636.197940358 346.985862469 628.73779 340.84066 c 2
 354.27553 121.27086 l 1
 79.814651 340.84066 l 2
 72.3554125293 346.983069142 58.4592769224 351.968212793 48.7964911632 351.968212793 c 0
 48.6465831469 351.968212793 48.4032617298 351.966858582 48.253363 351.96519 c 0
EndSplineSet
Validated: 9
Ligature2: "'liga' Standard Ligatures in Latin lookup 0 subtable" p a n
EndChar

StartChar: pilin
Encoding: 79 57420 79
Width: 850
Flags: W
LayerCount: 2
Fore
SplineSet
232.10364 839.99999 m 0
 166.25115 839.99999 105.26026 804.65212 63.44226 748.89482 c 0
 21.624254 693.13752 0 621.31961 0 546.81645 c 0
 0 473.52056 29.669657 413.66026 69.806247 369.06405 c 0
 109.94284 324.46784 159.1886 292.38003 204.99853 261.84007 c 0
 250.80847 231.30011 293.18254 202.30803 321.76085 170.55436 c 0
 350.33917 138.80068 366.47942 107.04115 366.47942 58.17721 c 0
 366.855739758 31.5833055999 388.746778158 9.99984695643 415.343345 9.99984695643 c 0
 441.939911842 9.99984695643 463.830950242 31.5833055999 464.20727 58.17721 c 0
 464.20727 107.04115 480.34754 138.80068 508.92585 170.55436 c 0
 537.50416 202.30803 579.87823 231.30011 625.68817 261.84007 c 0
 671.49811 292.38003 720.74389 324.46784 760.88049 369.06405 c 0
 801.01702 413.66026 830.68669 473.52056 830.68669 546.81645 c 0
 830.68669009 546.817554 830.686690164 546.819346 830.686690164 546.82045 c 0
 830.686690164 546.821554 830.68669009 546.823346 830.68669 546.82445 c 0
 830.67389 621.3168 809.04376 693.12045 767.22644 748.86429 c 0
 725.4092 804.60813 664.42592 839.94521 598.58307 839.94521 c 0
 532.7402 839.94521 471.75692 804.60813 429.93965 748.86429 c 0
 424.76885 741.97143 419.9112 734.82882 415.36042 727.47016 c 1
 410.80502 734.83991 405.94213 741.99202 400.76502 748.89483 c 0
 358.94702 804.65214 297.95612 840 232.10364 839.99999 c 0
232.10364 742.27214 m 0
 263.44754 742.27214 295.6725 726.1384 322.58274 690.25811 c 0
 349.49165 654.37958 366.47776 601.91361 366.47942 546.82454 c 0
 366.47942 546.82154 366.47942 546.81854 366.47942 546.81654 c 0
 366.853587203 520.220421212 388.74465096 498.635165384 415.343401601 498.635165384 c 0
 441.937797417 498.635165384 463.828810459 520.216837212 464.20727 546.80854 c 0
 464.20727 546.81154 464.20727 546.81454 464.20727 546.81654 c 0
 464.21817 601.89754 481.20836 654.35036 508.11564 690.21868 c 0
 535.02424 726.08876 567.24374 742.21744 598.58307 742.21744 c 0
 629.92239 742.21744 662.1419 726.08876 689.05049 690.21868 c 0
 715.95833 654.34958 732.94872 601.89527 732.95886 546.81295 c 0
 732.95886 497.95109 716.81792 466.19318 688.24029 434.44029 c 0
 659.66196 402.68662 617.2879 373.69455 571.47796 343.15459 c 0
 525.66803 312.61464 476.42226 280.52682 436.28567 235.93061 c 0
 428.90869 227.73396 421.89392 219.01221 415.34335 209.7956 c 1
 408.79278 219.01221 401.77801 227.73396 394.40102 235.93061 c 0
 354.26444 280.52672 305.01868 312.61454 259.20874 343.15449 c 0
 213.39881 373.69445 171.02473 402.68653 142.44642 434.4402 c 0
 113.86811 466.19389 97.727846 497.95252 97.727846 546.81645 c 0
 97.727846 601.90849 114.7143 654.37782 141.62453 690.25811 c 0
 168.53477 726.1384 200.75973 742.27214 232.10364 742.27214 c 0
EndSplineSet
Validated: 9
Ligature2: "'liga' Standard Ligatures in Latin lookup 0 subtable" p i l i n
EndChar

StartChar: pimeja
Encoding: 80 57421 80
Width: 850
Flags: W
LayerCount: 2
Fore
SplineSet
415.33946 840.45232 m 0
 415.245702749 840.45297229 415.093515224 840.453501685 414.999755704 840.453501685 c 0
 398.345214722 840.453501685 378.781271686 828.36494669 371.33024 813.47012 c 2
 5.1516163 81.11288 l 2
 2.30792479889 75.4232997161 1.26175309134e-06 65.6434003302 1.26175309134e-06 59.2827474423 c 0
 1.26175309134e-06 32.3333521429 21.8719740085 10.4580732888 48.821369 10.454 c 2
 163.87881 10.454 l 2
 165.703718844 10.2033962157 168.679789564 10.0000076372 170.521825 10.0000076372 c 0
 172.363860436 10.0000076372 175.339931156 10.2033962157 177.16484 10.454 c 2
 653.08178 10.454 l 2
 654.874445202 10.2122946474 657.797443602 10.0161279845 659.60633 10.0161279845 c 0
 661.415216398 10.0161279845 664.338214798 10.2122946474 666.13088 10.454 c 2
 781.17862 10.454 l 2
 808.128019021 10.4580692607 829.999995038 32.3333481153 829.999995038 59.2827474434 c 0
 829.999995038 65.6434003309 827.692071501 75.4232997163 824.84838 81.11288 c 2
 458.66975 813.47012 l 2
 451.276474034 828.24948852 431.864504114 840.33751412 415.33946 840.45232 c 0
414.99999 682.46085 m 1
 518.33984 475.78394 l 1
 414.99999 372.4441 l 1
 311.66015 475.78394 l 1
 414.99999 682.46085 l 1
265.62942 383.72109 m 1
 345.95251 303.398 l 1
 150.65789 108.102 l 1
 127.81988 108.102 l 1
 265.62942 383.72109 l 1
564.37056 383.72109 m 1
 702.18011 108.102 l 1
 679.34209 108.102 l 1
 484.04748 303.398 l 1
 564.37056 383.72109 l 1
414.99999 234.35052 m 1
 541.24851 108.102 l 1
 288.75148 108.102 l 1
 414.99999 234.35052 l 1
EndSplineSet
Validated: 9
Ligature2: "'liga' Standard Ligatures in Latin lookup 0 subtable" p i m e j a
EndChar

StartChar: pini
Encoding: 81 57422 81
Width: 850
Flags: W
LayerCount: 2
Fore
SplineSet
414.26569 839.90444 m 0
 412.29390319 839.857904137 409.11593455 839.549415817 407.17201 839.21585 c 2
 49.453497 839.21585 l 2
 49.2577960641 839.218697216 48.9401197651 839.221008 48.7443981185 839.221008 c 0
 21.8374573025 839.221008 -5.98815127049e-05 817.383490816 -5.98815127049e-05 790.47655 c 0
 -5.98815127049e-05 763.569609184 21.8374573025 741.732092 48.7443981185 741.732092 c 0
 48.9401197651 741.732092 49.2577960641 741.734402784 49.453497 741.73725 c 2
 366.26001 741.73725 l 1
 366.26001 108.12145 l 1
 49.453497 108.12145 l 2
 49.2577960641 108.124297216 48.9401197651 108.126608 48.7443981185 108.126608 c 0
 21.8374573025 108.126608 -5.98815138133e-05 86.289090816 -5.98815138133e-05 59.38215 c 0
 -5.98815138133e-05 32.475209184 21.8374573025 10.637692 48.7443981185 10.637692 c 0
 48.9401197651 10.637692 49.2577960641 10.640002784 49.453497 10.64285 c 2
 407.04732 10.64285 l 2
 409.210598368 10.2879969619 412.745470688 10.0000002933 414.93766 10.0000002933 c 0
 417.129849312 10.0000002933 420.664721632 10.2879969619 422.828 10.64285 c 2
 780.5465 10.64285 l 2
 780.742200936 10.640002784 781.059877235 10.637692 781.255598882 10.637692 c 0
 808.162539698 10.637692 830.000056882 32.475209184 830.000056882 59.38215 c 0
 830.000056882 86.289090816 808.162539698 108.126608 781.255598882 108.126608 c 0
 781.059877235 108.126608 780.742200936 108.124297216 780.5465 108.12145 c 2
 463.74 108.12145 l 1
 463.74 741.73725 l 1
 780.5465 741.73725 l 2
 780.742200936 741.734402784 781.059877235 741.732092 781.255598882 741.732092 c 0
 808.162539698 741.732092 830.000056882 763.569609184 830.000056882 790.47655 c 0
 830.000056882 817.383490816 808.162539698 839.221008 781.255598882 839.221008 c 0
 781.059877235 839.221008 780.742200936 839.218697216 780.5465 839.21585 c 2
 422.95269 839.21585 l 2
 420.711183246 839.597408251 417.046627011 839.907078716 414.772876975 839.907078716 c 0
 414.632889581 839.907078716 414.405669816 839.905896571 414.26569 839.90444 c 0
EndSplineSet
Validated: 9
Ligature2: "'liga' Standard Ligatures in Latin lookup 0 subtable" p i n i
EndChar

StartChar: pipi
Encoding: 82 57423 82
Width: 850
Flags: HW
LayerCount: 2
Fore
SplineSet
232 840 m 2
 232 840 232 840 232 840 c 0
 205 840 183 818 183 791 c 0
 183 764 205 742 232 742 c 0
 232 742 232 742 232 742 c 2
 257 742 l 2
 257 742 257 742 258 742 c 0
 284 742 306 764 306 791 c 0
 306 818 284 840 258 840 c 0
 257 840 257 840 257 840 c 2
 232 840 l 2
452 840 m 2
 452 840 451 840 451 840 c 0
 424 840 402 818 402 791 c 0
 402 764 424 742 451 742 c 0
 451 742 452 742 452 742 c 2
 476 742 l 2
 477 742 477 742 477 742 c 0
 504 742 526 764 526 791 c 0
 526 818 504 840 477 840 c 0
 477 840 477 840 476 840 c 2
 452 840 l 2
354 719 m 0
 327 718 306 696 306 670 c 0
 306 670 306 669 306 669 c 2
 306 596 l 1
 49 596 l 2
 49 596 49 596 49 596 c 0
 22 596 0 574 0 547 c 0
 0 520 22 499 49 499 c 0
 49 499 49 499 49 499 c 2
 306 499 l 1
 306 413 l 1
 49 413 l 2
 49 413 49 413 49 413 c 0
 22 413 -0 391 -0 364 c 0
 -0 337 22 316 49 316 c 0
 49 316 49 316 49 316 c 2
 306 316 l 1
 306 230 l 1
 49 230 l 2
 49 230 49 230 49 230 c 0
 22 230 0 208 0 181 c 0
 0 154 22 133 49 133 c 0
 49 133 49 133 49 133 c 2
 306 133 l 1
 306 59 l 2
 306 59 306 59 306 59 c 0
 306 32 327 10 354 10 c 0
 381 10 403 32 403 59 c 0
 403 59 403 59 403 59 c 2
 403 133 l 1
 659 133 l 2
 659 133 660 133 660 133 c 0
 687 133 709 154 709 181 c 0
 709 208 687 230 660 230 c 0
 660 230 659 230 659 230 c 2
 403 230 l 1
 403 316 l 1
 659 316 l 2
 659 316 660 316 660 316 c 0
 687 316 709 337 709 364 c 0
 709 391 687 413 660 413 c 0
 660 413 659 413 659 413 c 2
 403 413 l 1
 403 499 l 1
 659 499 l 2
 659 499 660 499 660 499 c 0
 687 499 709 520 709 547 c 0
 709 574 687 596 660 596 c 0
 660 596 659 596 659 596 c 2
 403 596 l 1
 403 669 l 2
 403 669 403 670 403 670 c 0
 403 697 381 719 354 719 c 0
 354 719 354 719 354 719 c 0
EndSplineSet
Validated: 5
Ligature2: "'liga' Standard Ligatures in Latin lookup 0 subtable" p i p i
EndChar

StartChar: pi
Encoding: 83 960 83
Width: 850
Flags: HW
LayerCount: 2
Fore
SplineSet
48 840 m 0
 48 840 49 840 49 840 c 0
 76 840 98 818 98 791 c 0
 98 791 98 791 98 790 c 2
 98 108 l 1
 780 108 l 2
 781 108 781 108 781 108 c 0
 808 108 830 86 830 59 c 0
 830 32 808 10 781 10 c 0
 781 10 781 10 780 10 c 2
 49 10 l 2
 22 10 0 32 0 59 c 2
 0 790 l 2
 0 791 0 791 0 791 c 0
 0 818 22 840 48 840 c 0
EndSplineSet
Validated: 1
Ligature2: "'liga' Standard Ligatures in Latin lookup 0 subtable" p i
EndChar

StartChar: poka
Encoding: 84 57424 84
Width: 850
Flags: HW
LayerCount: 2
Fore
SplineSet
48 841 m 0
 48 841 49 841 49 841 c 0
 76 841 98 819 98 792 c 0
 98 792 98 791 98 791 c 2
 98 108 l 1
 488 108 l 1
 488 791 l 2
 488 791 488 792 488 792 c 0
 488 819 510 841 537 841 c 0
 564 841 586 819 586 792 c 0
 586 792 586 791 586 791 c 2
 586 59 l 2
 586 32 564 10 537 10 c 2
 49 10 l 2
 22 10 0 32 0 59 c 2
 0 791 l 2
 0 791 0 792 0 792 c 0
 0 818 22 840 48 841 c 0
720 535 m 0
 780 535 830 485 830 425 c 0
 830 365 780 315 720 315 c 0
 660 315 610 365 610 425 c 0
 610 485 660 535 720 535 c 0
720 437 m 4
 713 437 708 432 708 425 c 4
 708 418 713 413 720 413 c 4
 727 413 732 418 732 425 c 4
 732 432 727 437 720 437 c 4
EndSplineSet
Validated: 1
Ligature2: "'liga' Standard Ligatures in Latin lookup 0 subtable" p o k a
EndChar

StartChar: poki
Encoding: 85 57425 85
Width: 850
Flags: HW
LayerCount: 2
Fore
SplineSet
48 841 m 0
 48 841 49 841 49 841 c 0
 76 841 98 819 98 792 c 0
 98 792 98 791 98 791 c 2
 98 108 l 1
 732 108 l 1
 732 791 l 2
 732 791 732 792 732 792 c 0
 732 819 754 841 781 841 c 0
 808 841 830 819 830 792 c 0
 830 792 830 791 830 791 c 2
 830 59 l 2
 830 32 808 10 781 10 c 2
 49 10 l 2
 22 10 0 32 0 59 c 2
 0 791 l 2
 0 791 0 792 0 792 c 0
 0 818 22 840 48 841 c 0
EndSplineSet
Validated: 1
Ligature2: "'liga' Standard Ligatures in Latin lookup 0 subtable" p o k i
EndChar

StartChar: pona
Encoding: 86 57426 86
Width: 850
Flags: HW
LayerCount: 2
Fore
SplineSet
48 475 m 0
 48 475 49 475 49 475 c 0
 76 475 98 453 98 426 c 0
 98 425 98 425 98 425 c 0
 98 341 131 260 191 201 c 0
 250 141 331 108 415 108 c 0
 499 108 580 141 639 201 c 0
 699 260 732 341 732 425 c 0
 732 425 732 426 732 426 c 0
 732 453 754 475 781 475 c 0
 808 475 830 453 830 426 c 0
 830 426 830 425 830 425 c 0
 830 315 786 209 708 132 c 0
 631 54 525 10 415 10 c 0
 305 10 199 54 122 132 c 0
 44 209 0 315 0 425 c 0
 0 425 -0 425 -0 426 c 0
 -0 452 22 474 48 475 c 0
EndSplineSet
Validated: 1
Ligature2: "'liga' Standard Ligatures in Latin lookup 0 subtable" p o n a
EndChar

StartChar: pu
Encoding: 87 57427 87
Width: 850
Flags: HW
LayerCount: 2
Fore
SplineSet
49 840 m 2
 781 840 l 2
 808 840 830 818 830 791 c 2
 830 59 l 2
 830 32 808 10 781 10 c 2
 49 10 l 2
 22 10 0 32 0 59 c 2
 0 791 l 2
 0 818 22 840 49 840 c 2
98 742 m 1
 98 108 l 1
 335 108 l 1
 226 142 146 244 146 364 c 0
 146 463 201 550 282 597 c 1
 268 600 253 613 248 627 c 2
 223 688 l 2
 221 693 219 701 219 706 c 0
 219 718 227 734 235 742 c 1
 98 742 l 1
301 742 m 1
 306 738 312 730 314 724 c 2
 338 663 l 2
 340 658 342 649 342 644 c 0
 342 637 339 627 336 621 c 1
 351 625 368 629 384 631 c 1
 374 639 366 656 366 668 c 0
 366 669 366 669 366 669 c 2
 366 730 l 2
 366 730 366 731 366 731 c 0
 366 734 367 739 368 742 c 2
 301 742 l 1
462 742 m 6
 463 739 464 734 464 731 c 4
 464 730 464 730 464 730 c 6
 464 669 l 6
 464 669 464 669 464 668 c 4
 464 656 456 639 446 631 c 5
 462 629 479 625 494 621 c 5
 491 627 488 637 488 644 c 4
 488 649 490 658 492 663 c 6
 516 724 l 6
 518 730 524 738 529 742 c 5
 462 742 l 6
595 742 m 1
 603 734 611 718 611 706 c 0
 611 701 609 693 607 688 c 2
 582 627 l 2
 577 613 562 600 548 597 c 1
 629 550 684 463 684 364 c 0
 684 244 604 142 495 108 c 1
 732 108 l 1
 732 742 l 1
 595 742 l 1
415 535 m 0
 320 535 244 459 244 364 c 0
 244 269 320 193 415 193 c 0
 510 193 586 269 586 364 c 0
 586 459 510 535 415 535 c 0
329 426 m 0
 302 425 281 403 281 377 c 0
 281 377 281 376 281 376 c 0
 281 303 341 242 415 242 c 0
 489 242 549 303 549 376 c 0
 549 376 549 377 549 377 c 0
 549 404 527 426 500 426 c 0
 473 426 452 404 452 377 c 0
 452 377 452 376 452 376 c 0
 452 355 436 340 415 340 c 0
 394 340 378 355 378 376 c 0
 378 376 378 377 378 377 c 0
 378 404 357 426 330 426 c 0
 329 426 329 426 329 426 c 0
EndSplineSet
Validated: 9
Ligature2: "'liga' Standard Ligatures in Latin lookup 0 subtable" p u
EndChar

StartChar: sama
Encoding: 88 57428 88
Width: 850
Flags: HW
LayerCount: 2
Fore
SplineSet
49 643 m 2
 49 643 49 643 49 643 c 0
 22 643 0 621 0 594 c 0
 0 567 22 546 49 546 c 0
 49 546 49 546 49 546 c 2
 781 546 l 2
 781 546 781 546 781 546 c 0
 808 546 830 567 830 594 c 0
 830 621 808 643 781 643 c 0
 781 643 781 643 781 643 c 2
 49 643 l 2
49 277 m 2
 49 277 49 277 49 277 c 0
 22 277 0 256 0 229 c 0
 0 202 22 180 49 180 c 0
 49 180 49 180 49 180 c 2
 781 180 l 2
 781 180 781 180 781 180 c 0
 808 180 830 202 830 229 c 0
 830 256 808 277 781 277 c 0
 781 277 781 277 781 277 c 2
 49 277 l 2
EndSplineSet
Validated: 5
Ligature2: "'liga' Standard Ligatures in Latin lookup 0 subtable" s a m a
EndChar

StartChar: seli
Encoding: 89 57429 89
Width: 850
Flags: HW
LayerCount: 2
Fore
SplineSet
414 840 m 0
 414 840 415 840 415 840 c 0
 442 840 464 818 464 791 c 0
 464 791 464 791 464 790 c 2
 464 364 l 2
 464 363 464 363 464 363 c 0
 464 336 442 314 415 314 c 0
 388 314 366 336 366 363 c 0
 366 363 366 363 366 364 c 2
 366 790 l 2
 366 791 366 791 366 791 c 0
 366 818 388 840 414 840 c 0
782 657 m 0
 809 656 830 634 830 608 c 0
 830 600 827 589 823 582 c 2
 640 278 l 2
 632 264 613 253 598 253 c 0
 571 253 549 275 549 302 c 0
 549 310 552 321 556 328 c 2
 739 633 l 2
 747 646 766 657 781 657 c 0
 782 657 782 657 782 657 c 0
51 657 m 0
 66 656 84 645 91 633 c 2
 274 328 l 2
 278 321 281 310 281 302 c 0
 281 275 259 253 232 253 c 0
 217 253 198 264 190 278 c 2
 7 582 l 2
 3 589 0 600 0 608 c 0
 0 635 22 657 49 657 c 0
 49 657 50 657 51 657 c 0
415 230 m 0
 475 230 525 180 525 120 c 0
 525 60 475 10 415 10 c 0
 355 10 305 60 305 120 c 0
 305 180 355 230 415 230 c 0
415 132 m 4
 408 132 403 127 403 120 c 4
 403 112 408 108 415 108 c 4
 422 108 427 112 427 120 c 4
 427 127 422 132 415 132 c 4
EndSplineSet
Validated: 1
Ligature2: "'liga' Standard Ligatures in Latin lookup 0 subtable" s e l i
EndChar

StartChar: selo
Encoding: 90 57430 90
Width: 850
Flags: HW
LayerCount: 2
Fore
SplineSet
231 841 m 0
 231 841 232 841 232 841 c 0
 234 841 238 841 240 841 c 2
 590 841 l 2
 592 841 596 841 598 841 c 0
 600 841 604 841 606 841 c 2
 659 841 l 2
 753 841 830 764 830 670 c 2
 830 60 l 2
 830 59 830 59 830 59 c 0
 830 32 808 10 781 10 c 0
 754 10 732 32 732 59 c 0
 732 59 732 59 732 60 c 2
 732 670 l 2
 732 711 700 743 659 743 c 2
 647 743 l 1
 647 60 l 2
 647 59 647 59 647 59 c 0
 647 32 625 10 598 10 c 0
 571 10 549 32 549 59 c 0
 549 59 549 59 549 60 c 2
 549 743 l 1
 281 743 l 1
 281 60 l 2
 281 59 281 59 281 59 c 0
 281 32 259 10 232 10 c 0
 205 10 183 32 183 59 c 0
 183 59 183 59 183 60 c 2
 183 743 l 1
 171 743 l 2
 130 743 98 711 98 670 c 2
 98 60 l 2
 98 59 98 59 98 59 c 0
 98 32 76 10 49 10 c 0
 22 10 -0 32 -0 59 c 0
 -0 59 0 59 0 60 c 2
 0 670 l 2
 0 764 77 841 171 841 c 2
 224 841 l 2
 226 841 229 841 231 841 c 0
EndSplineSet
Validated: 1
Ligature2: "'liga' Standard Ligatures in Latin lookup 0 subtable" s e l o
EndChar

StartChar: seme
Encoding: 91 57431 91
Width: 850
Flags: HW
LayerCount: 2
Fore
SplineSet
415 840 m 0
 516 840 613 827 689 802 c 0
 727 789 759 774 784 754 c 0
 809 734 830 705 830 669 c 0
 830 607 796 557 755 523 c 0
 714 489 666 465 620 442 c 0
 574 419 531 397 503 374 c 0
 476 351 464 332 464 303 c 0
 464 303 464 302 464 302 c 0
 464 275 442 253 415 253 c 0
 388 253 366 275 366 302 c 0
 366 302 366 303 366 303 c 0
 366 365 400 415 441 449 c 0
 482 483 530 507 576 530 c 0
 622 553 665 575 693 598 c 0
 720 621 732 639 732 668 c 0
 732 668 731 671 723 678 c 0
 711 687 689 699 658 709 c 0
 597 730 508 742 415 742 c 0
 322 742 233 730 172 709 c 0
 141 699 119 687 107 678 c 0
 99 671 98 668 98 668 c 0
 98 668 98 667 98 667 c 0
 98 640 76 618 49 618 c 0
 22 618 -0 640 -0 667 c 0
 -0 668 0 669 0 669 c 0
 0 705 21 734 46 754 c 0
 71 774 103 789 141 802 c 0
 217 827 314 840 415 840 c 0
415 230 m 0
 475 230 525 180 525 120 c 0
 525 60 475 10 415 10 c 0
 355 10 305 60 305 120 c 0
 305 180 355 230 415 230 c 0
415 132 m 4
 408 132 403 127 403 120 c 4
 403 113 408 108 415 108 c 4
 422 108 427 113 427 120 c 4
 427 127 422 132 415 132 c 4
EndSplineSet
Validated: 1
Ligature2: "'liga' Standard Ligatures in Latin lookup 0 subtable" s e m e
EndChar

StartChar: sewi
Encoding: 92 57432 92
Width: 850
Flags: HW
LayerCount: 2
Fore
SplineSet
780 841 m 0
 754 840 732 818 732 792 c 0
 732 792 732 791 732 791 c 2
 732 60 l 2
 732 59 732 59 732 59 c 0
 732 32 754 10 781 10 c 0
 808 10 830 32 830 59 c 0
 830 59 830 59 830 60 c 2
 830 791 l 2
 830 791 830 792 830 792 c 0
 830 819 808 841 781 841 c 0
 781 841 781 841 780 841 c 0
634 658 m 0
 608 657 586 636 586 609 c 0
 586 609 586 609 586 608 c 0
 586 465 576 327 558 229 c 0
 549 180 539 142 530 121 c 0
 529 120 529 119 529 118 c 1
 519 129 508 151 497 182 c 0
 477 243 464 333 464 425 c 0
 464 452 442 473 415 473 c 0
 389 473 367 452 367 425 c 0
 367 333 354 243 333 182 c 0
 323 151 311 129 302 118 c 0
 300 115 298 113 297 112 c 0
 272 129 245 177 245 239 c 0
 245 240 245 241 245 242 c 1
 245 242 l 2
 245 242 245 242 245 242 c 0
 244 269 223 291 196 291 c 0
 169 291 148 269 147 243 c 0
 147 243 147 243 147 242 c 2
 147 242 l 1
 147 163 97 108 49 108 c 0
 49 108 49 108 49 108 c 0
 22 108 -0 86 -0 60 c 0
 -0 33 22 11 49 11 c 0
 49 11 49 11 49 11 c 0
 107 11 155 38 190 81 c 1
 212 49 241 24 279 13 c 0
 283 12 289 11 293 11 c 0
 329 11 358 32 378 57 c 0
 393 75 405 97 415 123 c 1
 426 97 438 75 453 57 c 0
 473 32 502 11 537 11 c 0
 562 11 581 25 593 38 c 0
 605 51 612 65 619 82 c 0
 634 115 645 158 654 212 c 0
 673 319 684 460 684 608 c 0
 684 609 684 609 684 609 c 0
 684 636 662 658 635 658 c 0
 635 658 634 658 634 658 c 0
EndSplineSet
Validated: 5
Ligature2: "'liga' Standard Ligatures in Latin lookup 0 subtable" s e w i
EndChar

StartChar: sijelo
Encoding: 93 57433 93
Width: 850
Flags: HW
LayerCount: 2
Fore
SplineSet
414 841 m 0
 414 841 415 841 415 841 c 0
 417 841 421 841 423 841 c 2
 781 841 l 2
 808 841 830 819 830 792 c 2
 830 60 l 2
 830 59 830 59 830 59 c 0
 830 32 808 10 781 10 c 0
 754 10 732 32 732 59 c 0
 732 59 732 59 732 60 c 2
 732 743 l 1
 464 743 l 1
 464 60 l 2
 464 59 464 59 464 59 c 0
 464 32 442 10 415 10 c 0
 388 10 366 32 366 59 c 0
 366 59 366 59 366 60 c 2
 366 743 l 1
 98 743 l 1
 98 60 l 2
 98 59 98 59 98 59 c 0
 98 32 76 10 49 10 c 0
 22 10 -0 32 -0 59 c 0
 -0 59 0 59 0 60 c 2
 0 792 l 2
 0 819 22 841 49 841 c 2
 407 841 l 2
 409 841 412 841 414 841 c 0
EndSplineSet
Validated: 1
Ligature2: "'liga' Standard Ligatures in Latin lookup 0 subtable" s i j e l o
EndChar

StartChar: sike
Encoding: 94 57434 94
Width: 850
Flags: HW
LayerCount: 2
Fore
SplineSet
415 840 m 0
 525 840 631 796 708 718 c 0
 786 641 830 535 830 425 c 0
 830 315 786 209 708 132 c 0
 631 54 525 10 415 10 c 0
 305 10 199 54 122 132 c 0
 44 209 0 315 0 425 c 0
 0 535 44 641 122 718 c 0
 199 796 305 840 415 840 c 0
415 742 m 4
 331 742 250 709 191 649 c 4
 131 590 98 509 98 425 c 4
 98 341 131 260 191 201 c 4
 250 141 331 108 415 108 c 4
 499 108 580 141 639 201 c 4
 699 260 732 341 732 425 c 4
 732 509 699 590 639 649 c 4
 580 709 499 742 415 742 c 4
415 657 m 0
 287 657 183 553 183 425 c 0
 183 297 287 193 415 193 c 0
 543 193 647 297 647 425 c 0
 647 553 543 657 415 657 c 0
415 559 m 0
 490 559 549 500 549 425 c 0
 549 350 490 291 415 291 c 0
 340 291 281 350 281 425 c 0
 281 500 340 559 415 559 c 0
EndSplineSet
Validated: 9
Ligature2: "'liga' Standard Ligatures in Latin lookup 0 subtable" s i k e
EndChar

StartChar: sina
Encoding: 95 57435 95
Width: 850
Flags: HW
LayerCount: 2
Fore
SplineSet
248 840 m 0
 222 840 200 818 200 791 c 0
 200 791 200 791 200 791 c 2
 200 242 l 2
 200 114 304 10 432 10 c 0
 559 10 663 114 663 242 c 0
 663 369 559 473 432 473 c 0
 382 473 336 457 298 430 c 1
 298 791 l 2
 298 791 298 791 298 791 c 0
 298 818 276 840 249 840 c 0
 249 840 248 840 248 840 c 0
432 376 m 0
 506 376 566 316 566 242 c 0
 566 167 506 108 432 108 c 0
 357 108 298 167 298 242 c 0
 298 316 357 376 432 376 c 0
EndSplineSet
Validated: 5
Ligature2: "'liga' Standard Ligatures in Latin lookup 0 subtable" s i n a
EndChar

StartChar: sinpin
Encoding: 96 57436 96
Width: 850
Flags: HW
LayerCount: 2
Fore
SplineSet
50 840 m 2
 538 840 l 2
 565 840 587 818 587 791 c 2
 587 59 l 2
 587 32 565 10 538 10 c 2
 50 10 l 2
 49 10 49 10 49 10 c 0
 22 10 -0 32 -0 59 c 0
 -0 86 22 108 49 108 c 0
 49 108 49 108 50 108 c 2
 489 108 l 1
 489 742 l 1
 50 742 l 2
 49 742 49 742 49 742 c 0
 22 742 -0 764 -0 791 c 0
 -0 818 22 840 49 840 c 0
 49 840 49 840 50 840 c 2
721 535 m 0
 781 535 831 485 831 425 c 0
 831 365 781 315 721 315 c 0
 661 315 611 365 611 425 c 0
 611 485 661 535 721 535 c 0
721 437 m 4
 714 437 709 432 709 425 c 4
 709 418 714 413 721 413 c 4
 728 413 733 418 733 425 c 4
 733 432 728 437 721 437 c 4
EndSplineSet
Validated: 1
Ligature2: "'liga' Standard Ligatures in Latin lookup 0 subtable" s i n p i n
EndChar

StartChar: sin
Encoding: 97 57437 97
Width: 850
Flags: HW
LayerCount: 2
Fore
SplineSet
414 596 m 0
 388 595 366 573 366 547 c 0
 366 547 366 546 366 546 c 2
 366 242 l 2
 366 241 366 241 366 241 c 0
 366 214 388 192 415 192 c 0
 442 192 464 214 464 241 c 0
 464 241 464 241 464 242 c 2
 464 546 l 2
 464 546 464 547 464 547 c 0
 464 574 442 596 415 596 c 0
 415 596 414 596 414 596 c 0
49 107 m 2
 49 107 49 107 49 107 c 0
 22 107 -0 86 -0 59 c 0
 -0 32 22 10 49 10 c 0
 49 10 49 10 49 10 c 2
 293 10 l 2
 293 10 294 10 294 10 c 0
 321 10 343 32 343 59 c 0
 343 86 321 107 294 107 c 0
 294 107 293 107 293 107 c 2
 49 107 l 2
537 107 m 2
 537 107 536 107 536 107 c 0
 509 107 487 86 487 59 c 0
 487 32 509 10 536 10 c 0
 536 10 537 10 537 10 c 2
 781 10 l 2
 781 10 781 10 781 10 c 0
 808 10 830 32 830 59 c 0
 830 86 808 107 781 107 c 0
 781 107 781 107 781 107 c 2
 537 107 l 2
EndSplineSet
Validated: 5
Ligature2: "'liga' Standard Ligatures in Latin lookup 0 subtable" s i n
EndChar

StartChar: sitelen
Encoding: 98 57438 98
Width: 850
Flags: HW
LayerCount: 2
Fore
SplineSet
49 840 m 2
 781 840 l 2
 808 840 830 818 830 791 c 2
 830 59 l 2
 830 32 808 10 781 10 c 2
 49 10 l 2
 22 10 0 32 0 59 c 2
 0 791 l 2
 0 818 22 840 49 840 c 2
98 742 m 5
 98 108 l 5
 732 108 l 5
 732 742 l 5
 98 742 l 5
231 499 m 0
 205 499 183 477 183 450 c 0
 183 450 183 450 183 449 c 2
 183 401 l 2
 183 400 183 400 183 400 c 0
 183 373 205 351 232 351 c 0
 259 351 281 373 281 400 c 0
 281 400 281 400 281 401 c 2
 281 449 l 2
 281 450 281 450 281 450 c 0
 281 477 259 499 232 499 c 0
 232 499 231 499 231 499 c 0
414 499 m 0
 388 499 366 477 366 450 c 0
 366 450 366 450 366 449 c 2
 366 401 l 2
 366 400 366 400 366 400 c 0
 366 373 388 351 415 351 c 0
 442 351 464 373 464 400 c 0
 464 400 464 400 464 401 c 2
 464 449 l 2
 464 450 464 450 464 450 c 0
 464 477 442 499 415 499 c 0
 415 499 414 499 414 499 c 0
597 499 m 0
 571 499 549 477 549 450 c 0
 549 450 549 450 549 449 c 2
 549 401 l 2
 549 400 549 400 549 400 c 0
 549 373 571 351 598 351 c 0
 625 351 647 373 647 400 c 0
 647 400 647 400 647 401 c 2
 647 449 l 2
 647 450 647 450 647 450 c 0
 647 477 625 499 598 499 c 0
 598 499 598 499 597 499 c 0
EndSplineSet
Validated: 9
Ligature2: "'liga' Standard Ligatures in Latin lookup 0 subtable" s i t e l e n
EndChar

StartChar: sona
Encoding: 99 57439 99
Width: 850
Flags: HW
LayerCount: 2
Fore
SplineSet
353 840 m 0
 327 840 305 818 305 791 c 0
 305 791 305 791 305 791 c 2
 305 705 l 2
 305 705 305 705 305 704 c 0
 305 678 327 656 354 656 c 0
 381 656 403 678 403 704 c 0
 403 705 403 705 403 705 c 2
 403 791 l 2
 403 791 403 791 403 791 c 0
 403 818 381 840 354 840 c 0
 354 840 354 840 353 840 c 0
660 840 m 0
 660 840 659 840 659 840 c 0
 645 840 627 830 619 819 c 2
 558 734 l 2
 553 726 549 713 549 705 c 0
 549 678 571 656 598 656 c 0
 612 656 630 665 638 677 c 2
 699 762 l 2
 704 769 708 782 708 791 c 0
 708 818 686 840 660 840 c 0
47 840 m 0
 21 839 0 817 0 791 c 0
 0 782 4 769 9 762 c 2
 70 677 l 2
 79 665 96 656 111 656 c 0
 138 656 159 678 159 705 c 0
 159 713 155 726 150 734 c 2
 89 819 l 2
 81 830 63 840 49 840 c 0
 48 840 48 840 47 840 c 0
49 595 m 2
 22 595 0 574 0 547 c 2
 0 59 l 2
 0 32 22 10 49 10 c 2
 659 10 l 2
 686 10 708 32 708 59 c 2
 708 547 l 2
 708 574 686 595 659 595 c 2
 49 595 l 2
98 498 m 1
 610 498 l 1
 610 108 l 1
 98 108 l 1
 98 498 l 1
EndSplineSet
Validated: 5
Ligature2: "'liga' Standard Ligatures in Latin lookup 0 subtable" s o n a
EndChar

StartChar: soweli
Encoding: 100 57440 100
Width: 850
Flags: HW
LayerCount: 2
Fore
SplineSet
293 840 m 2
 292 840 292 840 292 840 c 0
 265 840 243 818 243 791 c 0
 243 764 265 742 292 742 c 0
 292 742 292 742 293 742 c 2
 536 742 l 2
 643 740 726 653 726 546 c 0
 726 545 726 543 726 542 c 0
 723 436 637 352 532 352 c 0
 530 352 528 352 526 352 c 0
 525 352 525 352 524 352 c 0
 497 352 476 330 476 303 c 2
 476 59 l 2
 476 59 476 59 476 59 c 0
 476 32 497 10 524 10 c 0
 551 10 573 32 573 59 c 0
 573 59 573 59 573 59 c 2
 573 258 l 1
 711 278 820 396 823 540 c 0
 823 542 823 545 823 547 c 0
 823 705 697 836 538 840 c 0
 537 840 537 840 537 840 c 0
 537 840 537 840 537 840 c 2
 293 840 l 2
476 596 m 2
 475 596 475 596 475 596 c 0
 448 596 426 574 426 547 c 0
 426 520 448 498 475 498 c 0
 475 498 475 499 476 499 c 2
 488 499 l 2
 488 499 488 498 489 498 c 0
 515 498 537 520 537 547 c 0
 537 574 515 596 489 596 c 0
 488 596 488 596 488 596 c 2
 476 596 l 2
598 596 m 2
 597 596 597 596 597 596 c 0
 570 596 548 574 548 547 c 0
 548 520 570 498 597 498 c 0
 597 498 597 499 598 499 c 2
 610 499 l 2
 610 499 610 498 610 498 c 0
 637 498 659 520 659 547 c 0
 659 574 637 596 610 596 c 0
 610 596 610 596 610 596 c 2
 598 596 l 2
48 353 m 0
 22 352 0 331 0 304 c 0
 0 304 0 304 0 303 c 2
 0 59 l 2
 0 59 -0 59 -0 59 c 0
 -0 32 22 10 49 10 c 0
 76 10 98 32 98 59 c 0
 98 59 98 59 98 59 c 2
 98 303 l 2
 98 304 98 304 98 304 c 0
 98 331 76 353 49 353 c 0
 49 353 48 353 48 353 c 0
207 353 m 0
 180 352 159 331 159 304 c 0
 159 304 159 304 159 303 c 2
 159 59 l 2
 159 59 159 59 159 59 c 0
 159 32 180 10 207 10 c 0
 234 10 256 32 256 59 c 0
 256 59 256 59 256 59 c 2
 256 303 l 2
 256 304 256 304 256 304 c 0
 256 331 234 353 207 353 c 0
 207 353 207 353 207 353 c 0
365 353 m 0
 339 352 317 331 317 304 c 0
 317 304 317 304 317 303 c 2
 317 59 l 2
 317 59 317 59 317 59 c 0
 317 32 339 10 366 10 c 0
 393 10 415 32 415 59 c 0
 415 59 415 59 415 59 c 2
 415 303 l 2
 415 304 415 304 415 304 c 0
 415 331 393 353 366 353 c 0
 366 353 365 353 365 353 c 0
EndSplineSet
Validated: 5
Ligature2: "'liga' Standard Ligatures in Latin lookup 0 subtable" s o w e l i
EndChar

StartChar: suli
Encoding: 101 57441 101
Width: 850
Flags: HW
LayerCount: 2
Fore
SplineSet
50 840 m 0
 66 840 86 827 93 812 c 2
 415 168 l 1
 737 812 l 2
 745 828 764 840 781 840 c 0
 808 840 830 818 830 791 c 0
 830 785 828 775 825 769 c 2
 459 37 l 2
 451 22 432 10 415 10 c 0
 398 10 379 22 371 37 c 2
 5 769 l 2
 2 775 -0 785 -0 791 c 0
 -0 818 22 840 49 840 c 0
 49 840 50 840 50 840 c 0
EndSplineSet
Validated: 1
Ligature2: "'liga' Standard Ligatures in Latin lookup 0 subtable" s u l i
EndChar

StartChar: suno
Encoding: 102 57442 102
Width: 850
Flags: HW
LayerCount: 2
Fore
SplineSet
414 840 m 0
 388 840 366 818 366 791 c 0
 366 791 366 791 366 791 c 2
 366 713 l 1
 244 693 147 596 127 474 c 1
 49 474 l 2
 49 474 49 474 49 474 c 0
 22 474 -0 452 -0 425 c 0
 -0 398 22 376 49 376 c 0
 49 376 49 376 49 376 c 2
 127 376 l 1
 147 254 244 157 366 137 c 1
 366 59 l 2
 366 59 366 59 366 59 c 0
 366 32 388 10 415 10 c 0
 442 10 464 32 464 59 c 0
 464 59 464 59 464 59 c 2
 464 137 l 1
 586 157 683 254 703 376 c 1
 781 376 l 2
 781 376 781 376 781 376 c 0
 808 376 830 398 830 425 c 0
 830 452 808 474 781 474 c 0
 781 474 781 474 781 474 c 2
 703 474 l 1
 683 596 586 693 464 713 c 1
 464 791 l 2
 464 791 464 791 464 791 c 0
 464 818 442 840 415 840 c 0
 415 840 414 840 414 840 c 0
408 620 m 0
 410 620 413 619 415 619 c 0
 417 619 420 620 422 620 c 0
 525 616 606 535 610 432 c 0
 610 430 609 427 609 425 c 0
 609 423 610 420 610 418 c 0
 606 315 525 234 422 230 c 0
 420 230 417 231 415 231 c 0
 413 231 410 230 408 230 c 0
 305 234 224 315 220 418 c 0
 220 420 221 423 221 425 c 0
 221 427 220 430 220 432 c 0
 224 535 305 616 408 620 c 0
EndSplineSet
Validated: 5
Ligature2: "'liga' Standard Ligatures in Latin lookup 0 subtable" s u n o
EndChar

StartChar: supa
Encoding: 103 57443 103
Width: 850
Flags: HW
LayerCount: 2
Fore
SplineSet
171 596 m 0
 169 596 165 596 163 596 c 2
 49 596 l 2
 49 596 49 596 49 596 c 0
 22 596 0 574 0 547 c 0
 0 520 22 498 49 498 c 0
 49 498 49 498 49 498 c 2
 123 498 l 1
 123 59 l 2
 123 59 123 59 123 59 c 0
 123 32 144 10 171 10 c 0
 198 10 220 32 220 59 c 0
 220 59 220 59 220 59 c 2
 220 498 l 1
 610 498 l 1
 610 59 l 2
 610 59 610 59 610 59 c 0
 610 32 632 10 659 10 c 0
 686 10 707 32 707 59 c 0
 707 59 707 59 707 59 c 2
 707 498 l 1
 781 498 l 2
 781 498 781 498 781 498 c 0
 808 498 830 520 830 547 c 0
 830 574 808 596 781 596 c 0
 781 596 781 596 781 596 c 2
 667 596 l 2
 664 596 661 596 659 596 c 0
 657 596 653 596 651 596 c 2
 179 596 l 2
 177 596 173 596 171 596 c 0
 171 596 171 596 171 596 c 0
EndSplineSet
Validated: 5
Ligature2: "'liga' Standard Ligatures in Latin lookup 0 subtable" s u p a
EndChar

